<svg height="486pt" viewBox="0 -4 486.888 486" width="486pt" xmlns="http://www.w3.org/2000/svg"><path d="m362.753906 79.871094c-2.324218-.390625-4.699218.261718-6.5 1.785156-1.796875 1.523438-2.832031 3.757812-2.828125 6.117188l.113281 111.945312c-3.917968.609375-7.957031 1.1875-11.957031 1.730469v-49.628907c1.082031-11.808593-2.496093-23.570312-9.976562-32.769531-8.433594-10.707031-21.425781-16.796875-35.046875-16.429687h-18.894532c-2.019531-.042969-3.980468.691406-5.476562 2.050781l-27.378906 25.636719-26.308594-25.507813c-1.503906-1.429687-3.503906-2.210937-5.578125-2.179687h-20.054687c-24.984376-.070313-45.296876 20.121094-45.378907 45.105468 0 1.378907.09375 2.714844.09375 4.089844v49.761719c-5-.734375-10.785156-1.519531-16.0625-2.378906l.203125-110.871094c.011719-2.363281-1.023437-4.609375-2.828125-6.132813-1.777343-1.585937-4.15625-2.308593-6.515625-1.984374-76.742187 13.425781-120.769531 38.410156-120.839844 66.410156l-1.539062 174.699218c0 42.53125 91.851562 68.417969 192.3125 74.96875l1.597656 53.9375c.40625 11.894532 7.929688 22.371094 19.070313 26.554688 11.140625 4.179688 23.703125 1.238281 31.832031-7.453125 5.554688 5.933594 13.324219 9.296875 21.453125 9.292969 15.886719.058594 28.9375-12.539063 29.4375-28.417969l1.597656-53.941406c34.835938-2.359375 67.34375-7 95.410157-13.6875 1.238281-.007813 2.460937-.304688 3.566406-.863281 5.15625-1.277344 10.167968-2.621094 15-4.035157 48.480468-14.222656 74.105468-33.589843 74.105468-56.023437l1.503907-172.03125h-.097657c.0625-1 .097657-1.636719.097657-2.441406 0-41.816407-86.804688-61.011719-124.132813-67.308594zm108.132813 67.269531c0 13.808594-24.128907 29.429687-62.976563 40.773437-11.789062 3.445313-24.644531 6.46875-38.34375 9.050782l-.128906-99.65625c69.988281 13.09375 101.449219 34.183594 101.449219 49.832031zm-307.25 3.480469c-.082031-.984375-.113281-1.96875-.097657-2.953125.019532-7.746094 3.125-15.164063 8.632813-20.617188 5.503906-5.449219 12.953125-8.484375 20.699219-8.429687h16.800781l29.457031 28.542968c.050782.046876.101563.03125.15625.078126.109375.101562.222656.175781.339844.269531.089844.078125.183594.132812.277344.203125.121094.089844.242187.171875.367187.253906.097657.0625.199219.125.296875.183594.125.074218.25.148437.378906.214844.105469.054687.210938.109374.320313.160156.125.058594.253906.117187.382813.171875.113281.042969.222656.085937.339843.128906.113281.042969.257813.089844.386719.128906.128906.039063.234375.070313.355469.101563.117187.03125.257812.0625.390625.089844.132812.027343.238281.046874.359375.0625.121093.019531.269531.039062.402343.054687.132813.011719.238282.019531.359376.027344.136718.007812.273437.011719.410156.015625.117187 0 .234375-.003906.351562-.007813.140625 0 .277344-.011719.417969-.023437.113281-.011719.226563-.023438.34375-.039063.140625-.019531.28125-.042969.417969-.066406.113281-.023437.226562-.046875.335937-.070313.140625-.035156.277344-.070312.414063-.109374.113281-.03125.222656-.066407.332031-.097657.132813-.046875.265625-.09375.398437-.148437.113282-.042969.222657-.089844.332032-.140625.128906-.054688.253906-.117188.375-.179688.125-.066406.222656-.117187.332031-.183593.109375-.0625.234375-.136719.351563-.210938.113281-.074219.214843-.144531.320312-.222656.109375-.078125.21875-.160156.328125-.246094.105469-.085938.199219-.167969.300781-.257812.058594-.050782.121094.015624.179688-.039063l30.644531-28.644531h15.730469c8.835937-.375 17.296875 3.582031 22.679687 10.597656 4.921875 6 7.230469 13.71875 6.414063 21.433594-.035156.261718-.0625.519531-.070313.78125v51.964844c-8 .839843-16 1.5625-24 2.160156v-17.660156c0-4.417969-3.582031-8-8-8s-8 3.582031-8 8v18.675781c-13 .71875-27.300781 1.089843-41.480469 1.089843-13.847656 0-27.519531-.359374-40.519531-1.046874v-18.71875c0-4.417969-3.582031-8-8-8s-8 3.582031-8 8v17.730468c-8-.585937-16-1.292968-24-2.121094v-52.074218c0-.273438.082031-.542969.054688-.8125zm-47.878907-52.699219-.136718 98.414063c-12.492188-2.441407-24.246094-5.257813-35.105469-8.429688-38.847656-11.34375-62.976563-26.964844-62.976563-40.773438 0-15.289062 30.464844-36.046874 98.21875-49.203124zm127.707032 284.148437c-13.453125 0-26.730469-.332031-39.722656-.976562l30.972656-29.390625.03125-.03125 51.734375-49.089844 87.558593 67.71875c-38.039062 7.648438-83.15625 11.769531-130.574218 11.769531zm-61.484375-2.382812c-33.488281-2.65625-64.539063-7.488281-91.113281-14.246094l64.972656-61.679687 60.84375 43zm41.257812 82.992188c-7.222656.023437-13.15625-5.703126-13.386719-12.921876l-1.644531-52.476562c9.472657.421875 19.378907.675781 28.378907.757812v51.179688c.019531 3.558594-1.375 6.976562-3.878907 9.503906-2.507812 2.523438-5.914062 3.949219-9.472656 3.957032zm56.480469-12.972657c-.285156 7.382813-6.421875 13.183594-13.808594 13.050781-7.386718-.132812-13.3125-6.148437-13.328125-13.539062v-51.207031c10-.109375 19.214844-.382813 28.578125-.820313zm127.0625-87.386719c-4.039062 1.183594-8.207031 2.320313-12.496094 3.40625l-103.4375-80c-3.121094-2.414062-7.535156-2.191406-10.398437.523438l-51.929688 49.277344-68.796875-48.625c-3.117187-2.203125-7.359375-1.898438-10.125.730468l-76.636718 72.742188c-35.308594-11.15625-56.960938-25.804688-56.960938-38.753906l1.285156-145.878906c24.847656 20.921874 76.464844 35.28125 135.613282 42.507812 1.238281.492188 2.585937.652344 3.90625.46875 11.824218 1.375 23.929687 2.460938 36.167968 3.265625 1.214844.386719 2.507813.46875 3.761719.238281 15.746094.960938 31.679687 1.449219 47.480469 1.449219 16.03125 0 32.199218-.5 48.171875-1.488281.535156.109375 1.085937.167968 1.632812.167968.886719-.003906 1.769531-.152343 2.609375-.445312 12.355469-.832031 24.578125-1.957031 36.503906-3.371094.171876.011719.339844.027344.511719.027344.828125 0 1.648438-.128906 2.433594-.378906 58.53125-7.199219 109.621094-21.394532 134.578125-42.027344l-1.269531 145.394531c0 13.820313-23.992188 29.445313-62.605469 40.769531zm0 0"/><path d="m243.582031 102.679688c24.246094-.015626 43.917969-19.632813 44-43.882813v-14.351563c0-24.300781-19.699219-44-44-44s-44 19.699219-44 44v14.351563c.082031 24.25 19.75 43.867187 44 43.882813zm-28-58.234376c.015625-15.390624 12.484375-27.867187 27.878907-27.882812h.121093c15.414063.007812 27.925781 12.46875 28 27.882812v14.351563c0 15.464844-12.535156 28-28 28-15.464843 0-28-12.535156-28-28zm0 0"/><path d="m220.765625 235.847656c-17.070313 0-30.90625 13.835938-30.90625 30.90625 0 17.070313 13.835937 30.90625 30.902344 30.90625 17.070312 0 30.910156-13.835937 30.910156-30.90625-.019531-17.058594-13.847656-30.886718-30.90625-30.90625zm0 45.8125c-8.234375 0-14.90625-6.671875-14.90625-14.90625 0-8.230468 6.671875-14.90625 14.90625-14.90625 8.230469 0 14.90625 6.675782 14.90625 14.90625-.011719 8.230469-6.679687 14.898438-14.90625 14.90625zm0 0"/></svg>