<?xml version="1.0"?>
<svg xmlns="http://www.w3.org/2000/svg" xmlns:xlink="http://www.w3.org/1999/xlink" version="1.1" id="Capa_1" x="0px" y="0px" viewBox="0 0 512 512" style="enable-background:new 0 0 512 512;" xml:space="preserve" width="512px" height="512px" class=""><g transform="matrix(1 0 0 1 0 0)"><rect x="170.667" y="59.733" style="fill:#000000" width="170.667" height="392.533" data-original="#4398D1" class="active-path" data-old_color="#4398D1"/><rect x="102.4" y="93.867" style="fill:#FCCC00" width="68.267" height="358.4" data-original="#3E8CC7" class="" data-old_color="#3E8CC7"/><g>
	<rect x="76.8" y="85.333" style="fill:#000000" width="93.867" height="17.067" data-original="#4398D1" class="active-path" data-old_color="#4398D1"/>
	<rect x="145.067" y="51.2" style="fill:#000000" width="221.867" height="17.067" data-original="#4398D1" class="active-path" data-old_color="#4398D1"/>
</g><rect x="341.333" y="93.867" style="fill:#FCCC00" width="68.267" height="358.4" data-original="#3E8CC7" class="" data-old_color="#3E8CC7"/><rect x="341.333" y="85.333" style="fill:#000000" width="93.867" height="17.067" data-original="#4398D1" class="active-path" data-old_color="#4398D1"/><g>
	<rect x="196.267" y="341.333" style="fill:#126099;" width="17.067" height="25.6" data-original="#126099" class=""/>
	<rect x="230.4" y="341.333" style="fill:#126099;" width="17.067" height="25.6" data-original="#126099" class=""/>
	<rect x="264.533" y="341.333" style="fill:#126099;" width="17.067" height="25.6" data-original="#126099" class=""/>
	<rect x="298.667" y="341.333" style="fill:#126099;" width="17.067" height="25.6" data-original="#126099" class=""/>
	<rect x="196.267" y="298.667" style="fill:#126099;" width="17.067" height="25.6" data-original="#126099" class=""/>
	<rect x="230.4" y="298.667" style="fill:#126099;" width="17.067" height="25.6" data-original="#126099" class=""/>
	<rect x="264.533" y="298.667" style="fill:#126099;" width="17.067" height="25.6" data-original="#126099" class=""/>
	<rect x="298.667" y="298.667" style="fill:#126099;" width="17.067" height="25.6" data-original="#126099" class=""/>
	<rect x="196.267" y="256" style="fill:#126099;" width="17.067" height="25.6" data-original="#126099" class=""/>
	<rect x="230.4" y="256" style="fill:#126099;" width="17.067" height="25.6" data-original="#126099" class=""/>
	<rect x="264.533" y="256" style="fill:#126099;" width="17.067" height="25.6" data-original="#126099" class=""/>
	<rect x="298.667" y="256" style="fill:#126099;" width="17.067" height="25.6" data-original="#126099" class=""/>
	<rect x="196.267" y="213.333" style="fill:#126099;" width="17.067" height="25.6" data-original="#126099" class=""/>
	<rect x="230.4" y="213.333" style="fill:#126099;" width="17.067" height="25.6" data-original="#126099" class=""/>
	<rect x="264.533" y="213.333" style="fill:#126099;" width="17.067" height="25.6" data-original="#126099" class=""/>
	<rect x="298.667" y="213.333" style="fill:#126099;" width="17.067" height="25.6" data-original="#126099" class=""/>
	<rect x="196.267" y="170.667" style="fill:#126099;" width="17.067" height="25.6" data-original="#126099" class=""/>
	<rect x="230.4" y="170.667" style="fill:#126099;" width="17.067" height="25.6" data-original="#126099" class=""/>
	<rect x="264.533" y="170.667" style="fill:#126099;" width="17.067" height="25.6" data-original="#126099" class=""/>
	<rect x="298.667" y="170.667" style="fill:#126099;" width="17.067" height="25.6" data-original="#126099" class=""/>
	<rect x="196.267" y="128" style="fill:#126099;" width="17.067" height="25.6" data-original="#126099" class=""/>
	<rect x="230.4" y="128" style="fill:#126099;" width="17.067" height="25.6" data-original="#126099" class=""/>
	<rect x="264.533" y="128" style="fill:#126099;" width="17.067" height="25.6" data-original="#126099" class=""/>
	<rect x="298.667" y="128" style="fill:#126099;" width="17.067" height="25.6" data-original="#126099" class=""/>
	<rect x="196.267" y="85.333" style="fill:#126099;" width="17.067" height="25.6" data-original="#126099" class=""/>
	<rect x="230.4" y="85.333" style="fill:#126099;" width="17.067" height="25.6" data-original="#126099" class=""/>
	<rect x="264.533" y="85.333" style="fill:#126099;" width="17.067" height="25.6" data-original="#126099" class=""/>
	<rect x="298.667" y="85.333" style="fill:#126099;" width="17.067" height="25.6" data-original="#126099" class=""/>
	<rect x="128" y="384" style="fill:#126099;" width="17.067" height="25.6" data-original="#126099" class=""/>
	<rect x="128" y="341.333" style="fill:#126099;" width="17.067" height="25.6" data-original="#126099" class=""/>
	<rect x="128" y="298.667" style="fill:#126099;" width="17.067" height="25.6" data-original="#126099" class=""/>
	<rect x="128" y="256" style="fill:#126099;" width="17.067" height="25.6" data-original="#126099" class=""/>
	<rect x="128" y="213.333" style="fill:#126099;" width="17.067" height="25.6" data-original="#126099" class=""/>
	<rect x="128" y="170.667" style="fill:#126099;" width="17.067" height="25.6" data-original="#126099" class=""/>
	<rect x="128" y="128" style="fill:#126099;" width="17.067" height="25.6" data-original="#126099" class=""/>
	<rect x="366.933" y="384" style="fill:#126099;" width="17.067" height="25.6" data-original="#126099" class=""/>
	<rect x="366.933" y="341.333" style="fill:#126099;" width="17.067" height="25.6" data-original="#126099" class=""/>
	<rect x="366.933" y="298.667" style="fill:#126099;" width="17.067" height="25.6" data-original="#126099" class=""/>
	<rect x="366.933" y="256" style="fill:#126099;" width="17.067" height="25.6" data-original="#126099" class=""/>
	<rect x="366.933" y="213.333" style="fill:#126099;" width="17.067" height="25.6" data-original="#126099" class=""/>
	<rect x="366.933" y="170.667" style="fill:#126099;" width="17.067" height="25.6" data-original="#126099" class=""/>
	<rect x="366.933" y="128" style="fill:#126099;" width="17.067" height="25.6" data-original="#126099" class=""/>
</g><rect x="34.133" y="315.733" style="fill:#75462E;" width="17.067" height="136.533" data-original="#75462E" class=""/><g>
	<rect x="34.133" y="273.067" style="fill:#88B337;" width="17.067" height="85.333" data-original="#88B337" class=""/>
	
		<rect x="34.127" y="273.07" transform="matrix(-0.6 0.8 -0.8 -0.6 320.8383 471.0544)" style="fill:#88B337;" width="17.058" height="85.333" data-original="#88B337" class=""/>
	
		<rect x="0.026" y="307.199" transform="matrix(-0.8001 0.5998 -0.5998 -0.8001 266.2295 542.7441)" style="fill:#88B337;" width="85.33" height="17.057" data-original="#88B337" class=""/>
</g><rect x="213.333" y="392.533" style="fill:#FCCC00" width="85.333" height="59.733" data-original="#87CED9" class="" data-old_color="#87CED9"/><rect x="460.8" y="315.733" style="fill:#75462E;" width="17.067" height="136.533" data-original="#75462E" class=""/><g>
	<rect x="460.8" y="273.067" style="fill:#88B337;" width="17.067" height="85.333" data-original="#88B337" class=""/>
	
		<rect x="460.793" y="273.07" transform="matrix(-0.6 0.8 -0.8 -0.6 1003.5051 129.721)" style="fill:#88B337;" width="17.058" height="85.333" data-original="#88B337" class=""/>
	
		<rect x="426.634" y="307.246" transform="matrix(-0.8001 0.5998 -0.5998 -0.8001 1034.2101 286.9401)" style="fill:#88B337;" width="85.33" height="17.057" data-original="#88B337" class=""/>
</g><polygon style="fill:#FCCC00" points="213.333,436.147 213.333,452.267 298.667,452.267 298.667,398.225 " data-original="#71C4D1" class="" data-old_color="#71C4D1"/><rect x="247.467" y="384" style="fill:#000000" width="17.067" height="68.267" data-original="#4398D1" class="active-path" data-old_color="#4398D1"/><rect y="443.733" style="fill:#A3603E;" width="512" height="17.067" data-original="#A3603E" class=""/><rect x="196.267" y="341.333" width="17.067" height="25.6" data-original="#000000" class="" data-old_color="#000000" style="fill:#FFFFFF"/><rect x="230.4" y="341.333" width="17.067" height="25.6" data-original="#000000" class="" data-old_color="#000000" style="fill:#FFFFFF"/><rect x="264.533" y="341.333" width="17.067" height="25.6" data-original="#000000" class="" data-old_color="#000000" style="fill:#FFFFFF"/><rect x="298.667" y="341.333" width="17.067" height="25.6" data-original="#000000" class="" data-old_color="#000000" style="fill:#FFFFFF"/><rect x="196.267" y="298.667" width="17.067" height="25.6" data-original="#000000" class="" data-old_color="#000000" style="fill:#FFFFFF"/><rect x="230.4" y="298.667" width="17.067" height="25.6" data-original="#000000" class="" data-old_color="#000000" style="fill:#FFFFFF"/><rect x="264.533" y="298.667" width="17.067" height="25.6" data-original="#000000" class="" data-old_color="#000000" style="fill:#FFFFFF"/><rect x="298.667" y="298.667" width="17.067" height="25.6" data-original="#000000" class="" data-old_color="#000000" style="fill:#FFFFFF"/><rect x="196.267" y="256" width="17.067" height="25.6" data-original="#000000" class="" data-old_color="#000000" style="fill:#FFFFFF"/><rect x="230.4" y="256" width="17.067" height="25.6" data-original="#000000" class="" data-old_color="#000000" style="fill:#FFFFFF"/><rect x="264.533" y="256" width="17.067" height="25.6" data-original="#000000" class="" data-old_color="#000000" style="fill:#FFFFFF"/><rect x="298.667" y="256" width="17.067" height="25.6" data-original="#000000" class="" data-old_color="#000000" style="fill:#FFFFFF"/><rect x="196.267" y="213.333" width="17.067" height="25.6" data-original="#000000" class="" data-old_color="#000000" style="fill:#FFFFFF"/><rect x="230.4" y="213.333" width="17.067" height="25.6" data-original="#000000" class="" data-old_color="#000000" style="fill:#FFFFFF"/><rect x="264.533" y="213.333" width="17.067" height="25.6" data-original="#000000" class="" data-old_color="#000000" style="fill:#FFFFFF"/><rect x="298.667" y="213.333" width="17.067" height="25.6" data-original="#000000" class="" data-old_color="#000000" style="fill:#FFFFFF"/><rect x="196.267" y="170.667" width="17.067" height="25.6" data-original="#000000" class="" data-old_color="#000000" style="fill:#FFFFFF"/><rect x="230.4" y="170.667" width="17.067" height="25.6" data-original="#000000" class="" data-old_color="#000000" style="fill:#FFFFFF"/><rect x="264.533" y="170.667" width="17.067" height="25.6" data-original="#000000" class="" data-old_color="#000000" style="fill:#FFFFFF"/><rect x="298.667" y="170.667" width="17.067" height="25.6" data-original="#000000" class="" data-old_color="#000000" style="fill:#FFFFFF"/><rect x="196.267" y="128" width="17.067" height="25.6" data-original="#000000" class="" data-old_color="#000000" style="fill:#FFFFFF"/><rect x="230.4" y="128" width="17.067" height="25.6" data-original="#000000" class="" data-old_color="#000000" style="fill:#FFFFFF"/><rect x="264.533" y="128" width="17.067" height="25.6" data-original="#000000" class="" data-old_color="#000000" style="fill:#FFFFFF"/><rect x="298.667" y="128" width="17.067" height="25.6" data-original="#000000" class="" data-old_color="#000000" style="fill:#FFFFFF"/><rect x="196.267" y="85.333" width="17.067" height="25.6" data-original="#000000" class="" data-old_color="#000000" style="fill:#FFFFFF"/><rect x="230.4" y="85.333" width="17.067" height="25.6" data-original="#000000" class="" data-old_color="#000000" style="fill:#FFFFFF"/><rect x="264.533" y="85.333" width="17.067" height="25.6" data-original="#000000" class="" data-old_color="#000000" style="fill:#FFFFFF"/><rect x="298.667" y="85.333" width="17.067" height="25.6" data-original="#000000" class="" data-old_color="#000000" style="fill:#FFFFFF"/><rect x="128" y="384" width="17.067" height="25.6" data-original="#000000" class="" data-old_color="#000000" style="fill:#FFFFFF"/><rect x="128" y="341.333" width="17.067" height="25.6" data-original="#000000" class="" data-old_color="#000000" style="fill:#FFFFFF"/><rect x="128" y="298.667" width="17.067" height="25.6" data-original="#000000" class="" data-old_color="#000000" style="fill:#FFFFFF"/><rect x="128" y="256" width="17.067" height="25.6" data-original="#000000" class="" data-old_color="#000000" style="fill:#FFFFFF"/><rect x="128" y="213.333" width="17.067" height="25.6" data-original="#000000" class="" data-old_color="#000000" style="fill:#FFFFFF"/><rect x="128" y="170.667" width="17.067" height="25.6" data-original="#000000" class="" data-old_color="#000000" style="fill:#FFFFFF"/><rect x="128" y="128" width="17.067" height="25.6" data-original="#000000" class="" data-old_color="#000000" style="fill:#FFFFFF"/><rect x="366.933" y="384" width="17.067" height="25.6" data-original="#000000" class="" data-old_color="#000000" style="fill:#FFFFFF"/><rect x="366.933" y="341.333" width="17.067" height="25.6" data-original="#000000" class="" data-old_color="#000000" style="fill:#FFFFFF"/><rect x="366.933" y="298.667" width="17.067" height="25.6" data-original="#000000" class="" data-old_color="#000000" style="fill:#FFFFFF"/><rect x="366.933" y="256" width="17.067" height="25.6" data-original="#000000" class="" data-old_color="#000000" style="fill:#FFFFFF"/><rect x="366.933" y="213.333" width="17.067" height="25.6" data-original="#000000" class="" data-old_color="#000000" style="fill:#FFFFFF"/><rect x="366.933" y="170.667" width="17.067" height="25.6" data-original="#000000" class="" data-old_color="#000000" style="fill:#FFFFFF"/><rect x="366.933" y="128" width="17.067" height="25.6" data-original="#000000" class="" data-old_color="#000000" style="fill:#FFFFFF"/><path d="M477.867,332.8l20.48,15.36l10.24-13.653l-25.037-18.773l25.037-18.773l-10.24-13.653l-20.48,15.36v-25.6H460.8v25.6  l-20.48-15.36l-10.24,13.653l25.037,18.773l-25.037,18.773l10.24,13.653l20.48-15.36v110.933h-42.667V102.4H435.2V85.333h-85.333  V68.267h17.067V51.2H145.067v17.067h17.067v17.067H76.8V102.4h17.067v341.333H51.2V332.8l20.48,15.36l10.24-13.653l-25.037-18.773  L81.92,296.96l-10.24-13.653l-20.48,15.36v-25.6H34.133v25.6l-20.48-15.36L3.413,296.96l25.037,18.773L3.413,334.507l10.24,13.653  l20.48-15.36v110.933H0V460.8h512v-17.067h-34.133V332.8z M110.933,102.4h51.2v341.333h-51.2V102.4z M179.2,93.867v-25.6h153.6  v375.467h-25.6v-51.2c0-4.71-3.823-8.533-8.533-8.533h-85.333c-4.71,0-8.533,3.823-8.533,8.533v51.2h-25.6V93.867z M221.867,401.067  h25.6v42.667h-25.6V401.067z M264.533,443.733v-42.667h25.6v42.667H264.533z M401.067,443.733h-51.2V102.4h51.2V443.733z" data-original="#000000" class="" data-old_color="#000000" style="fill:#FFFFFF"/></g> </svg>
