<?xml version="1.0" encoding="utf-8"?>
<!-- Generator: Adobe Illustrator 21.1.0, SVG Export Plug-In . SVG Version: 6.00 Build 0)  -->
<svg version="1.1" id="Layer_1" xmlns="http://www.w3.org/2000/svg" xmlns:xlink="http://www.w3.org/1999/xlink" x="0px" y="0px" width="120px" height="120px"
	 viewBox="0 0 120 120" style="enable-background:new 0 0 120 120;" xml:space="preserve">
<style type="text/css">
	.st0{fill:none;stroke:#FFFFFF;stroke-width:2.5;stroke-miterlimit:10;}
	.st1{fill:#FFFFFF;}
	.st2{fill:none;stroke:#50CFFF;stroke-width:2.5;stroke-miterlimit:10;}
</style>
<g>
	<g>
		<line class="st0" x1="5.3" y1="57.3" x2="5.3" y2="66"/>
		<line class="st0" x1="9.7" y1="61.7" x2="1" y2="61.7"/>
	</g>
	<g>
		<line class="st0" x1="91.3" y1="70.6" x2="91.3" y2="79.3"/>
		<line class="st0" x1="95.7" y1="75" x2="87" y2="75"/>
	</g>
	<g>
		<line class="st0" x1="33" y1="23.1" x2="33" y2="31.7"/>
		<line class="st0" x1="37.3" y1="27.4" x2="28.6" y2="27.4"/>
	</g>
	<g>
		<path class="st1" d="M30.2,84.4c0.2-0.7,0.6-0.7,0.8,0l0.1,0.2c0.2,0.7,1,1.3,1.7,1.3H33c0.7,0,0.8,0.4,0.3,0.8l-0.2,0.1
			c-0.6,0.4-0.9,1.3-0.7,2l0.1,0.2c0.2,0.7-0.1,0.9-0.7,0.5l-0.2-0.1c-0.6-0.4-1.6-0.4-2.1,0l-0.2,0.1c-0.6,0.4-0.9,0.2-0.7-0.5
			l0.1-0.2c0.2-0.7-0.1-1.6-0.7-2l-0.2-0.1c-0.6-0.4-0.5-0.8,0.3-0.8h0.2c0.7,0,1.5-0.6,1.7-1.3L30.2,84.4z"/>
	</g>
	<g>
		<path class="st1" d="M114.8,41.4c0.2-0.7,0.6-0.7,0.8,0l0.1,0.2c0.2,0.7,1,1.3,1.7,1.3h0.2c0.7,0,0.8,0.4,0.3,0.8l-0.2,0.1
			c-0.6,0.4-0.9,1.3-0.7,2l0.1,0.2c0.2,0.7-0.1,0.9-0.7,0.5l-0.2-0.1c-0.6-0.4-1.6-0.4-2.1,0l-0.2,0.1c-0.6,0.4-0.9,0.2-0.7-0.5
			l0.1-0.2c0.2-0.7-0.1-1.6-0.7-2l-0.2-0.1c-0.6-0.4-0.5-0.8,0.3-0.8h0.2c0.7,0,1.5-0.6,1.7-1.3L114.8,41.4z"/>
	</g>
	<g>
		<path class="st1" d="M46.2,24.3c0.3-0.9,0.8-0.9,1.1,0l0.1,0.3c0.3,0.9,1.4,1.7,2.3,1.7H50c1,0,1.1,0.5,0.3,1l-0.2,0.2
			c-0.8,0.6-1.2,1.8-0.9,2.7l0.1,0.3c0.3,0.9-0.1,1.2-0.9,0.6L48.2,31c-0.8-0.6-2.1-0.6-2.9,0l-0.2,0.2c-0.8,0.6-1.2,0.3-0.9-0.6
			l0.1-0.3c0.3-0.9-0.1-2.2-0.9-2.7l-0.2-0.2c-0.8-0.6-0.6-1,0.3-1h0.3c1,0,2-0.8,2.3-1.7L46.2,24.3z"/>
	</g>
	<g>
		<line class="st0" x1="60.7" y1="23.1" x2="60.7" y2="31.7"/>
		<line class="st0" x1="65" y1="27.4" x2="56.3" y2="27.4"/>
	</g>
	<g>
		<line class="st0" x1="88" y1="23.1" x2="88" y2="31.7"/>
		<line class="st0" x1="92.4" y1="27.4" x2="83.7" y2="27.4"/>
	</g>
	<g>
		<path class="st1" d="M73.9,24.3c0.3-0.9,0.8-0.9,1.1,0l0.1,0.3c0.3,0.9,1.4,1.7,2.3,1.7h0.3c1,0,1.1,0.5,0.3,1l-0.2,0.2
			c-0.8,0.6-1.2,1.8-0.9,2.7l0.1,0.3c0.3,0.9-0.1,1.2-0.9,0.6L75.9,31c-0.8-0.6-2.1-0.6-2.9,0l-0.2,0.2c-0.8,0.6-1.2,0.3-0.9-0.6
			l0.1-0.3c0.3-0.9-0.1-2.2-0.9-2.7l-0.2-0.2c-0.8-0.6-0.6-1,0.3-1h0.3c1,0,2-0.8,2.3-1.7L73.9,24.3z"/>
	</g>
	<g>
		<line class="st2" x1="22.5" y1="111.7" x2="98.6" y2="111.7"/>
		<path class="st2" d="M39.1,110.7V97.4C39.1,85,49.2,75,61.5,75h4.1C78,75,88,85,88,97.4v13.3"/>
		<line class="st2" x1="51.8" y1="111.7" x2="51.8" y2="96.8"/>
		<line class="st2" x1="76.1" y1="111.7" x2="76.1" y2="96.8"/>
		<circle class="st2" cx="63.6" cy="62.4" r="12.6"/>
		<path class="st2" d="M53.1,55.6H38l-1.8,16.5l-13-16.5H21c-5,0-9-4-9-9V12c0-5,4-9,9-9h77.1c5,0,9,4,9,9v34.7c0,5-4,9-9,9h-8.5"/>
	</g>
	<line class="st0" x1="104.1" y1="111.7" x2="118.9" y2="111.7"/>
	<line class="st0" x1="17.7" y1="111.7" x2="5.3" y2="111.7"/>
</g>
</svg>
