<?xml version="1.0" encoding="utf-8"?>
<!-- Generator: Adobe Illustrator 21.1.0, SVG Export Plug-In . SVG Version: 6.00 Build 0)  -->
<svg version="1.1" id="Layer_1" xmlns="http://www.w3.org/2000/svg" xmlns:xlink="http://www.w3.org/1999/xlink" x="0px" y="0px" width="120px" height="120px"
	 viewBox="0 0 120 120" style="enable-background:new 0 0 120 120;" xml:space="preserve">
<style type="text/css">
	.st0{fill:none;stroke:#FFFFFF;stroke-width:2.5;stroke-miterlimit:10;}
	.st1{fill:#FFFFFF;}
	.st2{fill:none;stroke:#50CFFF;stroke-width:2.5;stroke-miterlimit:10;}
	.st3{fill:#FFFFFF;stroke:#50CFFF;stroke-width:2.5;stroke-miterlimit:10;}
</style>
<g>
	<g>
		<line class="st0" x1="73.6" y1="105.2" x2="73.6" y2="114.1"/>
		<line class="st0" x1="78" y1="109.7" x2="69.1" y2="109.7"/>
	</g>
	<g>
		<line class="st0" x1="11.3" y1="24.6" x2="11.3" y2="33.5"/>
		<line class="st0" x1="15.8" y1="29" x2="6.9" y2="29"/>
	</g>
	<g>
		<path class="st1" d="M6.5,75.7c0.2-0.7,0.6-0.7,0.8,0L7.4,76c0.2,0.7,1,1.3,1.7,1.3h0.3c0.7,0,0.8,0.4,0.3,0.8l-0.2,0.2
			c-0.6,0.4-0.9,1.3-0.7,2l0.1,0.3c0.2,0.7-0.1,0.9-0.7,0.5L8,80.8c-0.6-0.4-1.6-0.4-2.1,0L5.6,81c-0.6,0.4-0.9,0.2-0.7-0.5L5,80.2
			c0.2-0.7-0.1-1.6-0.7-2L4.1,78c-0.6-0.4-0.5-0.8,0.3-0.8h0.3c0.7,0,1.5-0.6,1.7-1.3L6.5,75.7z"/>
	</g>
	<g>
		<path class="st1" d="M82.7,3.3c0.2-0.7,0.6-0.7,0.8,0l0.1,0.3c0.2,0.7,1,1.3,1.7,1.3h0.3c0.7,0,0.8,0.4,0.3,0.8l-0.2,0.2
			c-0.6,0.4-0.9,1.3-0.7,2L85.1,8c0.2,0.7-0.1,0.9-0.7,0.5l-0.2-0.2c-0.6-0.4-1.6-0.4-2.1,0l-0.2,0.2c-0.6,0.4-0.9,0.2-0.7-0.5
			l0.1-0.3c0.2-0.7-0.1-1.6-0.7-2l-0.2-0.2c-0.6-0.4-0.5-0.8,0.3-0.8h0.3c0.7,0,1.5-0.6,1.7-1.3L82.7,3.3z"/>
	</g>
	<g>
		<path class="st1" d="M111.3,61.1c0.3-0.9,0.8-0.9,1.1,0l0.1,0.4c0.3,0.9,1.4,1.7,2.3,1.7h0.4c1,0,1.1,0.5,0.3,1l-0.3,0.2
			c-0.8,0.6-1.2,1.8-0.9,2.7l0.1,0.4c0.3,0.9-0.1,1.2-0.9,0.6l-0.3-0.2c-0.8-0.6-2.1-0.6-2.9,0l-0.3,0.2c-0.8,0.6-1.2,0.3-0.9-0.6
			l0.1-0.4c0.3-0.9-0.1-2.2-0.9-2.7l-0.3-0.2c-0.8-0.6-0.6-1,0.3-1h0.4c1,0,2-0.8,2.3-1.7L111.3,61.1z"/>
	</g>
	<g>
		<path class="st1" d="M65.6,58.5c0.2-0.7,0.6-0.7,0.8,0l0.1,0.3c0.2,0.7,1,1.2,1.7,1.2h0.3c0.7,0,0.8,0.3,0.2,0.8l-0.2,0.2
			c-0.6,0.4-0.9,1.3-0.6,2l0.1,0.3c0.2,0.7-0.1,0.9-0.6,0.5L67,63.4c-0.6-0.4-1.5-0.4-2.1,0l-0.2,0.2c-0.6,0.4-0.9,0.2-0.6-0.5
			l0.1-0.3c0.2-0.7-0.1-1.6-0.6-2l-0.2-0.2c-0.6-0.4-0.5-0.8,0.2-0.8h0.3c0.7,0,1.5-0.6,1.7-1.2L65.6,58.5z"/>
	</g>
	<g>
		<path class="st1" d="M46.9,58.5c0.2-0.7,0.6-0.7,0.8,0l0.1,0.3c0.2,0.7,1,1.2,1.7,1.2h0.3c0.7,0,0.8,0.3,0.2,0.8l-0.2,0.2
			c-0.6,0.4-0.9,1.3-0.6,2l0.1,0.3c0.2,0.7-0.1,0.9-0.6,0.5l-0.2-0.2c-0.6-0.4-1.5-0.4-2.1,0l-0.2,0.2c-0.6,0.4-0.9,0.2-0.6-0.5
			l0.1-0.3c0.2-0.7-0.1-1.6-0.6-2l-0.2-0.2c-0.6-0.4-0.5-0.8,0.2-0.8h0.3c0.7,0,1.5-0.6,1.7-1.2L46.9,58.5z"/>
	</g>
	<circle class="st2" cx="56.3" cy="60.8" r="17.3"/>
	<circle class="st2" cx="56.3" cy="60.8" r="30.1"/>
	<circle class="st2" cx="56.3" cy="60.8" r="42.5"/>
	<polyline class="st2" points="45.1,19.7 45.1,7.1 67.4,7.1 67.4,19.7 	"/>
	<polyline class="st2" points="94.3,81.8 109.6,97.1 93.8,112.8 78.5,97.5 	"/>
	<polyline class="st2" points="18.3,81.8 3,97.1 18.8,112.8 34,97.5 	"/>
	<polygon class="st3" points="90.5,28.7 89.5,15.1 98.8,4 101.9,16.6 113.2,19.4 104.2,28.1 	"/>
	<g>
		<path class="st1" d="M55.5,70.1v-2.3c-1.3,0-2.7-0.4-3.5-1l0.5-1.5c0.8,0.5,2,1,3.3,1c1.6,0,2.7-0.9,2.7-2.2c0-1.2-0.9-2-2.6-2.7
			c-2.3-0.9-3.7-2-3.7-3.9c0-1.9,1.3-3.3,3.4-3.7v-2.3h1.4v2.2c1.4,0,2.3,0.4,3,0.8L59.5,56c-0.5-0.3-1.4-0.8-2.9-0.8
			c-1.7,0-2.4,1-2.4,2c0,1.2,0.8,1.8,2.8,2.6c2.3,1,3.5,2.1,3.5,4.2c0,1.8-1.2,3.5-3.6,3.9v2.4H55.5z"/>
	</g>
	<line class="st2" x1="64.3" y1="54" x2="101.9" y2="16.6"/>
</g>
</svg>
