<?xml version="1.0" encoding="utf-8"?>
<!-- Generator: Adobe Illustrator 21.1.0, SVG Export Plug-In . SVG Version: 6.00 Build 0)  -->
<svg version="1.1" id="Layer_1" xmlns="http://www.w3.org/2000/svg" xmlns:xlink="http://www.w3.org/1999/xlink" x="0px" y="0px" width="120px" height="120px"
	 viewBox="0 0 120 120" style="enable-background:new 0 0 120 120;" xml:space="preserve">
<style type="text/css">
	.st0{fill:#FFFFFF;}
	.st1{fill:none;stroke:#FFFFFF;stroke-width:2.5;stroke-miterlimit:10;}
	.st2{fill:none;stroke:#50CFFF;stroke-width:2.5;stroke-miterlimit:10;}
</style>
<g>
	<g>
		<path class="st0" d="M61.4,48.4v-3.7c-2.1,0-4.3-0.7-5.6-1.6l0.9-2.4c1.3,0.9,3.2,1.6,5.2,1.6c2.6,0,4.3-1.5,4.3-3.6
			c0-2-1.4-3.2-4.1-4.3c-3.7-1.5-6-3.1-6-6.3c0-3,2.1-5.3,5.5-5.9v-3.7h2.3v3.5c2.2,0.1,3.7,0.7,4.7,1.3l-0.9,2.4
			c-0.8-0.4-2.3-1.2-4.6-1.2c-2.8,0-3.9,1.7-3.9,3.1c0,1.9,1.3,2.8,4.5,4.1c3.7,1.5,5.6,3.4,5.6,6.7c0,2.9-2,5.6-5.8,6.2v3.8H61.4z"
			/>
	</g>
	<path class="st1" d="M84.2,41.1c0.6-2.1,1-4.4,1-6.7c0-12.7-10.3-23.1-23.1-23.1S39.1,21.6,39.1,34.4c0,6.4,2.6,12.1,6.8,16.3"/>
	<g>
		<line class="st1" x1="112.3" y1="2" x2="112.3" y2="10"/>
		<line class="st1" x1="116.3" y1="6" x2="108.3" y2="6"/>
	</g>
	<g>
		<line class="st1" x1="113.5" y1="100.6" x2="113.5" y2="108.6"/>
		<line class="st1" x1="117.5" y1="104.6" x2="109.5" y2="104.6"/>
	</g>
	<g>
		<line class="st1" x1="20.2" y1="16.7" x2="20.2" y2="24.7"/>
		<line class="st1" x1="24.2" y1="20.7" x2="16.2" y2="20.7"/>
	</g>
	<g>
		<path class="st0" d="M6.7,112.6c0.2-0.6,0.5-0.6,0.7,0l0.1,0.2c0.2,0.6,0.9,1.1,1.6,1.1h0.2c0.7,0,0.8,0.3,0.2,0.7l-0.2,0.1
			c-0.5,0.4-0.8,1.2-0.6,1.8l0.1,0.2c0.2,0.6-0.1,0.8-0.6,0.4l-0.2-0.1c-0.5-0.4-1.4-0.4-1.9,0l-0.2,0.1c-0.5,0.4-0.8,0.2-0.6-0.4
			l0.1-0.2c0.2-0.6-0.1-1.5-0.6-1.8l-0.2-0.1c-0.5-0.4-0.4-0.7,0.2-0.7h0.2c0.7,0,1.4-0.5,1.6-1.1L6.7,112.6z"/>
	</g>
	<g>
		<path class="st0" d="M58.8,72.5c0.2-0.6,0.5-0.6,0.7,0l0.1,0.2c0.2,0.6,0.9,1.1,1.6,1.1h0.2c0.7,0,0.8,0.3,0.2,0.7l-0.2,0.1
			c-0.5,0.4-0.8,1.2-0.6,1.8l0.1,0.2c0.2,0.6-0.1,0.8-0.6,0.4L60.1,77c-0.5-0.4-1.4-0.4-1.9,0L58,77.2c-0.5,0.4-0.8,0.2-0.6-0.4
			l0.1-0.2c0.2-0.6-0.1-1.5-0.6-1.8l-0.2-0.1c-0.5-0.4-0.4-0.7,0.2-0.7h0.2c0.7,0,1.4-0.5,1.6-1.1L58.8,72.5z"/>
	</g>
	<g>
		<path class="st0" d="M14.7,46.1c0.3-0.8,0.7-0.8,1,0l0.1,0.3c0.3,0.8,1.2,1.5,2.1,1.5h0.3c0.9,0,1,0.4,0.3,0.9l-0.3,0.2
			c-0.7,0.5-1.1,1.6-0.8,2.5l0.1,0.3c0.3,0.8-0.1,1.1-0.8,0.6l-0.3-0.2c-0.7-0.5-1.9-0.5-2.6,0l-0.3,0.2c-0.7,0.5-1.1,0.3-0.8-0.6
			l0.1-0.3c0.3-0.8-0.1-2-0.8-2.5l-0.3-0.2c-0.7-0.5-0.6-0.9,0.3-0.9h0.3c0.9,0,1.8-0.7,2.1-1.5L14.7,46.1z"/>
	</g>
	<g>
		<g>
			<path class="st2" d="M8.8,93.9V105c0,1.3,1.1,2.4,2.4,2.4h13.1c1.3,0,2.4-1.1,2.4-2.4V83.4L8.8,93.9z"/>
			<path class="st2" d="M34.1,79.6V105c0,1.3,1.1,2.4,2.4,2.4h13.1c1.3,0,2.4-1.1,2.4-2.4V70.2L34.1,79.6z"/>
			<path class="st2" d="M88.5,60.2V105c0,1.3,1.1,2.4,2.4,2.4h13.1c1.3,0,2.4-1.1,2.4-2.4V58.7l-7.8-7.2L88.5,60.2z"/>
			<path class="st2" d="M62.9,82.7V105c0,1.3,1.1,2.4,2.4,2.4h13.1c1.3,0,2.4-1.1,2.4-2.4V66.7L62.9,82.7z"/>
		</g>
		<polygon class="st2" points="8,84.8 2.5,76.5 49.1,48.8 65.1,58 98.9,28.1 94.1,22.2 116.4,16.8 108.7,39.7 104.2,33.9 65.1,69.4 
			49.8,60.3 		"/>
	</g>
</g>
</svg>
