<?xml version="1.0" encoding="utf-8"?>
<!-- Generator: Adobe Illustrator 21.1.0, SVG Export Plug-In . SVG Version: 6.00 Build 0)  -->
<svg version="1.1" id="Layer_1" xmlns="http://www.w3.org/2000/svg" xmlns:xlink="http://www.w3.org/1999/xlink" x="0px" y="0px" width="120px" height="120px"
	 viewBox="0 0 120 120" style="enable-background:new 0 0 120 120;" xml:space="preserve">
<style type="text/css">
	.st0{fill:none;stroke:#FFFFFF;stroke-width:2.5;stroke-miterlimit:10;}
	.st1{fill:#FFFFFF;}
	.st2{fill:none;stroke:#50CFFF;stroke-width:2.5;stroke-miterlimit:10;}
</style>
<g>
	<g>
		<line class="st0" x1="102.5" y1="2" x2="102.5" y2="9.7"/>
		<line class="st0" x1="106.4" y1="5.8" x2="98.7" y2="5.8"/>
	</g>
	<g>
		<line class="st0" x1="14.5" y1="4.4" x2="14.5" y2="12.1"/>
		<line class="st0" x1="18.3" y1="8.3" x2="10.6" y2="8.3"/>
	</g>
	<g>
		<line class="st0" x1="106.3" y1="91.9" x2="106.3" y2="99.6"/>
		<line class="st0" x1="110.1" y1="95.8" x2="102.4" y2="95.8"/>
	</g>
	<g>
		<path class="st1" d="M51.4,26.7c0.2-0.6,0.5-0.6,0.7,0l0,0.1c0.2,0.6,0.9,1.1,1.6,1.1h0.1c0.7,0,0.8,0.3,0.2,0.7L54,28.7
			c-0.5,0.4-0.8,1.2-0.6,1.8l0,0.1c0.2,0.6-0.1,0.8-0.6,0.4L52.7,31c-0.5-0.4-1.4-0.4-1.9,0l-0.1,0.1c-0.5,0.4-0.8,0.2-0.6-0.4
			l0-0.1c0.2-0.6-0.1-1.5-0.6-1.8l-0.1-0.1c-0.5-0.4-0.4-0.7,0.2-0.7h0.1c0.7,0,1.4-0.5,1.6-1.1L51.4,26.7z"/>
	</g>
	<g>
		<path class="st1" d="M14.6,84.8c0.3-0.8,0.7-0.8,1,0l0.1,0.2c0.3,0.8,1.2,1.5,2.1,1.5h0.2c0.9,0,1,0.4,0.3,0.9l-0.2,0.1
			C17.4,88,17,89.2,17.3,90l0.1,0.2c0.3,0.8-0.1,1.1-0.8,0.6l-0.2-0.1c-0.7-0.5-1.9-0.5-2.6,0l-0.2,0.1c-0.7,0.5-1.1,0.3-0.8-0.6
			l0.1-0.2c0.3-0.8-0.1-2-0.8-2.5l-0.2-0.1c-0.7-0.5-0.6-0.9,0.3-0.9h0.2c0.9,0,1.8-0.7,2.1-1.5L14.6,84.8z"/>
	</g>
	<g>
		<path class="st2" d="M39.7,39.4c0,2.4-2,4.4-4.4,4.4h-12c-2.4,0-4.4-2-4.4-4.4l0,0c0-2.4,2-4.4,4.4-4.4h12
			C37.7,35.1,39.7,37,39.7,39.4L39.7,39.4z"/>
		<path class="st2" d="M83.1,21.4c-11.5,0-21.6,5.5-28,14h-7.2c0,0-3.5,0.1-3.5,4c0,4.4,3.8,4.4,3.8,4.4h16.5c0,0,2.9,0.5,2.9,4
			c0,3.2-1.5,4.2-4.1,4.2c-0.6,0-1.3,0-2.1,0H6.4C4,52,2,53.9,2,56.4s2,4.4,4.4,4.4h50.4c5.1,0,4.8,7.6,0.1,7.6H23.3
			c-2.4,0-4.4,2-4.4,4.4s2,4.4,4.4,4.4H55c0,0,8.6,14.2,28.1,14.2c19.3,0,34.9-15.6,34.9-34.9S102.4,21.4,83.1,21.4z"/>
		<circle class="st0" cx="83" cy="56.7" r="4.4"/>
		<line class="st0" x1="79.9" y1="59.8" x2="63.5" y2="76.6"/>
		<path class="st0" d="M69,79.3c4.1,2.5,8.8,4,14,4c14.7,0,26.6-11.9,26.6-26.6S97.6,30.1,83,30.1"/>
		<rect x="80.2" y="16.6" class="st2" width="5.4" height="4.9"/>
		<path class="st2" d="M94.4,13.2c0,1.9-1.5,3.4-3.4,3.4H74.9c-1.9,0-3.4-1.5-3.4-3.4v-1.8c0-1.9,1.5-3.4,3.4-3.4H91
			c1.9,0,3.4,1.5,3.4,3.4V13.2z"/>
	</g>
</g>
</svg>
