<?xml version="1.0" encoding="utf-8"?>
<!-- Generator: Adobe Illustrator 21.1.0, SVG Export Plug-In . SVG Version: 6.00 Build 0)  -->
<svg version="1.1" id="Layer_1" xmlns="http://www.w3.org/2000/svg" xmlns:xlink="http://www.w3.org/1999/xlink" x="0px" y="0px" width="25px" height="25px"
	 viewBox="0 0 70 70" style="enable-background:new 0 0 70 70;" xml:space="preserve">
<style type="text/css">
	.st0{fill:none;stroke:#005FAA;stroke-width:4;stroke-linecap:round;stroke-linejoin:round;stroke-miterlimit:10;}
	.st1{fill:#A8CB17;stroke:#005FAA;stroke-width:4;stroke-linecap:round;stroke-linejoin:round;stroke-miterlimit:10;}
</style>
<g>
	<path class="st0" d="M64.3,31.6c0-16.6-14.1-30-30.9-28.8C19.2,3.8,7.6,15.3,6.6,29.6C5.5,46.4,18.8,60.5,35.4,60.5H64"/>
	<polyline class="st0" points="57.2,53.6 64.9,60.6 57.2,67.7 	"/>
	<path class="st0" d="M53.8,34.2v-5.9h-4.6c-0.4-1.5-1-3-1.8-4.3l3.3-3.3l-4.6-4.6l-3.3,3.3c-1.3-0.8-2.8-1.4-4.3-1.8V13h-5.9v4.6
		c-1.5,0.4-3,1-4.3,1.8L25,16.1l-4.6,4.6l3.3,3.3c-0.8,1.3-1.4,2.8-1.8,4.3h-4.6v5.9h4.6c0.4,1.5,1,3,1.8,4.3l-3.3,3.3l4.6,4.6
		l3.3-3.3c1.3,0.8,2.8,1.4,4.3,1.8v4.6h5.9v-4.6c1.5-0.4,3-1,4.3-1.8l3.3,3.3l4.6-4.6l-3.3-3.3c0.8-1.3,1.4-2.8,1.8-4.3H53.8z"/>
	<circle class="st1" cx="35.4" cy="31.7" r="7.3"/>
</g>
</svg>
