<?xml version="1.0" encoding="utf-8"?>
<!-- Generator: Adobe Illustrator 21.1.0, SVG Export Plug-In . SVG Version: 6.00 Build 0)  -->
<svg version="1.1" id="Layer_1" xmlns="http://www.w3.org/2000/svg" xmlns:xlink="http://www.w3.org/1999/xlink" x="0px" y="0px" width="25px" height="25px"
	 viewBox="0 0 40 35.8" style="enable-background:new 0 0 40 35.8;" xml:space="preserve">
<style type="text/css">
	.st0{fill:none;stroke:#005FAA;stroke-width:2;stroke-linecap:round;stroke-linejoin:round;}
	.st1{fill:#A8CB17;stroke:#005FAA;stroke-width:2;stroke-linecap:round;stroke-linejoin:round;}
</style>
<title>Asset 2</title>
<g id="Layer_2">
	<g id="Layer_1-2">
		<path class="st0" d="M39,22.8v9.5c0,1.4-1.1,2.5-2.5,2.5c0,0,0,0,0,0H3.5c-1.4,0-2.5-1.1-2.5-2.5l0,0v-9.5H39z"/>
		<path class="st0" d="M36.4,22.3c2.4-9-2.9-18.3-11.9-20.7S6.2,4.5,3.8,13.5c-0.8,2.9-0.8,6,0.1,9"/>
		<path class="st1" d="M25.2,22c0.8-2.8-0.8-5.8-3.7-6.6c-2.8-0.8-5.8,0.8-6.6,3.7c-0.3,0.9-0.3,1.9,0,2.9"/>
		<path class="st0" d="M20.1,6.7C13.5,6.7,8.2,12,8.2,18.6"/>
	</g>
</g>
</svg>
