<?xml version="1.0" encoding="utf-8"?>
<!-- Generator: Adobe Illustrator 21.1.0, SVG Export Plug-In . SVG Version: 6.00 Build 0)  -->
<svg version="1.1" id="Layer_1" xmlns="http://www.w3.org/2000/svg" xmlns:xlink="http://www.w3.org/1999/xlink" x="0px" y="0px" width="25px" height="25px"
	 viewBox="0 0 37.7 39" style="enable-background:new 0 0 37.7 39;" xml:space="preserve">
<style type="text/css">
	.st0{fill:none;stroke:#005FAA;stroke-width:2;stroke-linecap:round;stroke-linejoin:round;}
	.st1{fill:#A8CB17;stroke:#005FAA;stroke-width:2;stroke-linecap:round;stroke-linejoin:round;}
</style>
<title>Asset 5</title>
<g id="Layer_2">
	<g id="Layer_1-2">
		<path class="st0" d="M29,30v6.8c0,0.7-0.5,1.2-1.2,1.2l0,0H2.2C1.5,38,1,37.5,1,36.8l0,0V2.2C1,1.5,1.5,1,2.2,1h20.4L29,7.7V13"/>
		<polyline class="st0" points="22,2 22,8 28,8 		"/>
		<circle class="st1" cx="22.8" cy="21.4" r="7.4"/>
		<line class="st0" x1="28.4" y1="26.3" x2="36.7" y2="31.9"/>
		<path class="st0" d="M22.2,17.9"/>
		<line class="st0" x1="5" y1="6" x2="16" y2="6"/>
		<line class="st0" x1="5" y1="12" x2="16" y2="12"/>
		<line class="st0" x1="5" y1="17" x2="13" y2="17"/>
		<line class="st0" x1="5" y1="22" x2="13" y2="22"/>
		<line class="st0" x1="5" y1="27" x2="13" y2="27"/>
		<line class="st0" x1="5" y1="32" x2="26" y2="32"/>
	</g>
</g>
</svg>
