<?xml version="1.0" encoding="utf-8"?>
<!-- Generator: Adobe Illustrator 19.0.0, SVG Export Plug-In . SVG Version: 6.00 Build 0)  -->
<svg version="1.1" id="Layer_1" xmlns="http://www.w3.org/2000/svg" xmlns:xlink="http://www.w3.org/1999/xlink" x="0px" y="0px"  height="400px" width="400px"
	 viewBox="0 0 500 500" style="enable-background:new 0 0 500 500;" xml:space="preserve">
<style type="text/css">
	.st0{fill:none;stroke:#C8C8C8;stroke-width:4;stroke-miterlimit:10;}
	.st1{fill:#C8C8C8;}
	.st2{fill:#FFFFFF;}
	.st3{fill:#FFFFFF;stroke:#C8C8C8;stroke-width:4;stroke-miterlimit:10;}
	.st4{fill:none;stroke:#005FAA;stroke-width:4;stroke-miterlimit:10;}
	.st5{fill:#FFFFFF;stroke:#005FAA;stroke-width:4;stroke-miterlimit:10;}
	.st6{fill:none;stroke:#A8CA16;stroke-width:4;stroke-miterlimit:10;}
	.st7{fill:#A8CA16;}
	.st8{fill:none;stroke:#C8C8C8;stroke-width:4;stroke-linecap:round;stroke-linejoin:round;stroke-miterlimit:10;}
	.st9{fill:none;stroke:#A8CA16;stroke-width:4;stroke-linecap:square;stroke-linejoin:bevel;stroke-miterlimit:10;}
	.st10{fill:none;stroke:#C8C8C8;stroke-width:4;stroke-linecap:square;stroke-linejoin:bevel;stroke-miterlimit:10;}
</style>
<g id="XMLID_1004_">
	<g id="XMLID_28_">
		<line id="XMLID_29_" class="st0" x1="154.5" y1="176.8" x2="154.5" y2="196.2"/>
		<line id="XMLID_1057_" class="st0" x1="164.2" y1="186.5" x2="144.8" y2="186.5"/>
	</g>
	<g id="XMLID_30_">
		<line id="XMLID_31_" class="st0" x1="378.5" y1="6" x2="378.5" y2="25.4"/>
		<line id="XMLID_1054_" class="st0" x1="388.1" y1="15.7" x2="368.8" y2="15.7"/>
	</g>
	<g id="XMLID_32_">
		<line id="XMLID_33_" class="st0" x1="470.9" y1="398.4" x2="470.9" y2="417.7"/>
		<line id="XMLID_1051_" class="st0" x1="480.6" y1="408" x2="461.3" y2="408"/>
	</g>
	<g id="XMLID_36_">
		<path id="XMLID_13_" class="st1" d="M44.5,52.4c0.5-1.6,1.3-1.6,1.9,0l0.6,1.7c0.5,1.6,2.3,2.9,3.9,2.9h1.8c1.7,0,1.9,0.8,0.6,1.8
			l-1.5,1.1c-1.3,1-2,3-1.5,4.6l0.6,1.7c0.5,1.6-0.2,2.1-1.5,1.1l-1.5-1.1c-1.3-1-3.5-1-4.9,0l-1.5,1.1c-1.3,1-2,0.5-1.5-1.1
			l0.6-1.7c0.5-1.6-0.2-3.6-1.5-4.6l-1.5-1.1c-1.3-1-1.1-1.8,0.6-1.8H40c1.6,0,3.4-1.3,3.9-2.9L44.5,52.4z"/>
	</g>
	<g id="XMLID_39_">
		<path id="XMLID_12_" class="st1" d="M84.7,476.7c0.5-1.6,1.3-1.6,1.9,0l0.6,1.7c0.5,1.6,2.3,2.9,3.9,2.9h1.8
			c1.6,0,1.9,0.8,0.6,1.8l-1.5,1.1c-1.3,1-2,3-1.5,4.6l0.6,1.7c0.5,1.6-0.2,2.1-1.5,1.1l-1.5-1.1c-1.3-1-3.5-1-4.9,0l-1.5,1.1
			c-1.3,1-2,0.5-1.5-1.1l0.6-1.7c0.5-1.6-0.2-3.6-1.5-4.6l-1.5-1.1c-1.3-1-1.1-1.8,0.6-1.8h1.8c1.7,0,3.4-1.3,3.9-2.9L84.7,476.7z"
			/>
	</g>
	<g id="XMLID_40_">
		<g id="XMLID_259_">
			<path id="XMLID_260_" class="st0" d="M99.2,397.8C61.5,360,40.7,309.9,40.7,256.5s20.8-103.6,58.5-141.3s87.9-58.5,141.3-58.5
				s103.6,20.8,141.3,58.5s58.5,87.9,58.5,141.3S419.6,360,381.8,397.8s-87.9,58.5-141.3,58.5S137,435.5,99.2,397.8z M75.1,256.5
				c0,91.2,74.2,165.4,165.4,165.4s165.4-74.2,165.4-165.4c0-91.2-74.2-165.4-165.4-165.4S75.1,165.3,75.1,256.5z"/>
		</g>
		<polygon id="XMLID_1039_" class="st2" points="6,327.1 140.8,327.1 109.6,196.2 41.5,164.3 		"/>
		<polygon id="XMLID_1038_" class="st2" points="351.6,346.9 427.4,386.6 479.1,212.5 355.1,212.5 		"/>
		<polyline id="XMLID_1037_" class="st3" points="67.4,159.9 45.4,148 62.2,205.7 118.7,185.8 95.6,174.1 		"/>
		<polyline id="XMLID_1036_" class="st3" points="401.3,372.5 425.3,384.8 408.5,327.2 352,347 373.2,357.9 		"/>
	</g>
	<g id="XMLID_41_">
		<path id="XMLID_42_" class="st4" d="M251,296h48c5.5,0,9-4.6,9-10.1v-72.5c0-5.5-3.5-9.4-9-9.4H170.4c-5.5,0-9.4,3.9-9.4,9.4v72.5
			c0,5.5,3.9,10.1,9.4,10.1H217"/>
		<path id="XMLID_43_" class="st4" d="M208,204v-11.1c0-2.5,3-4.9,5.6-4.9h42.2c2.5,0,5.2,2.4,5.2,4.9V204"/>
		<path id="XMLID_44_" class="st4" d="M309,232h-16v11h-17v-11h-22.8c0,0,4.8-12.6,2-18.8c-2.8-6.2-11.4-5.2-13.9-5.2h-12
			c-2.5,0-11.3-1-14.1,5.2c-2.8,6.2,2,18.8,2,18.8H193v11h-15v-11h-17"/>
		<path id="XMLID_45_" class="st1" d="M241,236h3.3l4.4-17.3c0,0,1.3-5.7-5.9-5.7c-7.3,0-8.4,0-8.4,0s-1.1,0-8.4,0
			c-7.3,0-5.9,5.7-5.9,5.7l4.4,17.3h3.3H241z"/>
		<polygon id="XMLID_46_" class="st1" points="225.1,243 211.6,333.4 234.7,350.9 257.1,333 244.6,243 		"/>
	</g>
	<g id="XMLID_47_">
		<g id="XMLID_48_">
			<polygon id="XMLID_49_" class="st5" points="379,97.3 379,136 336,136 336,83 365.3,83 			"/>
			<polyline id="XMLID_50_" class="st4" points="364,83 364,98 379,98 			"/>
		</g>
		<line id="XMLID_51_" class="st4" x1="357" y1="126" x2="357" y2="103"/>
		<polyline id="XMLID_52_" class="st4" points="350.7,108.1 357.4,100.2 363.3,108.1 		"/>
	</g>
	<g id="XMLID_53_">
		<g id="XMLID_54_">
			<polyline id="XMLID_55_" class="st5" points="154,408 154,386 111,386 111,440 154,440 154,408 			"/>
		</g>
		<polyline id="XMLID_56_" class="st6" points="103.8,424 113.2,429.3 126.6,408 		"/>
	</g>
	<g id="XMLID_256_">
		<path id="XMLID_258_" class="st5" d="M138.8,143.7c3.6,0,7.8-0.7,10.5-1.8c0.6-0.2,1.3-0.1,1.7,0.4c1.9,2,4.3,3.4,6.9,4.1
			c-1.4-2.8-1.8-6-0.9-9.1c0.1-0.2,0.2-0.5,0.4-0.6c3.5-3.6,5.4-8.1,5.4-12.9c0-10.8-11-20-24-20c-12.3,0-23.1,8.5-23.1,20
			C115.7,134.7,126,143.7,138.8,143.7z"/>
		<path id="XMLID_257_" class="st7" d="M93.8,114.1c-0.1-0.2-0.2-0.5-0.4-0.6c-3.5-3.6-5.4-8.1-5.4-12.9c0-10.8,11-20,24-20
			c12.1,0,22.1,8.2,23,18.5c-1,0.1-2,0.2-3,0.3c0,0-0.1,0-0.1,0c-3,0.5-5.8,1.4-8.4,2.7h-0.1c-3.8,2-7.4,5.1-10.3,9.7
			c-1.5,2.7-2.5,5.7-2.7,8.7c-3.2-0.2-6.7-0.8-9.1-1.8c-0.6-0.2-1.3-0.1-1.7,0.4c-1.9,2-4.3,3.4-6.9,4.1
			C94.3,120.5,94.6,117.2,93.8,114.1z"/>
	</g>
	<g id="XMLID_316_">
		<circle id="XMLID_317_" class="st6" cx="70.9" cy="268" r="48.8"/>
		<g id="XMLID_318_">
			<path id="XMLID_319_" class="st8" d="M52.8,286.1c-10.3,0-18.5-8.3-18.5-18.6S42.8,249,53.1,249H63v54"/>
			<path id="XMLID_1013_" class="st8" d="M88.4,250c10.3,0,18.6,8.7,18.6,19c0,10.3-8.3,19-18.6,19H78v-55"/>
		</g>
	</g>
	<g id="XMLID_326_">
		<path id="XMLID_327_" class="st9" d="M369,304.4v-7.5c0,0,37-39.3,40-71.2v60.7C409,286.4,389,286.5,369,304.4z"/>
		<path id="XMLID_328_" class="st10" d="M369.6,311.1c0,0,16.4-18.3,44.4-19.7v-21.6c0,0,17-17,20-30.5v55.5c0,0-34.3-2.8-64.3,19.2
			L369.6,311.1z"/>
		<path id="XMLID_329_" class="st9" d="M369.5,320.9c0,0,35.5-25.1,68.5-20.1v-31.4c0,0,13-10.6,15-15.6V307
			c0,0-32.5-12.7-83.1,17.2L369.5,320.9z"/>
	</g>
</g>
</svg>
