<?xml version="1.0"?>
<svg xmlns="http://www.w3.org/2000/svg" xmlns:xlink="http://www.w3.org/1999/xlink" version="1.1" id="Capa_1" x="0px" y="0px" viewBox="0 0 612 612" style="enable-background:new 0 0 612 612;" xml:space="preserve" width="512px" height="512px"><g><g>
	<g>
		<path d="M306.001,33.081C109.937,33.077-0.002,94.003,0,165.752v26.524c-0.002,33.671,27.305,60.983,60.993,60.979h85.373    c33.68,0,60.99-27.305,60.99-60.981v-26.522c0-0.613-0.031-1.238-0.052-1.85h197.391c-0.023,0.613-0.051,1.221-0.051,1.85v26.524    c0,33.673,27.31,60.981,60.99,60.981h85.373C584.697,253.26,612,225.952,612,192.276v-26.524    C612.002,94.017,502.065,33.077,306.001,33.081z" data-original="#000000" class="active-path" data-old_color="#000000" fill="#FFFFFF"/>
		<path d="M389.073,262.149l-12.268-3.009v-38.153c0-16.343-13.293-29.638-29.636-29.638h-82.337    c-16.341,0-29.636,13.293-29.636,29.638v38.153l-12.268,3.009c-151.541,37.177-167.9,155.916-167.9,205.241    c0,47.438,10.148,78.208,31.023,94.071c20.193,15.344,50.625,17.459,80.506,17.459h278.888c29.881,0,60.314-2.115,80.508-17.459    c20.874-15.863,31.022-46.633,31.022-94.071C556.973,418.065,540.614,299.325,389.073,262.149z M258.945,504.164    c0,6.403-5.203,11.61-11.625,11.61h-23.108c-6.424,0-11.624-5.205-11.624-11.61v-23.137c0-6.398,5.2-11.61,11.624-11.61h23.108    c6.422,0,11.625,5.212,11.625,11.61V504.164z M258.945,433.931c0,6.401-5.203,11.608-11.625,11.608h-23.108    c-6.424,0-11.624-5.207-11.624-11.608v-23.139c0-6.407,5.2-11.608,11.624-11.608h23.108c6.422,0,11.625,5.203,11.625,11.608    V433.931z M258.945,363.698c0,6.394-5.203,11.608-11.625,11.608h-23.108c-6.424,0-11.624-5.214-11.624-11.608v-23.136    c0-6.41,5.2-11.611,11.624-11.611h23.108c6.422,0,11.625,5.203,11.625,11.611V363.698z M329.178,504.164    c0,6.403-5.201,11.61-11.624,11.61h-23.108c-6.424,0-11.625-5.205-11.625-11.61v-23.137c0-6.398,5.201-11.61,11.625-11.61h23.108    c6.422,0,11.624,5.212,11.624,11.61V504.164z M329.178,433.931c0,6.401-5.201,11.608-11.624,11.608h-23.108    c-6.424,0-11.625-5.207-11.625-11.608v-23.139c0-6.407,5.201-11.608,11.625-11.608h23.108c6.422,0,11.624,5.203,11.624,11.608    V433.931z M329.178,363.698c0,6.394-5.201,11.608-11.624,11.608h-23.108c-6.424,0-11.625-5.214-11.625-11.608v-23.136    c0-6.41,5.201-11.611,11.625-11.611h23.108c6.422,0,11.624,5.203,11.624,11.611V363.698z M399.411,504.164    c0,6.403-5.203,11.61-11.625,11.61h-23.108c-6.422,0-11.624-5.205-11.624-11.61v-23.137c0-6.398,5.201-11.61,11.624-11.61h23.108    c6.422,0,11.625,5.212,11.625,11.61V504.164z M399.411,433.931c0,6.401-5.203,11.608-11.625,11.608h-23.108    c-6.422,0-11.624-5.207-11.624-11.608v-23.139c0-6.407,5.201-11.608,11.624-11.608h23.108c6.422,0,11.625,5.203,11.625,11.608    V433.931z M399.411,363.698c0,6.394-5.203,11.608-11.625,11.608h-23.108c-6.422,0-11.624-5.214-11.624-11.608v-23.136    c0-6.41,5.201-11.611,11.624-11.611h23.108c6.422,0,11.625,5.203,11.625,11.611V363.698z" data-original="#000000" class="active-path" data-old_color="#000000" fill="#FFFFFF"/>
	</g>
</g></g> </svg>
