<?xml version="1.0" encoding="utf-8"?>
<!-- Generator: Adobe Illustrator 19.0.0, SVG Export Plug-In . SVG Version: 6.00 Build 0)  -->
<svg version="1.1" id="Layer_1" xmlns="http://www.w3.org/2000/svg" xmlns:xlink="http://www.w3.org/1999/xlink" x="0px" y="0px"  height="400px" width="400px"
	 viewBox="0 0 500 500" style="enable-background:new 0 0 500 500;" xml:space="preserve">
<style type="text/css">
	.st0{fill:none;stroke:#C8C8C8;stroke-width:4;stroke-miterlimit:10;}
	.st1{fill:#FFFFFF;}
	.st2{fill:#FFFFFF;stroke:#005FAA;stroke-width:4;stroke-miterlimit:10;}
	.st3{fill:none;stroke:#A8CA16;stroke-width:4;stroke-miterlimit:10;}
	.st4{fill:#A8CA16;}
	.st5{fill:#C8C8C8;stroke:#C8C8C8;stroke-width:4.215;stroke-linecap:round;stroke-linejoin:round;stroke-miterlimit:10;}
	.st6{fill:#FFFFFF;stroke:#C8C8C8;stroke-width:4.215;stroke-linecap:round;stroke-linejoin:round;stroke-miterlimit:10;}
	.st7{fill:#FFFFFF;stroke:#C8C8C8;stroke-width:4;stroke-miterlimit:10;}
	.st8{fill:#C8C8C8;}
	.st9{fill:none;stroke:#C8C8C8;stroke-width:4;stroke-linecap:round;stroke-linejoin:round;stroke-miterlimit:10;}
</style>
<g id="XMLID_962_">
	<g id="XMLID_237_">
		<path id="XMLID_238_" class="st0" d="M111.3,363.6c-37.2-37.2-57.7-86.7-57.7-139.3S74.1,122.2,111.3,85S198,27.3,250.6,27.3
			S352.7,47.8,389.9,85s57.7,86.7,57.7,139.3s-20.5,102.1-57.7,139.3s-86.7,57.7-139.3,57.7S148.5,400.8,111.3,363.6z M87.6,224.3
			c0,89.9,73.1,163,163,163s163-73.1,163-163c0-89.9-73.1-163-163-163S87.6,134.4,87.6,224.3z"/>
	</g>
	<polygon id="XMLID_1034_" class="st1" points="20.7,236.4 140.5,236.4 121.5,164.8 54.4,133.4 	"/>
	<polygon id="XMLID_1033_" class="st1" points="360.1,313.4 434.8,352.5 486,172.9 363.7,172.9 	"/>
	<g id="XMLID_187_">
		<circle id="XMLID_1032_" class="st2" cx="162.7" cy="96.5" r="30.1"/>
		<g id="XMLID_188_">
			<g id="XMLID_192_">
				<polyline id="XMLID_194_" class="st3" points="157.6,92.3 149.5,84.3 157.6,76.2 				"/>
				<path id="XMLID_193_" class="st3" d="M149.6,84.3c0,0,12.5,0,15.9,0c5.7,0,8,3.4,8,9.1"/>
			</g>
			<g id="XMLID_189_">
				<polyline id="XMLID_191_" class="st3" points="167.8,99 175.9,107 167.8,115.1 				"/>
				<path id="XMLID_190_" class="st3" d="M175.8,107c0,0-12.5,0-15.9,0c-5.7,0-8-3.4-8-9.1"/>
			</g>
		</g>
	</g>
	<g id="XMLID_184_">
		<path id="XMLID_186_" class="st2" d="M355.5,75.9c-4,0-8.6-0.8-11.7-2c-0.7-0.3-1.4-0.1-1.9,0.4c-2.1,2.2-4.7,3.8-7.6,4.5
			c1.6-3.1,2-6.7,1-10.1c-0.1-0.3-0.2-0.5-0.4-0.7c-3.9-4-6-9-6-14.2c0-12,12.2-22.1,26.6-22.1c13.6,0,25.5,9.4,25.5,22.1
			C381,65.9,369.6,75.9,355.5,75.9z"/>
		<path id="XMLID_185_" class="st4" d="M405.3,43.1c0.1-0.3,0.2-0.5,0.4-0.7c3.9-4,6-9,6-14.2c0-12-12.2-22.1-26.6-22.1
			c-13.4,0-24.5,9-25.5,20.5c1.1,0.1,2.2,0.2,3.3,0.3c0,0,0.1,0,0.1,0c3.3,0.5,6.4,1.5,9.3,3h0.1c4.2,2.2,8.2,5.6,11.4,10.7
			c1.7,3,2.7,6.3,3,9.7c3.6-0.2,7.4-0.9,10-2c0.7-0.3,1.4-0.1,1.9,0.4c2.1,2.2,4.7,3.8,7.6,4.5C404.7,50.1,404.3,46.5,405.3,43.1z"
			/>
	</g>
	<path id="XMLID_181_" class="st2" d="M200.3,409.8l-9.5-1.3c-0.6-2.3-1.5-4.4-2.6-6.4l5.8-7.6c0.4-0.5,0.3-1.1-0.1-1.6l-6.7-6.7
		c-0.4-0.4-1.1-0.5-1.6-0.1l-7.6,5.8c-2-1.1-4.1-2-6.4-2.6l-1.3-9.5c-0.1-0.6-0.6-1-1.2-1h-9.5c-0.6,0-1.1,0.4-1.2,1l-1.3,9.5
		c-2.3,0.6-4.4,1.5-6.4,2.6l-7.6-5.8c-0.5-0.4-1.1-0.3-1.6,0.1l-6.7,6.7c-0.4,0.4-0.5,1.1-0.1,1.6l5.8,7.6c-1.1,2-2,4.1-2.6,6.4
		l-9.5,1.3c-0.6,0.1-1,0.6-1,1.2v9.5c0,0.6,0.4,1.1,1,1.2l9.5,1.3c0.6,2.3,1.5,4.4,2.6,6.4l-5.8,7.6c-0.4,0.5-0.3,1.1,0.1,1.6
		l6.7,6.7c0.2,0.2,0.5,0.3,0.8,0.3c0.3,0,0.5-0.1,0.7-0.2l7.6-5.8c2,1.1,4.1,2,6.4,2.6l1.3,9.5c0.1,0.6,0.6,1,1.2,1h9.5
		c0.6,0,1.1-0.4,1.2-1l1.3-9.5c2.3-0.6,4.4-1.5,6.4-2.6l7.6,5.8c0.2,0.2,0.5,0.2,0.7,0.2c0.3,0,0.6-0.1,0.8-0.3l6.7-6.7
		c0.4-0.4,0.5-1.1,0.1-1.6l-5.8-7.6c1.1-2,2-4.1,2.6-6.4l9.5-1.3c0.6-0.1,1-0.6,1-1.2V411C201.3,410.4,200.9,409.9,200.3,409.8z
		 M163.8,429.9c-7.5,0-13.6-6.1-13.6-13.6c0-7.5,6.1-13.6,13.6-13.6c7.5,0,13.6,6.1,13.6,13.6C177.5,423.8,171.4,429.9,163.8,429.9z
		"/>
	<g id="XMLID_178_">
		<path id="XMLID_180_" class="st2" d="M379.7,415l-36.5-37c-1.7-1.7-1.7-4.4,0-6.1l0.3-0.3c1.7-1.7,4.4-1.7,6.1,0l36.5,37
			c1.7,1.7,1.7,4.4,0,6.1l-0.3,0.3C384.1,416.7,381.3,416.7,379.7,415z"/>
		<circle id="XMLID_179_" class="st2" cx="344.4" cy="372.3" r="28.1"/>
	</g>
	<g id="XMLID_169_">
		<rect id="XMLID_177_" x="197.9" y="159.9" class="st2" width="85.1" height="113.7"/>
		<polygon id="XMLID_176_" class="st5" points="298.1,288.7 213,288.7 213,174.9 273.3,174.9 298.1,199.8 		"/>
		<polygon id="XMLID_175_" class="st6" points="273.3,199.8 298.1,199.8 273.3,174.9 		"/>
		<rect id="XMLID_174_" x="222" y="206.5" class="st1" width="67.8" height="6.8"/>
		<rect id="XMLID_173_" x="222" y="223.3" class="st1" width="67.8" height="6.8"/>
		<rect id="XMLID_172_" x="222" y="240.2" class="st1" width="67.8" height="6.8"/>
		<rect id="XMLID_171_" x="222" y="257" class="st1" width="67.8" height="6.8"/>
		<rect id="XMLID_170_" x="222" y="274.1" class="st1" width="67.8" height="6.8"/>
	</g>
	<polyline id="XMLID_1005_" class="st7" points="79.9,128.8 58.2,117.3 74.8,174.2 130.5,154.6 107.7,143.3 	"/>
	<polyline id="XMLID_1004_" class="st7" points="408.8,338.9 432.7,350.8 416.1,293.9 360.5,313.5 380.9,324.1 	"/>
	<g id="XMLID_1_">
		<line id="XMLID_2_" class="st0" x1="439.5" y1="74.7" x2="439.5" y2="93.8"/>
		<line id="XMLID_1002_" class="st0" x1="449" y1="84.3" x2="429.9" y2="84.3"/>
	</g>
	<g id="XMLID_3_">
		<line id="XMLID_4_" class="st0" x1="341.9" y1="443.1" x2="341.9" y2="462.2"/>
		<line id="XMLID_999_" class="st0" x1="351.4" y1="452.7" x2="332.3" y2="452.7"/>
	</g>
	<g id="XMLID_5_">
		<line id="XMLID_6_" class="st0" x1="28.9" y1="22" x2="28.9" y2="41.1"/>
		<line id="XMLID_996_" class="st0" x1="38.5" y1="31.6" x2="19.4" y2="31.6"/>
	</g>
	<g id="XMLID_9_">
		<path id="XMLID_23_" class="st8" d="M42.4,337.5c0.5-1.6,1.3-1.6,1.9,0l0.5,1.6c0.5,1.6,2.3,2.9,3.9,2.9h1.7
			c1.7,0,1.9,0.8,0.6,1.8l-1.4,1c-1.3,1-2,3-1.5,4.6l0.5,1.6c0.5,1.6-0.2,2.1-1.5,1.1l-1.4-1c-1.3-1-3.5-1-4.9,0l-1.4,1
			c-1.3,1-2,0.5-1.5-1.1l0.5-1.6c0.5-1.6-0.2-3.6-1.5-4.6l-1.4-1c-1.3-1-1.1-1.8,0.6-1.8H38c1.7,0,3.4-1.3,3.9-2.9L42.4,337.5z"/>
	</g>
	<g id="XMLID_12_">
		<path id="XMLID_19_" class="st8" d="M476.7,393.6c0.5-1.6,1.3-1.6,1.9,0l0.5,1.6c0.5,1.6,2.3,2.9,3.9,2.9h1.7
			c1.6,0,1.9,0.8,0.6,1.8l-1.4,1c-1.3,1-2,3-1.5,4.6l0.5,1.6c0.5,1.6-0.2,2.1-1.5,1.1l-1.4-1c-1.3-1-3.5-1-4.9,0l-1.4,1
			c-1.3,1-2,0.5-1.5-1.1l0.5-1.6c0.5-1.6-0.2-3.6-1.5-4.6l-1.4-1c-1.3-1-1.1-1.8,0.6-1.8h1.7c1.7,0,3.4-1.3,3.9-2.9L476.7,393.6z"/>
	</g>
	<g id="XMLID_198_">
		<path id="XMLID_199_" class="st3" d="M8,227.3v-19.5c0,0,1.4-21.8,26.4-21.8s103.6,0,103.6,0v24.3c0,0-1.8,17.4-23.8,17.4
			S8,227.3,8,227.3z"/>
		<g id="XMLID_200_">
			<path id="XMLID_201_" class="st8" d="M46.4,209.4c-0.1-2.9-0.2-6.3-0.1-10.2h-0.1c-0.8,3.3-1.8,7.1-2.7,9.9l-2.5,8.8h-5.3
				l-2.1-8.8c-0.6-2.7-1.4-6.5-2-9.9h-0.1c-0.1,3.6-0.3,7.3-0.4,10.2l-0.4,9h-6.2l1.5-25.3h9.1l1.7,6.8c0.7,2.8,1.4,6.2,2,9.3h0.2
				c0.7-3.1,1.5-6.6,2.3-9.3l1.9-6.7H52l1.3,25.3h-6.6L46.4,209.4z"/>
			<path id="XMLID_203_" class="st8" d="M61.9,218.5v-10.2l-8-15.1h7.8l2.1,5.7c0.7,1.8,1.2,3,1.7,4.6h0.1c0.5-1.5,1-2.9,1.6-4.6
				l2.1-5.7h7.6L68.6,208v10.5H61.9z"/>
			<path id="XMLID_205_" class="st8" d="M99.9,205.6c0,8.1-4.9,13.3-12.7,13.3c-7.8,0-12.1-5.9-12.1-12.9c0-7.3,4.8-13.2,12.6-13.2
				C95.7,192.8,99.9,198.8,99.9,205.6z M82.2,205.9c0,4.7,2.1,7.6,5.3,7.6c3.3,0,5.2-3.2,5.2-7.7c0-4.3-1.9-7.6-5.2-7.6
				C84.3,198.1,82.2,201.2,82.2,205.9z"/>
			<path id="XMLID_208_" class="st8" d="M102,193.5c1.5-0.3,4.9-0.5,8-0.5c3.6,0,5.7,0.2,7.7,1.2c2,0.9,3.4,2.7,3.4,5.2
				c0,2.1-1.2,4.2-4.1,5.3v0.1c3.1,0.9,4.9,3.1,4.9,6.1c0,2.4-1.1,4.2-2.8,5.5c-1.9,1.4-5.1,2.3-10.5,2.3c-3.1,0-5.3-0.2-6.7-0.5
				V193.5z M108.7,202.9h1.3c2.9,0,4.3-1,4.3-2.6c0-1.5-1.1-2.4-3.4-2.4c-1.1,0-1.8,0.1-2.2,0.2V202.9z M108.7,213.7
				c0.5,0.1,1.1,0.1,1.9,0.1c2.2,0,4.2-0.9,4.2-3.1c0-2.1-1.9-3-4.5-3h-1.6V213.7z"/>
		</g>
	</g>
	<g id="XMLID_212_">
		<circle id="XMLID_213_" class="st3" cx="427.2" cy="231.8" r="48.1"/>
		<g id="XMLID_214_">
			<line id="XMLID_215_" class="st9" x1="387.4" y1="243" x2="409.7" y2="220.3"/>
			<line id="XMLID_216_" class="st9" x1="409.7" y1="243" x2="387.4" y2="220.3"/>
			<path id="XMLID_217_" class="st9" d="M431.2,237.1c-1.8,3.3-5.3,5.4-9.3,5.4c-5.9,0-10.7-4.8-10.7-10.7c0-5.9,4.8-10.5,10.7-10.5
				s10.7,3.8,10.7,10.8H411"/>
			<line id="XMLID_218_" class="st9" x1="438" y1="221" x2="438" y2="244"/>
			<path id="XMLID_219_" class="st9" d="M437.9,227.1c0,0,1.9-6.9,9.2-5.3"/>
			<circle id="XMLID_220_" class="st9" cx="457.8" cy="231.8" r="10.5"/>
			<circle id="XMLID_221_" class="st8" cx="457.8" cy="231.8" r="3.4"/>
		</g>
	</g>
</g>
</svg>
