<?xml version="1.0" encoding="utf-8"?>
<!-- Generator: Adobe Illustrator 19.0.0, SVG Export Plug-In . SVG Version: 6.00 Build 0)  -->
<svg version="1.1" id="Layer_1" xmlns="http://www.w3.org/2000/svg" xmlns:xlink="http://www.w3.org/1999/xlink" x="0px" y="0px" height="400px" width="400px"
	 viewBox="0 0 500 500" style="enable-background:new 0 0 500 500;" xml:space="preserve">
<style type="text/css">
	.st0{fill:none;stroke:#C8C8C8;stroke-width:4;stroke-miterlimit:10;}
	.st1{fill:#C8C8C8;}
	.st2{fill:#FFFFFF;}
	.st3{fill:#FFFFFF;stroke:#C8C8C8;stroke-width:4;stroke-miterlimit:10;}
	.st4{fill:none;stroke:#005FAA;stroke-width:4;stroke-miterlimit:10;}
	.st5{fill:#FFFFFF;stroke:#005FAA;stroke-width:4;stroke-miterlimit:10;}
	.st6{fill:#A8CA16;}
	.st7{fill:none;stroke:#A8CA16;stroke-width:4;stroke-miterlimit:10;}
	.st8{fill:none;stroke:#C8C8C8;stroke-width:4;stroke-linecap:round;stroke-linejoin:round;stroke-miterlimit:10;}
</style>
<g id="XMLID_1018_">
	<g id="XMLID_57_">
		<line id="XMLID_58_" class="st0" x1="452.5" y1="7" x2="452.5" y2="26.6"/>
		<line id="XMLID_1073_" class="st0" x1="462.3" y1="16.8" x2="442.7" y2="16.8"/>
	</g>
	<g id="XMLID_59_">
		<line id="XMLID_60_" class="st0" x1="80.5" y1="442.6" x2="80.5" y2="462.2"/>
		<line id="XMLID_1070_" class="st0" x1="90.3" y1="452.4" x2="70.7" y2="452.4"/>
	</g>
	<g id="XMLID_63_">
		<path id="XMLID_15_" class="st1" d="M50.7,25.7c0.5-1.6,1.3-1.6,1.9,0l0.6,1.8c0.5,1.6,2.3,2.9,3.9,2.9H59c1.7,0,1.9,0.8,0.6,1.8
			L58,33.3c-1.3,1-2,3-1.5,4.6l0.6,1.8c0.5,1.6-0.2,2.1-1.5,1.1L54,39.7c-1.3-1-3.5-1-4.9,0l-1.6,1.1c-1.3,1-2,0.5-1.5-1.1l0.6-1.8
			c0.5-1.6-0.2-3.6-1.5-4.6l-1.6-1.1c-1.3-1-1.1-1.8,0.6-1.8h1.9c1.7,0,3.4-1.3,3.9-2.9L50.7,25.7z"/>
	</g>
	<g id="XMLID_66_">
		<path id="XMLID_13_" class="st1" d="M441.8,407.3c0.5-1.6,1.3-1.6,1.9,0l0.6,1.8c0.5,1.6,2.3,2.9,3.9,2.9h1.9
			c1.6,0,1.9,0.8,0.6,1.8l-1.6,1.1c-1.3,1-2,3-1.5,4.6l0.6,1.8c0.5,1.6-0.2,2.1-1.5,1.1l-1.6-1.1c-1.3-1-3.5-1-4.9,0l-1.6,1.1
			c-1.3,1-2,0.5-1.5-1.1l0.6-1.8c0.5-1.6-0.2-3.6-1.5-4.6l-1.6-1.1c-1.3-1-1.1-1.8,0.6-1.8h1.9c1.6,0,3.4-1.3,3.9-2.9L441.8,407.3z"
			/>
	</g>
	<g id="XMLID_69_">
		<path id="XMLID_14_" class="st1" d="M326.9,192c0.5-1.6,1.3-1.6,1.9,0l0.6,1.8c0.5,1.6,2.3,2.9,3.9,2.9h1.9c1.6,0,1.9,0.8,0.6,1.8
			l-1.6,1.1c-1.3,1-2,3-1.5,4.6l0.6,1.8c0.5,1.6-0.2,2.1-1.5,1.1l-1.6-1.1c-1.3-1-3.5-1-4.9,0l-1.6,1.1c-1.3,1-2,0.5-1.5-1.1
			l0.6-1.8c0.5-1.6-0.2-3.6-1.5-4.6l-1.6-1.1c-1.3-1-1.1-1.8,0.6-1.8h1.9c1.7,0,3.4-1.3,3.9-2.9L326.9,192z"/>
	</g>
	<g id="XMLID_70_">
		<g id="XMLID_264_">
			<path id="XMLID_265_" class="st0" d="M91.8,105.5c38.2-38.2,88.9-59.2,142.8-59.2s104.7,21,142.8,59.2s59.2,88.9,59.2,142.8
				s-21,104.7-59.2,142.8s-88.9,59.2-142.8,59.2s-104.7-21-142.8-59.2s-59.2-88.9-59.2-142.8S53.7,143.7,91.8,105.5z M234.7,81.2
				c-92.2,0-167.2,75-167.2,167.2s75,167.2,167.2,167.2c92.2,0,167.2-75,167.2-167.2S326.8,81.2,234.7,81.2z"/>
		</g>
		<polygon id="XMLID_1055_" class="st2" points="163.3,11.3 163.3,147.5 295.6,116 327.8,47.2 		"/>
		<polygon id="XMLID_1054_" class="st2" points="143.2,360.7 103.2,437.3 279.1,489.5 279.1,364.1 		"/>
		<polyline id="XMLID_1053_" class="st3" points="332.6,72.9 344.3,51.1 286,68.1 306.1,125.2 318.2,101.9 		"/>
		<polyline id="XMLID_1052_" class="st3" points="117.3,411.1 104.9,435.1 163.2,418.1 143.2,361.1 132.2,382.1 		"/>
	</g>
	<g id="XMLID_71_">
		<polygon id="XMLID_72_" class="st4" points="196.8,207.3 197.2,262 159,262 159,172 248,172 248,207.6 		"/>
		<polygon id="XMLID_1049_" class="st4" points="270.3,286.4 270,232 308,232 308,321 219,321 219,285.7 		"/>
		<rect id="XMLID_73_" x="214" y="228" class="st1" width="39" height="40"/>
	</g>
	<g id="XMLID_261_">
		<path id="XMLID_263_" class="st5" d="M460.2,208.5l-38-38.6c-1.6-1.6-1.5-4.2,0-5.7l0.9-0.8c1.6-1.6,4.2-1.5,5.7,0l38,38.6
			c1.6,1.6,1.5,4.2,0,5.7l-0.9,0.8C464.3,210.1,461.7,210.1,460.2,208.5z"/>
		<circle id="XMLID_262_" class="st5" cx="423.7" cy="164.5" r="28.8"/>
	</g>
	<g id="XMLID_74_">
		<rect id="XMLID_75_" x="8" y="201" class="st6" width="50" height="58"/>
		<rect id="XMLID_76_" x="7" y="207" class="st5" width="45" height="54"/>
		<g id="XMLID_77_">
			<line id="XMLID_1041_" class="st4" x1="38" y1="225" x2="38" y2="247"/>
			<polyline id="XMLID_1040_" class="st4" points="45,242.2 38.3,250.1 32.2,242.2 			"/>
		</g>
	</g>
	<g id="XMLID_302_">
		<circle id="XMLID_303_" class="st7" cx="223.1" cy="77.1" r="49.3"/>
		<g id="XMLID_304_">
			<line id="XMLID_305_" class="st8" x1="182.3" y1="88.6" x2="205.2" y2="65.3"/>
			<line id="XMLID_306_" class="st8" x1="205.2" y1="88.6" x2="182.3" y2="65.3"/>
			<path id="XMLID_307_" class="st8" d="M227.5,82.3c-1.9,3.3-5.5,5.6-9.6,5.6c-6,0-11-4.9-11-11c0-6,4.9-10.9,10.9-10.9
				c6,0,10.9,4,10.9,11H207"/>
			<line id="XMLID_308_" class="st8" x1="233" y1="65" x2="233" y2="88"/>
			<path id="XMLID_309_" class="st8" d="M234.1,72.3c0,0,1.9-7,9.4-5.4"/>
			<circle id="XMLID_310_" class="st8" cx="254.5" cy="77.1" r="10.8"/>
			<circle id="XMLID_311_" class="st1" cx="254.5" cy="77.1" r="3.5"/>
		</g>
	</g>
	<g id="XMLID_330_">
		<g id="XMLID_331_">
			<polyline id="XMLID_332_" class="st0" points="209,448 200,448 200,414 			"/>
			<polyline id="XMLID_333_" class="st0" points="192,401 225,401 225,426 			"/>
			<polyline id="XMLID_1025_" class="st0" points="230,401 239,401 239,435 			"/>
			<polyline id="XMLID_1024_" class="st0" points="247,448 215,448 215,423 			"/>
		</g>
		<circle id="XMLID_334_" class="st7" cx="221.4" cy="425" r="49.3"/>
	</g>
</g>
</svg>
