<?xml version="1.0" encoding="utf-8"?>
<!-- Generator: Adobe Illustrator 19.0.0, SVG Export Plug-In . SVG Version: 6.00 Build 0)  -->
<svg version="1.1" id="Layer_1" xmlns="http://www.w3.org/2000/svg" xmlns:xlink="http://www.w3.org/1999/xlink" x="0px" y="0px"  height="400px" width="400px"
	 viewBox="0 0 500 500" style="enable-background:new 0 0 500 500;" xml:space="preserve">
<style type="text/css">
	.st0{fill:#C8C8C8;}
	.st1{fill:none;stroke:#C8C8C8;stroke-width:4;stroke-miterlimit:10;}
	.st2{fill:#FFFFFF;}
	.st3{fill:#FFFFFF;stroke:#C8C8C8;stroke-width:4;stroke-miterlimit:10;}
	.st4{fill:#FFFFFF;stroke:#005FAA;stroke-width:4;stroke-miterlimit:10;}
	.st5{fill:none;stroke:#005FAA;stroke-width:4;stroke-miterlimit:10;}
	.st6{fill:#A8CA16;}
	.st7{fill:none;stroke:#A8CA16;stroke-width:4;stroke-miterlimit:10;}
	.st8{fill:none;stroke:#C8C8C8;stroke-width:4;stroke-linecap:round;stroke-linejoin:round;stroke-miterlimit:10;}
</style>
<g id="XMLID_976_">
	<rect id="XMLID_136_" x="181" y="201" class="st0" width="96" height="127"/>
	<g id="XMLID_137_">
		<line id="XMLID_138_" class="st1" x1="36.3" y1="7" x2="36.3" y2="26.1"/>
		<line id="XMLID_1037_" class="st1" x1="45.9" y1="16.6" x2="26.8" y2="16.6"/>
	</g>
	<g id="XMLID_139_">
		<line id="XMLID_140_" class="st1" x1="462.5" y1="417.6" x2="462.5" y2="436.7"/>
		<line id="XMLID_1034_" class="st1" x1="472" y1="427.2" x2="452.9" y2="427.2"/>
	</g>
	<g id="XMLID_143_">
		<path id="XMLID_15_" class="st0" d="M412.8,15.7c0.5-1.6,1.3-1.6,1.9,0l0.5,1.7c0.5,1.6,2.3,2.9,3.9,2.9h1.7
			c1.6,0,1.9,0.8,0.6,1.8l-1.4,1c-1.3,1-2,3-1.5,4.6l0.5,1.7c0.5,1.6-0.2,2.1-1.5,1.1l-1.4-1c-1.3-1-3.5-1-4.9,0l-1.4,1
			c-1.3,1-2,0.5-1.5-1.1l0.5-1.7c0.5-1.6-0.2-3.6-1.5-4.6l-1.4-1c-1.3-1-1.1-1.8,0.6-1.8h1.7c1.6,0,3.4-1.3,3.9-2.9L412.8,15.7z"/>
	</g>
	<g id="XMLID_146_">
		<path id="XMLID_11_" class="st0" d="M45,431.6c0.5-1.6,1.3-1.6,1.9,0l0.5,1.7c0.5,1.6,2.3,2.9,3.9,2.9H53c1.7,0,1.9,0.8,0.6,1.8
			l-1.4,1c-1.3,1-2,3-1.5,4.6l0.5,1.7c0.5,1.6-0.2,2.1-1.5,1.1l-1.4-1c-1.3-1-3.5-1-4.9,0l-1.4,1c-1.3,1-2,0.5-1.5-1.1l0.5-1.7
			c0.5-1.6-0.2-3.6-1.5-4.6l-1.4-1c-1.3-1-1.1-1.8,0.6-1.8h1.7c1.7,0,3.4-1.3,3.9-2.9L45,431.6z"/>
	</g>
	<g id="XMLID_147_">
		<g id="XMLID_239_">
			<path id="XMLID_240_" class="st1" d="M103.7,380.6c-37.3-37.3-57.8-86.8-57.8-139.5s20.5-102.3,57.8-139.5s86.8-57.8,139.5-57.8
				s102.3,20.5,139.5,57.8s57.8,86.8,57.8,139.5S420,343.4,382.8,380.6s-86.8,57.8-139.5,57.8S141,417.9,103.7,380.6z M79.9,241.1
				c0,90,73.3,163.3,163.3,163.3s163.3-73.3,163.3-163.3c0-90-73.3-163.3-163.3-163.3S79.9,151.1,79.9,241.1z"/>
		</g>
		<polygon id="XMLID_1022_" class="st2" points="7,313.5 140.1,313.5 114,181.6 46.8,150.1 		"/>
		<polygon id="XMLID_1021_" class="st2" points="353,330.4 427.8,369.5 488.9,172.3 357.2,201.2 		"/>
		<polyline id="XMLID_1020_" class="st3" points="72.3,145.7 50.6,134 67.2,190.9 122.9,171.3 99.8,159.9 		"/>
		<polyline id="XMLID_1019_" class="st3" points="401.8,355.6 425.7,367.8 409.1,310.9 353.4,330.5 373.7,341.5 		"/>
	</g>
	<g id="XMLID_148_">
		<polygon id="XMLID_149_" class="st4" points="298,216.4 298,314 194,314 194,183 264.9,183 		"/>
		<polyline id="XMLID_150_" class="st5" points="264,183 264,218 298,218 		"/>
		<polyline id="XMLID_151_" class="st5" points="218.4,272.6 241.5,248.8 254.1,261.5 277.5,235.7 		"/>
		<polyline id="XMLID_152_" class="st5" points="267,233.6 278.7,234.6 279.7,247.1 		"/>
		<line id="XMLID_153_" class="st5" x1="216" y1="208" x2="251" y2="208"/>
		<line id="XMLID_154_" class="st5" x1="216" y1="224" x2="251" y2="224"/>
		<line id="XMLID_155_" class="st5" x1="217" y1="288" x2="275" y2="288"/>
	</g>
	<g id="XMLID_156_">
		<g id="XMLID_157_">
			<polygon id="XMLID_158_" class="st4" points="340,395.4 340,436 298,436 298,383 327.2,383 			"/>
			<polyline id="XMLID_159_" class="st5" points="326,383 326,397 340,397 			"/>
		</g>
		<line id="XMLID_160_" class="st5" x1="319" y1="424" x2="319" y2="402"/>
		<polyline id="XMLID_161_" class="st5" points="312.8,406.1 319.4,398.4 325.3,406.1 		"/>
	</g>
	<g id="XMLID_162_">
		<polyline id="XMLID_163_" class="st4" points="346,71 346,49 304,49 304,103 346,103 346,71 		"/>
		<polygon id="XMLID_164_" class="st6" points="326.1,92 328.7,83.3 355.3,56.5 361.3,62 335,88.8 		"/>
	</g>
	<g id="XMLID_165_">
		<polyline id="XMLID_166_" class="st4" points="153,41 124,41 124,85 169,85 169,53 		"/>
		<path id="XMLID_167_" class="st7" d="M137,72c0,0,3.1-29.4,34.8-30.3"/>
		<polyline id="XMLID_168_" class="st7" points="157.8,36.1 171,41.4 161,52.7 		"/>
	</g>
	<path id="XMLID_195_" class="st4" d="M164.1,401c-23.7-11-24.1-29.4-24.1-29.4v-21.3l24.1-5.3h0l22.8,5.3v21.3
		C187,371.6,187.8,390,164.1,401L164.1,401z"/>
	<path id="XMLID_196_" class="st6" d="M164.1,343.2l0,56.1c0,0,20.4-10.6,23-27.7c1.8-12.1,0-21.3,0-21.3L164.1,343.2z"/>
	<path id="XMLID_197_" class="st5" d="M164.1,401c-23.7-11-24.1-29.4-24.1-29.4v-21.3l24.1-5.3h0l22.8,5.3v21.3
		C187,371.6,187.8,390,164.1,401L164.1,401z"/>
	<g id="XMLID_282_">
		<circle id="XMLID_283_" class="st7" cx="414" cy="250" r="48.1"/>
		<g id="XMLID_284_">
			<line id="XMLID_285_" class="st8" x1="374.2" y1="261.2" x2="396.5" y2="238.4"/>
			<line id="XMLID_286_" class="st8" x1="396.5" y1="261.2" x2="374.2" y2="238.4"/>
			<path id="XMLID_287_" class="st8" d="M418.1,255.1c-1.8,3.3-5.3,5.4-9.3,5.4c-5.9,0-10.7-4.8-10.7-10.7s4.8-10.6,10.7-10.6
				s10.7,4.8,10.7,10.8H398"/>
			<line id="XMLID_288_" class="st8" x1="424" y1="239" x2="424" y2="262"/>
			<path id="XMLID_289_" class="st8" d="M424.8,245.3c0,0,1.9-6.9,9.2-5.3"/>
			<circle id="XMLID_290_" class="st8" cx="444.7" cy="250" r="10.5"/>
			<circle id="XMLID_291_" class="st0" cx="444.7" cy="250" r="3.4"/>
		</g>
	</g>
	<g id="XMLID_312_">
		<circle id="XMLID_313_" class="st7" cx="72.1" cy="252.2" r="48.1"/>
		<g id="XMLID_314_">
			<path id="XMLID_315_" class="st8" d="M54.1,270.2c-10.1,0-18.2-8-18.2-18.1S44.3,234,54.5,234H64v53"/>
			<path id="XMLID_981_" class="st8" d="M89.3,235.1c10.1,0,18.4,7.8,18.4,18c0,10.1-8.2,18-18.4,18H79v-52"/>
		</g>
	</g>
</g>
</svg>
