<?xml version="1.0" encoding="utf-8"?>
<!-- Generator: Adobe Illustrator 19.0.0, SVG Export Plug-In . SVG Version: 6.00 Build 0)  -->
<svg version="1.1" id="Layer_1" xmlns="http://www.w3.org/2000/svg" xmlns:xlink="http://www.w3.org/1999/xlink" x="0px" y="0px"  height="400px" width="400px"
	 viewBox="0 0 500 500" style="enable-background:new 0 0 500 500;" xml:space="preserve">
<style type="text/css">
	.st0{fill:none;stroke:#C8C8C8;stroke-width:4;stroke-miterlimit:10;}
	.st1{fill:#C8C8C8;}
	.st2{fill:#FFFFFF;}
	.st3{fill:#FFFFFF;stroke:#C8C8C8;stroke-width:4;stroke-miterlimit:10;}
	.st4{fill:none;stroke:#005FAA;stroke-width:4;stroke-miterlimit:10;}
	.st5{fill:#BABABA;}
	.st6{fill:#FFFFFF;stroke:#005FAA;stroke-width:4;stroke-miterlimit:10;}
	.st7{fill:none;stroke:#A8CA16;stroke-width:4;stroke-miterlimit:10;}
	.st8{fill:#A8CA16;}
	.st9{fill:none;stroke:#C8C8C8;stroke-width:4;stroke-linecap:round;stroke-linejoin:round;stroke-miterlimit:10;}
</style>
<g id="XMLID_990_">
	<g id="XMLID_78_">
		<line id="XMLID_79_" class="st0" x1="23.1" y1="22.5" x2="23.1" y2="41.8"/>
		<line id="XMLID_1054_" class="st0" x1="32.8" y1="32.1" x2="13.4" y2="32.1"/>
	</g>
	<g id="XMLID_80_">
		<line id="XMLID_81_" class="st0" x1="284.5" y1="328.3" x2="284.5" y2="347.8"/>
		<line id="XMLID_1051_" class="st0" x1="294.2" y1="338" x2="274.8" y2="338"/>
	</g>
	<g id="XMLID_82_">
		<line id="XMLID_83_" class="st0" x1="476" y1="28.4" x2="476" y2="47.9"/>
		<line id="XMLID_1048_" class="st0" x1="485.7" y1="38.2" x2="466.2" y2="38.2"/>
	</g>
	<g id="XMLID_86_">
		<path id="XMLID_17_" class="st1" d="M433.2,454.2c0.5-1.6,1.3-1.6,1.9,0l0.5,1.7c0.5,1.6,2.3,2.9,4,2.9h1.8c1.7,0,1.9,0.8,0.6,1.8
			l-1.4,1c-1.3,1-2,3-1.5,4.7l0.5,1.7c0.5,1.6-0.2,2.1-1.5,1.1l-1.4-1c-1.3-1-3.5-1-5,0l-1.4,1c-1.3,1-2,0.5-1.5-1.1l0.5-1.7
			c0.5-1.6-0.2-3.7-1.5-4.7l-1.4-1c-1.3-1-1.1-1.8,0.6-1.8h1.8c1.7,0,3.4-1.3,4-2.9L433.2,454.2z"/>
	</g>
	<g id="XMLID_89_">
		<path id="XMLID_13_" class="st1" d="M341.4,5.8c0.5-1.6,1.3-1.6,1.9,0l0.5,1.7c0.5,1.6,2.3,2.9,4,2.9h1.8c1.7,0,1.9,0.8,0.6,1.8
			l-1.4,1c-1.3,1-2,3-1.5,4.7l0.5,1.7c0.5,1.6-0.2,2.1-1.5,1.1l-1.4-1c-1.3-1-3.5-1-5,0l-1.4,1c-1.3,1-2,0.5-1.5-1.1l0.5-1.7
			c0.5-1.6-0.2-3.7-1.5-4.7l-1.4-1c-1.3-1-1.1-1.8,0.6-1.8h1.8c1.7,0,3.4-1.3,4-2.9L341.4,5.8z"/>
	</g>
	<g id="XMLID_92_">
		<path id="XMLID_12_" class="st1" d="M12.4,396.3c0.5-1.6,1.3-1.6,1.9,0l0.5,1.7c0.5,1.6,2.3,2.9,4,2.9h1.8c1.6,0,1.9,0.8,0.6,1.8
			l-1.4,1c-1.3,1-2,3-1.5,4.7l0.5,1.7c0.5,1.6-0.2,2.1-1.5,1.1l-1.4-1c-1.3-1-3.5-1-5,0l-1.4,1c-1.3,1-2,0.5-1.5-1.1l0.5-1.7
			c0.5-1.6-0.2-3.7-1.5-4.7l-1.4-1c-1.3-1-1.1-1.8,0.6-1.8h1.8c1.6,0,3.4-1.3,4-2.9L12.4,396.3z"/>
	</g>
	<g id="XMLID_108_">
		<g id="XMLID_254_">
			<path id="XMLID_255_" class="st0" d="M91.6,110.5c37.9-37.9,88.2-58.7,141.9-58.7s103.9,20.9,141.8,58.7s58.8,88.3,58.8,141.9
				s-20.9,103.9-58.8,141.9s-88.2,58.7-141.9,58.7s-103.9-20.9-141.9-58.7S32.8,306,32.8,252.4S53.7,148.4,91.6,110.5z M233.5,86.3
				c-91.6,0-166,74.4-166,166s74.4,166,166,166s166-74.4,166-166S325,86.3,233.5,86.3z"/>
		</g>
		<polygon id="XMLID_1033_" class="st2" points="188.4,15.1 188.4,150.3 293.9,120.9 326,52.6 		"/>
		<polygon id="XMLID_1032_" class="st2" points="142.6,363.9 102.9,440 277.6,491.9 277.6,367.4 		"/>
		<polyline id="XMLID_1031_" class="st3" points="331.2,78.2 342.4,56.4 284.5,73.4 304.4,130.1 316.4,107.1 		"/>
		<polyline id="XMLID_1030_" class="st3" points="116.8,414.2 104.6,437.8 162.5,421 142.6,364.3 131.6,385.2 		"/>
	</g>
	<g id="XMLID_112_">
		<path id="XMLID_113_" class="st4" d="M166.3,228v-22.3h9.7c0,0-1.6-10.1,7.7-10.1c11.9,0,32.3,0,32.3,0s7.7,0,7.7,11.2h75.3V228"
			/>
		<rect id="XMLID_114_" x="175.5" y="212.8" class="st5" width="115.6" height="10.1"/>
		<rect id="XMLID_115_" x="172.4" y="219.9" class="st1" width="120.7" height="9.1"/>
		<polygon id="XMLID_116_" class="st4" points="160,228.7 164.8,305.1 300.3,305.1 305.7,228.6 		"/>
	</g>
	<g id="XMLID_117_">
		<rect id="XMLID_118_" x="414.8" y="213.8" class="st6" width="47.7" height="60.8"/>
		<line id="XMLID_119_" class="st7" x1="424.9" y1="226" x2="454.4" y2="226"/>
		<line id="XMLID_120_" class="st7" x1="424.9" y1="235.1" x2="454.4" y2="235.1"/>
		<line id="XMLID_121_" class="st7" x1="424.9" y1="245.3" x2="454.4" y2="245.3"/>
		<line id="XMLID_122_" class="st7" x1="424.9" y1="254.4" x2="454.4" y2="254.4"/>
	</g>
	<g id="XMLID_123_">
		<circle id="XMLID_124_" class="st6" cx="71.7" cy="338" r="31.1"/>
		<g id="XMLID_125_">
			<path id="XMLID_126_" class="st8" d="M69.9,359.6v-5.3c-3-0.1-6.2-1-8-2.3l1.2-3.5c1.9,1.2,4.7,2.2,7.6,2.2
				c3.8,0,6.3-2.1,6.3-5.2c0-2.9-2-4.7-6-6.3c-5.4-2.1-8.7-4.6-8.7-9.1c0-4.4,3.1-7.7,7.9-8.5v-5.3h3.2v5.1c3.1,0.1,5.3,0.9,6.9,1.8
				l-1.3,3.4c-1.1-0.6-3.2-1.8-6.6-1.8c-4.1,0-5.6,2.4-5.6,4.6c0,2.7,1.9,4.2,6.5,6c5.5,2.2,8.2,5,8.2,9.6c0,4.2-2.9,8-8.3,8.9v5.5
				h-3.3V359.6z"/>
		</g>
	</g>
	<g id="XMLID_128_">
		<g id="XMLID_129_">
			<path id="XMLID_130_" class="st6" d="M102.9,171.3v-11h-7.7c-0.6-2.6-1.6-5.1-3-7.3l5.5-5.5l-7.7-7.7l-5.5,5.5
				c-2.2-1.4-4.7-2.4-7.3-3v-7.7h-11v7.7c-2.6,0.6-5.1,1.6-7.3,3l-5.5-5.5l-7.7,7.7l5.5,5.5c-1.4,2.2-2.4,4.7-3,7.3h-7.7v11h7.7
				c0.6,2.6,1.6,5.1,3,7.3l-5.5,5.5l7.7,7.7l5.5-5.5c2.2,1.4,4.7,2.4,7.3,3v7.7h11v-7.7c2.6-0.6,5.1-1.6,7.3-3l5.5,5.5l7.7-7.7
				l-5.5-5.5c1.4-2.2,2.4-4.7,3-7.3H102.9z"/>
		</g>
		<circle id="XMLID_131_" class="st6" cx="71.6" cy="165.9" r="12.7"/>
	</g>
	<g id="XMLID_292_">
		<circle id="XMLID_293_" class="st7" cx="220.3" cy="429.5" r="49"/>
		<g id="XMLID_294_">
			<line id="XMLID_295_" class="st9" x1="179.7" y1="441" x2="202.5" y2="417.9"/>
			<line id="XMLID_296_" class="st9" x1="202.5" y1="441" x2="179.7" y2="417.9"/>
			<path id="XMLID_297_" class="st9" d="M224.4,434.4c-1.8,3.3-5.4,5.7-9.4,5.7c-6,0-10.9-4.8-10.9-10.7s4.9-11.2,10.9-11.2
				s10.9,4.6,10.9,10.6h-21.9"/>
			<line id="XMLID_298_" class="st9" x1="230.2" y1="417.7" x2="230.2" y2="441"/>
			<path id="XMLID_299_" class="st9" d="M231.1,424.8c0,0,1.9-7,9.3-5.4"/>
			<circle id="XMLID_300_" class="st9" cx="251.4" cy="429.5" r="10.6"/>
			<circle id="XMLID_301_" class="st1" cx="251.4" cy="429.5" r="3.4"/>
		</g>
	</g>
	<g id="XMLID_320_">
		<path id="XMLID_321_" class="st7" d="M198.8,109.4v-55c0,0,1.9-22.1,19.6-22.1s44.5,0,44.5,0s14,4.2,14,23.8s0,35.8,0,35.8
			s-1.4,17.3-22.5,17.3S198.8,109.4,198.8,109.4z"/>
		<g id="XMLID_322_">
			<path id="XMLID_323_" class="st1" d="M254.4,89.8h-7.2l-8.6-17.2h-7.7v17.2h-6.3v-41h15.8c2.5,0,4.8,0.5,6.7,1.5
				c1.9,1,3.4,2.4,4.5,4.3s1.5,3.9,1.5,6.2c0,2.8-0.7,5.2-2.2,7c-1.5,1.9-3.4,3.1-5.9,3.9L254.4,89.8z M246.9,60.9
				c0-2-0.6-3.5-1.9-4.8c-1.2-1.1-2.9-1.7-5.1-1.7h-9.2v12.8h9.2c2.1,0,3.8-0.6,5.1-1.7C246.3,64.4,246.9,62.8,246.9,60.9z"/>
		</g>
	</g>
</g>
</svg>
