<?xml version="1.0" encoding="utf-8"?>
<!-- Generator: Adobe Illustrator 21.1.0, SVG Export Plug-In . SVG Version: 6.00 Build 0)  -->
<svg version="1.1" id="Layer_1" xmlns="http://www.w3.org/2000/svg" xmlns:xlink="http://www.w3.org/1999/xlink" x="0px" y="0px" width="120px" height="120px"
	 viewBox="0 0 120 120" style="enable-background:new 0 0 120 120;" xml:space="preserve">
<style type="text/css">
	.st0{fill:none;stroke:#FFFFFF;stroke-width:2.1604;stroke-miterlimit:10;}
	.st1{fill:#FFFFFF;}
	.st2{fill:none;stroke:#FFFFFF;stroke-width:2.5;stroke-miterlimit:10;}
	.st3{fill:none;stroke:#50CFFF;stroke-width:2.5;stroke-miterlimit:10;}
</style>
<g>
	<g>
		<line class="st0" x1="20.8" y1="97.1" x2="20.8" y2="105.1"/>
		<line class="st0" x1="24.8" y1="101.1" x2="16.8" y2="101.1"/>
	</g>
	<g>
		<line class="st0" x1="106.4" y1="5.4" x2="106.4" y2="13.4"/>
		<line class="st0" x1="110.4" y1="9.4" x2="102.4" y2="9.4"/>
	</g>
	<g>
		<path class="st1" d="M93.7,103.2c0.2-0.6,0.5-0.6,0.7,0l0.1,0.2c0.2,0.6,0.9,1.1,1.6,1.1h0.2c0.7,0,0.8,0.3,0.2,0.7l-0.2,0.1
			c-0.5,0.4-0.8,1.2-0.6,1.8l0.1,0.2c0.2,0.6-0.1,0.8-0.6,0.4l-0.2-0.1c-0.5-0.4-1.4-0.4-1.9,0l-0.2,0.1c-0.5,0.4-0.8,0.2-0.6-0.4
			l0.1-0.2c0.2-0.6-0.1-1.5-0.6-1.8l-0.2-0.1c-0.5-0.4-0.4-0.7,0.2-0.7H92c0.7,0,1.4-0.5,1.6-1.1L93.7,103.2z"/>
	</g>
	<g>
		<path class="st1" d="M11.6,2.5c0.3-0.8,0.7-0.8,1,0l0.1,0.3c0.3,0.8,1.2,1.5,2.1,1.5h0.3c0.9,0,1,0.4,0.3,0.9l-0.3,0.2
			C14.5,6,14.1,7.1,14.4,8l0.1,0.3c0.3,0.8-0.1,1.1-0.8,0.6l-0.3-0.2c-0.7-0.5-1.9-0.5-2.6,0l-0.3,0.2C9.8,9.4,9.5,9.1,9.8,8.3
			L9.9,8c0.3-0.8-0.1-2-0.8-2.5L8.8,5.3C8.1,4.8,8.2,4.4,9.1,4.4h0.3c0.9,0,1.8-0.7,2.1-1.5L11.6,2.5z"/>
	</g>
	<g>
		<g>
			<path class="st1" d="M23.5,36.8c0.3-0.8,0.7-0.8,1,0l0.1,0.3c0.3,0.8,1.2,1.5,2.1,1.5h0.3c0.9,0,1,0.4,0.3,0.9l-0.3,0.2
				c-0.7,0.5-1.1,1.6-0.8,2.5l0.1,0.3c0.3,0.8-0.1,1.1-0.8,0.6L25.3,43c-0.7-0.5-1.9-0.5-2.6,0l-0.3,0.2c-0.7,0.5-1.1,0.3-0.8-0.6
				l0.1-0.3c0.3-0.8-0.1-2-0.8-2.5l-0.3-0.2c-0.7-0.5-0.6-0.9,0.3-0.9h0.3c0.9,0,1.8-0.7,2.1-1.5L23.5,36.8z"/>
		</g>
		<g>
			<path class="st1" d="M33.4,36.8c0.3-0.8,0.7-0.8,1,0l0.1,0.3c0.3,0.8,1.2,1.5,2.1,1.5h0.3c0.9,0,1,0.4,0.3,0.9L37,39.8
				c-0.7,0.5-1.1,1.6-0.8,2.5l0.1,0.3c0.3,0.8-0.1,1.1-0.8,0.6L35.2,43c-0.7-0.5-1.9-0.5-2.6,0l-0.3,0.2c-0.7,0.5-1.1,0.3-0.8-0.6
				l0.1-0.3c0.3-0.8-0.1-2-0.8-2.5l-0.3-0.2c-0.7-0.5-0.6-0.9,0.3-0.9h0.3c0.9,0,1.8-0.7,2.1-1.5L33.4,36.8z"/>
		</g>
		<g>
			<path class="st1" d="M43.3,36.8c0.3-0.8,0.7-0.8,1,0l0.1,0.3c0.3,0.8,1.2,1.5,2.1,1.5h0.3c0.9,0,1,0.4,0.3,0.9l-0.3,0.2
				c-0.7,0.5-1.1,1.6-0.8,2.5l0.1,0.3c0.3,0.8-0.1,1.1-0.8,0.6L45,43c-0.7-0.5-1.9-0.5-2.6,0l-0.3,0.2c-0.7,0.5-1.1,0.3-0.8-0.6
				l0.1-0.3c0.3-0.8-0.1-2-0.8-2.5l-0.3-0.2c-0.7-0.5-0.6-0.9,0.3-0.9H41c0.9,0,1.8-0.7,2.1-1.5L43.3,36.8z"/>
		</g>
	</g>
	<g>
		<path class="st2" d="M34.4,87c0,0-15.8-11.7-25.3-22.3s-5.3-18.2-3.8-26S2,20.4,2,20.4l7.7-5.1c18.8,3.4,24.7-4.4,24.7-4.4
			s5.9,7.9,24.7,4.4l7.7,5.1c0,0-4.9,10.5-3.4,18.3s5.7,15.3-3.8,26S34.4,87,34.4,87z"/>
		<path class="st3" d="M34.4,80.4c-5-3.9-14.8-11.9-21.4-19.2c-6.2-7-5-11.4-3.5-17.6c0.3-1.2,0.6-2.5,0.9-3.9
			c1.2-6.1-0.5-13-2.1-17.3l2.5-1.6c2.7,0.4,5.3,0.6,7.7,0.6c7.6,0,12.6-1.9,15.8-3.8c3.1,1.9,8.2,3.8,15.8,3.8c2.4,0,5-0.2,7.7-0.6
			l2.5,1.6c-1.5,4.3-3.3,11.2-2.1,17.3c0.3,1.3,0.6,2.6,0.9,3.9c1.6,6.2,2.7,10.7-3.5,17.6C49.2,68.6,39.3,76.6,34.4,80.4z"/>
	</g>
	<g>
		<path class="st3" d="M41.4,9.2C48,5,56.1,2.4,65.5,2.4c27,0,44.6,23.2,44.6,39.2c0,0-3.2,4.7,0,8.9s10.5,14.7,7,16.5
			c-3.5,1.8-7,1.8-7,1.8s5.3,6.6-0.7,8.8c0,0,3.8,5.4,0,6.5c0,0-3,2.2-1.9,6.5c1.1,4.3,0.1,8.4-7.9,7.9c-8.1-0.5-22.4-5.4-22.7,20"
			/>
		<path class="st3" d="M31.7,118.4c0,0,6.8-13,4.6-26"/>
	</g>
	<line class="st2" x1="19.4" y1="52.3" x2="48.4" y2="52.3"/>
	<line class="st2" x1="23.8" y1="58.3" x2="44" y2="58.3"/>
	<line class="st2" x1="28.7" y1="64.4" x2="39.1" y2="64.4"/>
</g>
</svg>
