<?xml version="1.0" encoding="utf-8"?>
<!-- Generator: Adobe Illustrator 21.1.0, SVG Export Plug-In . SVG Version: 6.00 Build 0)  -->
<svg version="1.1" id="Layer_1" xmlns="http://www.w3.org/2000/svg" xmlns:xlink="http://www.w3.org/1999/xlink" x="0px" y="0px" width="120px" height="120px"
	 viewBox="0 0 120 120" style="enable-background:new 0 0 120 120;" xml:space="preserve">
<style type="text/css">
	.st0{fill:none;stroke:#FFFFFF;stroke-width:2.5;stroke-miterlimit:10;}
	.st1{fill:#FFFFFF;}
	.st2{fill:none;stroke:#50CFFF;stroke-width:2.5;stroke-miterlimit:10;}
</style>
<g>
	<g>
		<line class="st0" x1="68.5" y1="3" x2="68.5" y2="10.7"/>
		<line class="st0" x1="72.4" y1="6.8" x2="64.7" y2="6.8"/>
	</g>
	<g>
		<line class="st0" x1="10.9" y1="3" x2="10.9" y2="10.7"/>
		<line class="st0" x1="14.8" y1="6.8" x2="7.1" y2="6.8"/>
	</g>
	<g>
		<line class="st0" x1="98.3" y1="98.1" x2="98.3" y2="105.8"/>
		<line class="st0" x1="102.1" y1="101.9" x2="94.4" y2="101.9"/>
	</g>
	<g>
		<path class="st1" d="M25,99.9c0.2-0.6,0.5-0.6,0.7,0l0,0.1c0.2,0.6,0.9,1.1,1.6,1.1h0.1c0.7,0,0.8,0.3,0.2,0.7l-0.1,0.1
			c-0.5,0.4-0.8,1.2-0.6,1.8l0,0.1c0.2,0.6-0.1,0.8-0.6,0.4l-0.1-0.1c-0.5-0.4-1.4-0.4-1.9,0l-0.1,0.1c-0.5,0.4-0.8,0.2-0.6-0.4
			l0-0.1c0.2-0.6-0.1-1.5-0.6-1.8l-0.1-0.1c-0.5-0.4-0.4-0.7,0.2-0.7h0.1c0.7,0,1.4-0.5,1.6-1.1L25,99.9z"/>
	</g>
	<g>
		<path class="st1" d="M23.8,40.2c0.3-0.8,0.7-0.8,1,0l0.1,0.2c0.3,0.8,1.2,1.5,2.1,1.5h0.2c0.9,0,1,0.4,0.3,0.9L27.3,43
			c-0.7,0.5-1.1,1.6-0.8,2.5l0.1,0.2c0.3,0.8-0.1,1.1-0.8,0.6l-0.2-0.1c-0.7-0.5-1.9-0.5-2.6,0l-0.2,0.1c-0.7,0.5-1.1,0.3-0.8-0.6
			l0.1-0.2c0.3-0.8-0.1-2-0.8-2.5l-0.2-0.1c-0.7-0.5-0.6-0.9,0.3-0.9h0.2c0.9,0,1.8-0.7,2.1-1.5L23.8,40.2z"/>
	</g>
	<g>
		<path class="st2" d="M2,96.8c0,2,1.7,3.7,3.7,3.7h10.4c2,0,3.7-1.7,3.7-3.7v-37c0-2-1.7-3.7-3.7-3.7H5.7c-2,0-3.7,1.7-3.7,3.7
			V96.8z"/>
		<path class="st2" d="M19.8,94.9l7-0.6c0,0,17.5,6.8,21,8.5s11.1-0.8,11.1-0.8l37.7-22.9c0,0,5.7-3.4,3.9-7.7
			c-2-4.7-7.7-2.5-9.2-1.5c-6.8,4.4-14,8.9-14,8.9L53.4,92.4L43,85.6c-3.1-3.6,1.1-6.8,1.1-6.8h13.2c0,0,8.8,0.7,8.8-4.5
			c0-6-7.2-5.6-7.2-5.6s-8.4,0-12.2,0c-3.8,0-5.2-1.6-5.2-1.6c-0.4-0.6-0.9-1.1-1.4-1.5c-7.3-6.6-20.2-2.8-20.2-2.8"/>
	</g>
	<g>
		<path class="st2" d="M97.8,49c-1.8,0.7-3.5,1.4-5,2.1c-0.2,0.1-0.4,0.4-0.4,0.7c-0.1,0.7,0,1.3,0,2c0,0.9-0.4,1.3-1.3,1.3
			c-1.5,0-3,0-4.6,0c-0.8,0-1.3-0.4-1.2-1.2c0.4-2.2-0.5-3.2-2.6-3.6c-1-0.2-1.9-0.9-3.1-1.4c-0.6,0.7-1.3,1.5-2,2.2
			c-0.8,0.8-1.2,0.8-2,0c-1-1-2-2-3-3c-0.8-0.8-0.8-1.2,0-2c0.7-0.7,1.5-1.4,2.1-2c-0.6-1.7-1.2-3.1-1.7-4.5
			c-0.1-0.3-0.5-0.6-0.8-0.6c-0.8-0.1-1.6,0-2.3,0c-0.8,0-1.3-0.4-1.3-1.3c0-1.5,0-3,0-4.6c0-0.8,0.4-1.4,1.2-1.2
			c2.1,0.4,3.2-0.4,3.6-2.6c0.2-1,0.9-1.9,1.4-3.1c-0.8-0.7-1.7-1.6-2.6-2.4c-0.7-0.6-0.7-1.2,0-1.9c1-1,2.1-2.1,3.1-3.1
			c0.8-0.8,1.2-0.8,2,0c0.9,0.9,1.7,1.8,2.4,2.5c1.7-0.6,3.2-1.2,4.7-1.8c0.2-0.1,0.5-0.5,0.5-0.7c0.1-0.8,0-1.6,0-2.4
			c0-0.9,0.4-1.3,1.3-1.3c1.5,0,3,0,4.6,0c0.8,0,1.2,0.4,1.2,1.3c0,1,0,2.1,0,3c1.5,0.7,3,1.3,4.4,1.9c0.2,0.1,0.6-0.1,0.8-0.3
			c0.7-0.7,1.4-1.4,2.1-2.1c0.6-0.6,1.1-0.6,1.7,0c1.1,1.1,2.2,2.2,3.4,3.4c0.5,0.5,0.5,1.1,0,1.6c-0.8,0.8-1.6,1.6-2.5,2.4
			c0.4,0.9,0.9,1.7,1.2,2.6c0.4,0.9,0.6,1.8,1,2.8c0.9,0,1.9,0,2.8,0c1.2,0,1.6,0.5,1.6,1.7c0,1.3,0,2.6,0,4c0,0.9-0.4,1.3-1.3,1.3
			c-0.9,0-1.9,0-2.8,0c-0.7,1.6-1.3,3.1-2,4.6c-0.1,0.2,0.1,0.6,0.3,0.8c0.5,0.6,1,1.1,1.6,1.6c0.6,0.6,0.6,1.2,0,1.8
			c-1.1,1.1-2.2,2.1-3.2,3.2c-0.6,0.6-1.2,0.6-1.8,0C98.8,50.2,98.3,49.5,97.8,49z M88.5,45.2c5.5,0,9.8-4.4,9.8-10
			c0-5.4-4.4-9.7-9.8-9.7c-5.6,0-9.9,4.4-9.8,10C78.7,40.9,83.1,45.3,88.5,45.2z"/>
		<path class="st0" d="M74.7,60.7c0-1.2,0-2.1,0-3.3c2.3,2,4.5,3.8,6.7,5.7c-2.4,1.7-4.6,3.3-7,5c0-0.8-0.1-1.5,0-2.1
			c0.1-0.8-0.2-1.1-0.9-1.3c-7.9-2.5-13-7.7-15.1-15.8c-0.6-2.2-0.7-4.4-0.4-6.7c1.4,0.2,2.7,0.3,4.1,0.5
			C62.2,51.4,66.1,57.5,74.7,60.7z"/>
		<path class="st0" d="M101.6,3c-0.1,1.2-0.2,2.1-0.2,3.2c6.8,1.8,11.8,5.8,14.8,12.2c1.5,3.3,2.1,6.7,1.7,10.5
			c-1.4-0.2-2.8-0.3-4.2-0.5c0.2-5.3-1.5-9.9-5.2-13.7c-2.1-2.1-5.1-3.8-7.2-4c-0.1,0.9-0.1,1.8-0.2,3c-2.3-2-4.4-3.8-6.6-5.7
			C96.8,6.3,99.1,4.7,101.6,3z"/>
	</g>
</g>
</svg>
