<?xml version="1.0" encoding="utf-8"?>
<!-- Generator: Adobe Illustrator 21.1.0, SVG Export Plug-In . SVG Version: 6.00 Build 0)  -->
<svg version="1.1" id="Layer_1" xmlns="http://www.w3.org/2000/svg" xmlns:xlink="http://www.w3.org/1999/xlink" x="0px" y="0px" width="120px" height="120px"
	 viewBox="0 0 120 120" style="enable-background:new 0 0 120 120;" xml:space="preserve">
<style type="text/css">
	.st0{display:none;fill:#2060AC;}
	.st1{fill:none;stroke:#FFFFFF;stroke-width:2.1604;stroke-miterlimit:10;}
	.st2{fill:#FFFFFF;}
	.st3{fill:none;stroke:#50CFFF;stroke-width:2.5;stroke-linecap:round;stroke-linejoin:round;stroke-miterlimit:10;}
	.st4{fill:none;stroke:#FFFFFF;stroke-width:2.5;stroke-linecap:round;stroke-linejoin:round;stroke-miterlimit:10;}
</style>
<g>
	<rect x="-0.2" y="0" class="st0" width="120" height="120"/>
	<g>
		<line class="st1" x1="107.3" y1="11.7" x2="107.3" y2="19.5"/>
		<line class="st1" x1="111.2" y1="15.6" x2="103.4" y2="15.6"/>
	</g>
	<g>
		<line class="st1" x1="67.4" y1="105.3" x2="67.4" y2="113.1"/>
		<line class="st1" x1="71.3" y1="109.2" x2="63.5" y2="109.2"/>
	</g>
	<g>
		<line class="st1" x1="12.8" y1="7.8" x2="12.8" y2="15.6"/>
		<line class="st1" x1="16.7" y1="11.7" x2="9" y2="11.7"/>
	</g>
	<g>
		<path class="st2" d="M14.2,64c0.3-0.8,0.7-0.8,1,0l0.1,0.2c0.3,0.8,1.2,1.5,2.1,1.5h0.2c0.9,0,1,0.4,0.3,0.9l-0.2,0.1
			c-0.7,0.5-1.1,1.6-0.8,2.5l0.1,0.2c0.3,0.8-0.1,1.1-0.8,0.6L16,70c-0.7-0.5-1.9-0.5-2.6,0l-0.2,0.1c-0.7,0.5-1.1,0.3-0.8-0.6
			l0.1-0.2c0.3-0.8-0.1-2-0.8-2.5l-0.2-0.1c-0.7-0.5-0.6-0.9,0.3-0.9H12c0.9,0,1.8-0.7,2.1-1.5L14.2,64z"/>
	</g>
	<g>
		<path class="st2" d="M103.5,57.2c0.3-0.8,0.7-0.8,1,0l0.1,0.2c0.3,0.8,1.2,1.5,2.1,1.5h0.2c0.9,0,1,0.4,0.3,0.9l-0.2,0.1
			c-0.7,0.5-1.1,1.6-0.8,2.5l0.1,0.2c0.3,0.8-0.1,1.1-0.8,0.6l-0.2-0.1c-0.7-0.5-1.9-0.5-2.6,0l-0.2,0.1c-0.7,0.5-1.1,0.3-0.8-0.6
			l0.1-0.2c0.3-0.8-0.1-2-0.8-2.5l-0.2-0.1c-0.7-0.5-0.6-0.9,0.3-0.9h0.2c0.9,0,1.8-0.7,2.1-1.5L103.5,57.2z"/>
	</g>
	<g>
		<circle class="st3" cx="59.9" cy="42.6" r="34.4"/>
		<path class="st4" d="M85.5,39.1C83.8,26.5,73,16.7,59.9,16.7C45.6,16.7,34,28.3,34,42.6s11.6,25.9,25.9,25.9
			c13,0,23.8-9.6,25.6-22.2"/>
		<polygon class="st4" points="59.9,26 64,38.7 77.4,38.7 66.6,46.5 70.7,59.3 59.9,51.4 49.1,59.3 53.2,46.5 42.4,38.7 55.8,38.7 
					"/>
		<polyline class="st3" points="32.8,63.8 15.3,106.9 31.9,102.6 38.5,115.8 53.1,81.8 		"/>
		<polyline class="st3" points="64.2,76.7 81.8,118.5 89.3,102 106.2,106.9 89.7,70.6 		"/>
	</g>
</g>
</svg>
