<?xml version="1.0" encoding="utf-8"?>
<!-- Generator: Adobe Illustrator 19.0.0, SVG Export Plug-In . SVG Version: 6.00 Build 0)  -->
<svg version="1.1" id="Layer_1" xmlns="http://www.w3.org/2000/svg" xmlns:xlink="http://www.w3.org/1999/xlink" x="0px" y="0px"  height="400px" width="400px"
	 viewBox="0 0 500 500" style="enable-background:new 0 0 500 500;" xml:space="preserve">
<style type="text/css">
	.st0{fill:none;stroke:#C8C8C8;stroke-width:4;stroke-miterlimit:10;}
	.st1{fill:#C8C8C8;}
	.st2{fill:#FFFFFF;}
	.st3{fill:#FFFFFF;stroke:#C8C8C8;stroke-width:4;stroke-miterlimit:10;}
	.st4{fill:#FFFFFF;stroke:#005FAA;stroke-width:4;stroke-miterlimit:10;}
	.st5{fill:none;stroke:#005FAA;stroke-width:4;stroke-miterlimit:10;}
	.st6{fill:none;stroke:#A8CA16;stroke-width:4;stroke-miterlimit:10;}
	.st7{fill:#A8CA16;}
</style>
<g id="XMLID_829_">
	<g id="XMLID_93_">
		<line id="XMLID_94_" class="st0" x1="33.6" y1="23.8" x2="33.6" y2="43.1"/>
		<line id="XMLID_900_" class="st0" x1="43.3" y1="33.4" x2="24" y2="33.4"/>
	</g>
	<g id="XMLID_95_">
		<line id="XMLID_96_" class="st0" x1="293.8" y1="328.3" x2="293.8" y2="347.6"/>
		<line id="XMLID_897_" class="st0" x1="303.5" y1="338" x2="284.1" y2="338"/>
	</g>
	<g id="XMLID_97_">
		<line id="XMLID_98_" class="st0" x1="453" y1="45" x2="453" y2="64.3"/>
		<line id="XMLID_894_" class="st0" x1="462.7" y1="54.7" x2="443.3" y2="54.7"/>
	</g>
	<g id="XMLID_101_">
		<path id="XMLID_17_" class="st1" d="M419.8,436.4c0.5-1.6,1.3-1.6,1.9,0l0.6,1.7c0.5,1.6,2.3,2.9,3.9,2.9h1.8
			c1.6,0,1.9,0.8,0.6,1.8l-1.5,1.1c-1.3,1-2,3-1.5,4.6l0.6,1.7c0.5,1.6-0.2,2.1-1.5,1.1l-1.5-1.1c-1.3-1-3.5-1-4.9,0l-1.5,1.1
			c-1.3,1-2,0.5-1.5-1.1l0.6-1.7c0.5-1.6-0.2-3.6-1.5-4.6l-1.5-1.1c-1.3-1-1.1-1.8,0.6-1.8h1.8c1.7,0,3.4-1.3,3.9-2.9L419.8,436.4z"
			/>
	</g>
	<g id="XMLID_104_">
		<path id="XMLID_13_" class="st1" d="M350.5,7.2c0.5-1.6,1.3-1.6,1.9,0l0.6,1.7c0.5,1.6,2.3,2.9,3.9,2.9h1.8c1.6,0,1.9,0.8,0.6,1.8
			l-1.5,1.1c-1.3,1-2,3-1.5,4.6l0.6,1.7c0.5,1.6-0.2,2.1-1.5,1.1l-1.5-1.1c-1.3-1-3.5-1-4.9,0l-1.5,1.1c-1.3,1-2,0.5-1.5-1.1
			l0.6-1.7c0.5-1.6-0.2-3.6-1.5-4.6l-1.5-1.1c-1.3-1-1.1-1.8,0.6-1.8h1.8c1.6,0,3.4-1.3,3.9-2.9L350.5,7.2z"/>
	</g>
	<g id="XMLID_107_">
		<path id="XMLID_12_" class="st1" d="M23,395.9c0.5-1.6,1.3-1.6,1.9,0l0.6,1.7c0.5,1.6,2.3,2.9,3.9,2.9h1.8c1.7,0,1.9,0.8,0.6,1.8
			l-1.5,1.1c-1.3,1-2,3-1.5,4.6l0.6,1.7c0.5,1.6-0.2,2.1-1.5,1.1l-1.5-1.1c-1.3-1-3.5-1-4.9,0l-1.5,1.1c-1.3,1-2,0.5-1.5-1.1
			l0.6-1.7c0.5-1.6-0.2-3.6-1.5-4.6l-1.5-1.1c-1.3-1-1.1-1.8,0.6-1.8h1.8c1.6,0,3.4-1.3,3.9-2.9L23,395.9z"/>
	</g>
	<g id="XMLID_109_">
		<g id="XMLID_110_">
			<path id="XMLID_111_" class="st0" d="M101.8,107.8c37.7-37.7,87.9-58.5,141.2-58.5s103.5,20.8,141.2,58.5s58.5,87.9,58.5,141.2
				s-20.8,103.5-58.5,141.2s-87.9,58.5-141.2,58.5S139.5,428,101.8,390.2S43.3,302.3,43.3,249S64.1,145.5,101.8,107.8z M243,83.8
				c-91.1,0-165.3,74.1-165.3,165.3S151.8,414.4,243,414.4c91.1,0,165.3-74.1,165.3-165.3S334.2,83.8,243,83.8z"/>
		</g>
		<polygon id="XMLID_879_" class="st2" points="178.3,14.7 186.9,150.3 303.3,118.2 335.1,50.2 		"/>
		<polygon id="XMLID_878_" class="st2" points="152.6,360.1 113,435.8 287,487.5 287,363.5 		"/>
		<polyline id="XMLID_877_" class="st3" points="340.4,75.7 351.5,54 293.8,70.8 313.7,127.3 325.6,104.5 		"/>
		<polyline id="XMLID_876_" class="st3" points="126.9,410.2 114.8,433.7 172.4,416.9 152.6,360.5 141.6,381.3 		"/>
	</g>
	<g id="XMLID_132_">
		<g id="XMLID_133_">
			<path id="XMLID_134_" class="st4" d="M69.1,322.6v-10.9h-7.7c-0.6-2.6-1.6-5-3-7.2l5.5-5.5l-7.7-7.7l-5.5,5.5
				c-2.2-1.4-4.6-2.4-7.2-3v-7.7H32.6v7.7c-2.6,0.6-5,1.6-7.2,3l-5.5-5.5l-7.7,7.7l5.5,5.5c-1.4,2.2-2.4,4.6-3,7.2H7v10.9h7.7
				c0.6,2.6,1.6,5,3,7.2l-5.5,5.5l7.7,7.7l5.5-5.5c2.2,1.4,4.6,2.4,7.2,3v7.7h10.9v-7.7c2.6-0.6,5-1.6,7.2-3l5.5,5.5l7.7-7.7
				l-5.5-5.5c1.4-2.2,2.4-4.6,3-7.2H69.1z"/>
		</g>
		<circle id="XMLID_135_" class="st4" cx="38" cy="316.7" r="12.6"/>
	</g>
	<g id="XMLID_352_">
		<g id="XMLID_353_">
			<path id="XMLID_354_" class="st4" d="M378,263.3l7.1,34.6l15.2-2.8l-0.5-3.3c0,0,5.3-5.4,11.2-5.3s19,2.5,27,1.8
				c7.9-0.7,12.1-3.9,16.9-7.6s27.2-27.4,27.2-27.4s-2.6-4.1-8.5-2.4s-17.1,11.7-17.1,11.7s-5.2-5.1-13.5-3.6s-14.8,3-17.1,2.8
				c-2.4-0.2-10.2-4.6-19.5-1.3s-10.8,6.3-10.8,6.3l-1.2-6.5L378,263.3z"/>
			<line id="XMLID_355_" class="st5" x1="395.5" y1="266.7" x2="399.8" y2="292.2"/>
			<path id="XMLID_356_" class="st4" d="M430.8,272l27.2-4.1c0,0,1.6-3.5-1.9-5.5"/>
		</g>
		<g id="XMLID_357_">
			<circle id="XMLID_358_" class="st4" cx="435.1" cy="229.2" r="24.5"/>
			<polyline id="XMLID_359_" class="st4" points="432.5,210.9 432.5,232.9 448.5,232.9 			"/>
		</g>
	</g>
	<circle id="XMLID_417_" class="st0" cx="239.3" cy="68.9" r="47"/>
	<g id="XMLID_499_">
		<line id="XMLID_500_" class="st0" x1="200.5" y1="311.9" x2="273.5" y2="311.9"/>
		<line id="XMLID_501_" class="st5" x1="237.5" y1="161.9" x2="237.5" y2="137.9"/>
		<g id="XMLID_502_">
			<path id="XMLID_503_" class="st5" d="M234.5,324.9h-11.7c0,0-9.2-2.6-9.2-10.8s2.7-43.6-6-54.7s-30.5-42.5-6-70.3
				c19.1-21.6,53.5-21.7,72.6,0c24.5,27.8,2.7,59.1-6,70.3c-8.7,11.1-6,46.6-6,54.8S253,325,253,325L234.5,324.9"/>
			<path id="XMLID_504_" class="st5" d="M252.2,324.8c0,8.7-7.1,15.8-15.8,15.8s-15.8-7.1-15.8-15.8"/>
			<line id="XMLID_505_" class="st0" x1="200.5" y1="294.9" x2="273.5" y2="294.9"/>
			<line id="XMLID_856_" class="st5" x1="282.7" y1="180.9" x2="299.4" y2="164.2"/>
			<line id="XMLID_855_" class="st5" x1="195.2" y1="180.9" x2="178.5" y2="164.2"/>
			<line id="XMLID_854_" class="st5" x1="294.5" y1="222.9" x2="319.5" y2="222.9"/>
			<line id="XMLID_853_" class="st5" x1="153.5" y1="222.9" x2="178.5" y2="222.9"/>
			<g id="XMLID_506_">
				<path id="XMLID_507_" class="st0" d="M234.8,240.9v-5.5c-2.8,0-5.8-1-7.6-2.4l1.1-2c1.7,1.3,4.3,2.3,6.9,2.3
					c4.3,0,7.1-2.8,7.1-6.4c0-3.5-2.3-5.6-6.2-7.4c-5.3-2.3-8.3-4.6-8.3-9c0-4.3,3-7.4,7.4-8.1v-5.5h2.2v5.5c3,0.1,5,1,6.4,1.9
					l-1.1,2c-1-0.6-3-1.8-6.2-1.8c-4.5,0-6.3,3-6.3,5.6c0,3.4,2,4.9,6.7,7c5,2.3,7.9,4.9,7.9,9.6c0,3.9-2.7,7.8-7.8,8.6v5.6
					L234.8,240.9L234.8,240.9z"/>
			</g>
			<path id="XMLID_509_" class="st0" d="M265.1,227.5c-4.3,11.5-15.4,19.6-28.4,19.6c-14.2,0-26.1-9.7-29.4-22.8"/>
			<path id="XMLID_510_" class="st0" d="M207.9,207.3c4-12.1,15.4-20.9,28.9-20.9c13.1,0,24.3,8.3,28.5,20"/>
			<polygon id="XMLID_511_" class="st1" points="205.3,197.6 206.2,215.1 218.1,203.7 			"/>
			<polygon id="XMLID_846_" class="st1" points="270.4,232 269.5,214.5 257.6,225.9 			"/>
		</g>
	</g>
	<g id="XMLID_512_">
		<polygon id="XMLID_513_" class="st6" points="173.6,447.9 217.8,371.3 262,447.9 		"/>
		<g id="XMLID_514_">
			<path id="XMLID_515_" class="st1" d="M212.8,429.7c0-2.7,1.8-4.5,4.3-4.5c2.7,0,4.3,1.8,4.4,4.5c0,2.6-1.7,4.5-4.4,4.5
				C214.5,434.2,212.7,432.3,212.8,429.7z M214.4,421.5l-1-26.9h7.5l-1,26.9H214.4z"/>
		</g>
	</g>
	<g id="XMLID_524_">
		<path id="XMLID_525_" class="st3" d="M248.8,93.9c3,0,6.3-0.6,8.6-1.5c0.5-0.2,1-0.1,1.4,0.3c1.5,1.7,3.5,2.8,5.6,3.3
			c-1.2-2.3-1.5-4.9-0.8-7.4c0.1-0.2,0.2-0.4,0.3-0.5c2.8-2.9,4.4-6.6,4.4-10.5c0-8.8-8.9-16.3-19.5-16.3c-10,0-18.8,6.9-18.8,16.3
			C230,86.7,238.4,93.9,248.8,93.9z"/>
		<path id="XMLID_526_" class="st1" d="M212.2,69.9c-0.1-0.2-0.2-0.4-0.3-0.5c-2.8-2.9-4.4-6.6-4.4-10.5c0-8.8,8.9-16.3,19.5-16.3
			c9.9,0,18,6.6,18.7,15c-0.8,0-1.6,0.1-2.4,0.3c0,0,0,0-0.1,0c-2.4,0.4-4.7,1.1-6.8,2.2h-0.1c-3.1,1.6-6.1,4.1-8.3,7.9
			c-1.3,2.2-2,4.6-2.2,7.1c-2.6-0.1-5.4-0.7-7.4-1.5c-0.5-0.2-1-0.1-1.4,0.3c-1.5,1.7-3.5,2.8-5.6,3.3
			C212.6,75.1,212.9,72.4,212.2,69.9z"/>
	</g>
	<g id="XMLID_527_">
		<path id="XMLID_528_" class="st7" d="M107.5,194.5v-9.4c-4.8,0-9.9-1.6-12.9-4.1l1.8-3.4c2.9,2.3,7.2,3.9,11.8,3.9
			c7.2,0,12.1-4.7,12.1-10.9c0-5.9-3.9-9.5-10.6-12.5c-9-3.9-14.1-7.9-14.1-15.2c0-7.2,5.2-12.6,12.6-13.7v-9.3h3.7v9.3
			c5.1,0.2,8.5,1.7,10.9,3.3l-1.9,3.4c-1.7-1.1-5.2-3.1-10.5-3.1c-7.6,0-10.7,5.2-10.7,9.5c0,5.7,3.4,8.3,11.4,11.9
			c8.4,3.9,13.4,8.3,13.4,16.2c0,6.7-4.5,13.3-13.2,14.7v9.5L107.5,194.5L107.5,194.5z"/>
	</g>
</g>
</svg>
