<?xml version="1.0" encoding="utf-8"?>
<!-- Generator: Adobe Illustrator 19.0.0, SVG Export Plug-In . SVG Version: 6.00 Build 0)  -->
<svg version="1.1" id="Layer_1" xmlns="http://www.w3.org/2000/svg" xmlns:xlink="http://www.w3.org/1999/xlink" x="0px" y="0px"  height="400px" width="400px"
	 viewBox="0 0 500 500" style="enable-background:new 0 0 500 500;" xml:space="preserve">
<style type="text/css">
	.st0{fill:none;stroke:#C8C8C8;stroke-width:4;stroke-miterlimit:10;}
	.st1{fill:#FFFFFF;}
	.st2{fill:#FFFFFF;stroke:#005FAA;stroke-width:4;stroke-miterlimit:10;}
	.st3{fill:#C8C8C8;stroke:#C8C8C8;stroke-width:4.215;stroke-linecap:round;stroke-linejoin:round;stroke-miterlimit:10;}
	.st4{fill:#FFFFFF;stroke:#C8C8C8;stroke-width:4.215;stroke-linecap:round;stroke-linejoin:round;stroke-miterlimit:10;}
	.st5{fill:#FFFFFF;stroke:#C8C8C8;stroke-width:4;stroke-miterlimit:10;}
	.st6{fill:#C8C8C8;}
	.st7{fill:none;stroke:#A8CA16;stroke-width:4;stroke-miterlimit:10;}
	.st8{fill:none;stroke:#005FAA;stroke-width:4;stroke-miterlimit:10;}
	.st9{fill:#A8CA16;stroke:#005FAA;stroke-width:4;stroke-miterlimit:10;}
</style>
<g id="XMLID_801_">
	<g id="XMLID_222_">
		<path id="XMLID_223_" class="st0" d="M109.1,374.1c-37.3-37.3-57.9-86.9-57.9-139.8S71.7,132,109.1,94.6S196,36.8,248.7,36.8
			s102.4,20.5,139.7,57.8s57.8,86.9,57.8,139.7S425.7,336.7,388.4,374s-86.9,57.8-139.7,57.8S146.4,411.4,109.1,374.1z M85.2,234.3
			c0,90.1,73.3,163.5,163.5,163.5s163.5-73.3,163.5-163.5S338.9,70.8,248.7,70.8S85.2,144.2,85.2,234.3z"/>
	</g>
	<polygon id="XMLID_886_" class="st1" points="7,287.7 151.5,304.3 119.3,174.7 52,143.2 	"/>
	<polygon id="XMLID_885_" class="st1" points="358.6,323.8 433.6,363 484.8,182.8 362.3,182.8 	"/>
	<g id="XMLID_224_">
		<path id="XMLID_225_" class="st2" d="M378.1,425.5l-36.3-36.9c-1.8-1.8-1.7-4.7,0-6.4l0,0c1.8-1.8,4.7-1.7,6.4,0l36.3,36.9
			c1.8,1.8,1.7,4.7,0,6.4l0,0C382.7,427.3,379.9,427.3,378.1,425.5z"/>
		<circle id="XMLID_226_" class="st2" cx="342.9" cy="382.8" r="28.1"/>
	</g>
	<g id="XMLID_227_">
		<rect id="XMLID_228_" x="196" y="169.7" class="st2" width="85.3" height="114.1"/>
		<polygon id="XMLID_229_" class="st3" points="296.4,298.9 211.1,298.9 211.1,184.8 271.5,184.8 296.4,209.8 		"/>
		<polygon id="XMLID_230_" class="st4" points="271.5,209.8 296.4,209.8 271.5,184.8 		"/>
		<rect id="XMLID_231_" x="220.1" y="216.5" class="st1" width="68" height="6.8"/>
		<rect id="XMLID_232_" x="220.1" y="233.4" class="st1" width="68" height="6.8"/>
		<rect id="XMLID_233_" x="220.1" y="250.3" class="st1" width="68" height="6.8"/>
		<rect id="XMLID_234_" x="220.1" y="267.2" class="st1" width="68" height="6.8"/>
		<rect id="XMLID_235_" x="220.1" y="284.2" class="st1" width="68" height="6.8"/>
	</g>
	<polyline id="XMLID_872_" class="st5" points="77.5,138.6 55.8,127.1 72.4,184.1 128.3,164.5 105.5,153.1 	"/>
	<polyline id="XMLID_871_" class="st5" points="407.4,349.3 431.5,361.3 414.8,304.3 359,323.9 379.4,334.5 	"/>
	<g id="XMLID_270_">
		<line id="XMLID_271_" class="st0" x1="438.2" y1="84.3" x2="438.2" y2="103.4"/>
		<line id="XMLID_869_" class="st0" x1="447.8" y1="93.9" x2="428.7" y2="93.9"/>
	</g>
	<g id="XMLID_272_">
		<line id="XMLID_273_" class="st0" x1="340.4" y1="453.8" x2="340.4" y2="473"/>
		<line id="XMLID_866_" class="st0" x1="349.9" y1="463.4" x2="330.8" y2="463.4"/>
	</g>
	<g id="XMLID_274_">
		<line id="XMLID_275_" class="st0" x1="26.4" y1="31.5" x2="26.4" y2="50.6"/>
		<line id="XMLID_863_" class="st0" x1="36" y1="41" x2="16.8" y2="41"/>
	</g>
	<g id="XMLID_278_">
		<path id="XMLID_15_" class="st6" d="M40,347.9c0.5-1.6,1.3-1.6,1.9,0l0.5,1.7c0.5,1.6,2.3,2.9,3.9,2.9H48c1.7,0,1.9,0.8,0.6,1.8
			l-1.4,1c-1.3,1-2,3-1.5,4.6l0.5,1.7c0.5,1.6-0.2,2.1-1.5,1.1l-1.4-1c-1.3-1-3.5-1-4.9,0l-1.4,1c-1.3,1-2,0.5-1.5-1.1l0.5-1.7
			c0.5-1.6-0.2-3.6-1.5-4.6l-1.4-1c-1.3-1-1.1-1.8,0.6-1.8h1.7c1.6,0,3.4-1.3,3.9-2.9L40,347.9z"/>
	</g>
	<g id="XMLID_281_">
		<path id="XMLID_11_" class="st6" d="M475.5,404.2c0.5-1.6,1.3-1.6,1.9,0l0.5,1.7c0.5,1.6,2.3,2.9,3.9,2.9h1.7
			c1.6,0,1.9,0.8,0.6,1.8l-1.4,1c-1.3,1-2,3-1.5,4.6l0.5,1.7c0.5,1.6-0.2,2.1-1.5,1.1l-1.4-1c-1.3-1-3.5-1-4.9,0l-1.4,1
			c-1.3,1-2,0.5-1.5-1.1l0.5-1.7c0.5-1.6-0.2-3.6-1.5-4.6l-1.4-1c-1.3-1-1.1-1.8,0.6-1.8h1.7c1.7,0,3.4-1.3,3.9-2.9L475.5,404.2z"/>
	</g>
	<g id="XMLID_335_">
		<g id="XMLID_336_">
			<path id="XMLID_337_" class="st7" d="M352.2,261.8l8.6,42.1l18.5-3.4l-0.7-4.1c0,0,6.5-6.6,13.7-6.5s23.2,3,32.8,2.2
				c9.6-0.8,14.7-4.7,20.6-9.3s33.1-33.4,33.1-33.4s-3.1-5-10.4-2.9c-7.2,2.1-20.9,14.2-20.9,14.2s-6.3-6.2-16.4-4.4
				c-10.1,1.8-18,3.7-20.9,3.4s-12.4-5.6-23.8-1.6c-11.4,4-13.1,7.7-13.1,7.7l-1.4-7.9L352.2,261.8z"/>
			<line id="XMLID_338_" class="st7" x1="373.6" y1="265.9" x2="378.8" y2="297"/>
			<path id="XMLID_339_" class="st7" d="M416.6,272.4l33.1-5c0,0,2-4.2-2.3-6.7"/>
		</g>
		<g id="XMLID_340_">
			<circle id="XMLID_341_" class="st7" cx="421.8" cy="220.2" r="29.8"/>
			<polyline id="XMLID_342_" class="st7" points="418.9,198.1 418.9,224.1 437.9,224.1 			"/>
		</g>
	</g>
	<g id="XMLID_360_">
		<path id="XMLID_361_" class="st2" d="M409.9,24V9.5c0-0.7-1.2-2.5-1.9-2.5h-39.2l-13.9,15.4V81c0,0.7,0.5,1,1.2,1h33.8"/>
		<polyline id="XMLID_362_" class="st8" points="354.9,22 369.9,22 369.9,7 		"/>
		<line id="XMLID_363_" class="st8" x1="375.9" y1="15" x2="402.9" y2="15"/>
		<rect id="XMLID_364_" x="394.9" y="29" class="st7" width="28" height="15"/>
		<rect id="XMLID_365_" x="394.9" y="49" class="st7" width="6" height="5"/>
		<rect id="XMLID_366_" x="416.9" y="49" class="st7" width="6" height="5"/>
		<rect id="XMLID_367_" x="405.9" y="49" class="st7" width="6" height="5"/>
		<rect id="XMLID_368_" x="394.9" y="60" class="st7" width="6" height="6"/>
		<rect id="XMLID_369_" x="416.9" y="60" class="st7" width="6" height="6"/>
		<rect id="XMLID_370_" x="405.9" y="60" class="st7" width="6" height="6"/>
		<rect id="XMLID_371_" x="394.9" y="70" class="st7" width="6" height="5"/>
		<rect id="XMLID_372_" x="416.9" y="70" class="st7" width="6" height="5"/>
		<rect id="XMLID_373_" x="405.9" y="70" class="st7" width="6" height="5"/>
		<line id="XMLID_374_" class="st8" x1="360.9" y1="59" x2="388.9" y2="59"/>
		<line id="XMLID_375_" class="st8" x1="360.9" y1="68" x2="388.9" y2="68"/>
		<line id="XMLID_376_" class="st8" x1="360.9" y1="76" x2="388.9" y2="76"/>
		<g id="XMLID_377_">
			<path id="XMLID_378_" class="st8" d="M369.1,52.9v-2.7c-1.4,0-2.8-0.5-3.7-1.2l0.5-1c0.8,0.6,2.1,1.1,3.4,1.1
				c2.1,0,3.5-1.4,3.5-3.1c0-1.7-1.1-2.7-3-3.6c-2.6-1.1-4.1-2.3-4.1-4.4c0-2.1,1.5-3.6,3.6-3.9v-2.7h1.1v2.7
				c1.5,0.1,2.4,0.5,3.1,0.9l-0.5,1c-0.5-0.3-1.5-0.9-3-0.9c-2.2,0-3.1,1.5-3.1,2.7c0,1.6,1,2.4,3.3,3.4c2.4,1.1,3.8,2.4,3.8,4.6
				c0,1.9-1.3,3.8-3.8,4.2v2.7h-1.1V52.9z"/>
		</g>
		<path id="XMLID_380_" class="st7" d="M429.9,80.7c0,0.7-0.6,1.3-1.3,1.3h-37.3c-0.7,0-1.3-0.6-1.3-1.3V25.3c0-0.7,0.6-1.3,1.3-1.3
			h37.3c0.7,0,1.3,0.6,1.3,1.3V80.7z"/>
	</g>
	<g id="XMLID_381_">
		<g id="XMLID_382_">
			<circle id="XMLID_383_" class="st0" cx="79.1" cy="228.9" r="13.5"/>
			<path id="XMLID_384_" class="st0" d="M86.8,239.8c11.4,3,11.9,16.1,11.9,16.1v6.2H79H58.7v-6.2c0,0,0.9-13.1,12.2-16.1"/>
		</g>
		<g id="XMLID_385_">
			<path id="XMLID_386_" class="st0" d="M82.3,215.8c2.3-4.1,6.7-6.9,11.8-6.9c7.4,0,13.5,6,13.5,13.5c0,7.5-6,13.5-13.5,13.5
				c-1.1,0-2.2-0.1-3.2-0.4"/>
			<path id="XMLID_387_" class="st0" d="M101.5,233c11.4,3,11.2,16.3,11.2,16.3v6.7h-14"/>
		</g>
		<g id="XMLID_388_">
			<path id="XMLID_389_" class="st0" d="M75.5,215.8c-2.3-4.1-6.7-6.9-11.8-6.9c-7.4,0-13.5,6-13.5,13.5c0,7.5,6,13.5,13.5,13.5
				c1.1,0,2.2-0.1,3.2-0.4"/>
			<path id="XMLID_390_" class="st0" d="M55.9,233c-11.4,3-11.2,16.3-11.2,16.3v6.7h14"/>
		</g>
	</g>
	<circle id="XMLID_391_" class="st7" cx="79" cy="238.4" r="46.5"/>
	<g id="XMLID_392_">
		<circle id="XMLID_393_" class="st9" cx="172.4" cy="95.7" r="24.7"/>
		<g id="XMLID_394_">
			<circle id="XMLID_395_" class="st2" cx="172.4" cy="95.7" r="12.1"/>
			<line id="XMLID_396_" class="st8" x1="172.8" y1="57" x2="172.8" y2="71"/>
			<line id="XMLID_397_" class="st8" x1="172.8" y1="120.1" x2="172.8" y2="135.1"/>
			<line id="XMLID_811_" class="st8" x1="211.8" y1="96" x2="196.8" y2="96"/>
			<line id="XMLID_810_" class="st8" x1="147.8" y1="96" x2="133.8" y2="96"/>
		</g>
	</g>
	<circle id="XMLID_398_" class="st2" cx="167.6" cy="410.8" r="31.6"/>
	<g id="XMLID_399_">
		<path id="XMLID_400_" class="st8" d="M165.9,427v-4.6c-2.3,0-4.8-0.8-6.2-2l0.9-1.6c1.4,1.1,3.5,1.9,5.7,1.9
			c3.5,0,5.9-2.3,5.9-5.3c0-2.9-1.9-4.6-5.1-6.1c-4.4-1.9-6.9-3.8-6.9-7.4c0-3.5,2.5-6.1,6.1-6.6v-4.6h1.8v4.5
			c2.5,0.1,4.1,0.8,5.3,1.6l-0.9,1.6c-0.8-0.5-2.5-1.5-5.1-1.5c-3.7,0-5.2,2.5-5.2,4.6c0,2.8,1.7,4,5.5,5.8c4.1,1.9,6.5,4,6.5,7.9
			c0,3.3-2.2,6.5-6.4,7.1v4.6h-1.9V427z"/>
	</g>
</g>
</svg>
