<?xml version="1.0" encoding="utf-8"?>
<!-- Generator: Adobe Illustrator 19.0.0, SVG Export Plug-In . SVG Version: 6.00 Build 0)  -->
<svg version="1.1" id="Layer_1" xmlns="http://www.w3.org/2000/svg" xmlns:xlink="http://www.w3.org/1999/xlink" x="0px" y="0px"  height="400px" width="400px"
	 viewBox="0 0 500 500" style="enable-background:new 0 0 500 500;" xml:space="preserve">
<style type="text/css">
	.st0{fill:none;stroke:#C8C8C8;stroke-width:4;stroke-miterlimit:10;}
	.st1{fill:#C8C8C8;}
	.st2{fill:#FFFFFF;}
	.st3{fill:#FFFFFF;stroke:#C8C8C8;stroke-width:4;stroke-miterlimit:10;}
	.st4{fill:none;stroke:#005FAA;stroke-width:4;stroke-miterlimit:10;}
	.st5{fill:#FFFFFF;stroke:#005FAA;stroke-width:4;stroke-miterlimit:10;}
	.st6{fill:#A8CA16;stroke:#005FAA;stroke-width:4;stroke-miterlimit:10;}
</style>
<g id="XMLID_857_">
	<g id="XMLID_574_">
		<line id="XMLID_575_" class="st0" x1="24.3" y1="23.9" x2="24.3" y2="43.4"/>
		<line id="XMLID_920_" class="st0" x1="34.1" y1="33.7" x2="14.6" y2="33.7"/>
	</g>
	<g id="XMLID_576_">
		<line id="XMLID_577_" class="st0" x1="296.4" y1="352.3" x2="296.4" y2="371.8"/>
		<line id="XMLID_917_" class="st0" x1="306.2" y1="362" x2="286.7" y2="362"/>
	</g>
	<g id="XMLID_578_">
		<line id="XMLID_579_" class="st0" x1="447.2" y1="45.3" x2="447.2" y2="64.8"/>
		<line id="XMLID_914_" class="st0" x1="456.9" y1="55.1" x2="437.4" y2="55.1"/>
	</g>
	<g id="XMLID_582_">
		<path id="XMLID_17_" class="st1" d="M413.7,439.9c0.5-1.6,1.3-1.6,1.9,0l0.6,1.8c0.5,1.6,2.3,2.9,3.9,2.9h1.9
			c1.6,0,1.9,0.8,0.6,1.8l-1.5,1.1c-1.3,1-2,3-1.5,4.6l0.6,1.8c0.5,1.6-0.2,2.1-1.5,1.1l-1.5-1.1c-1.3-1-3.5-1-4.9,0l-1.5,1.1
			c-1.3,1-2,0.5-1.5-1.1l0.6-1.8c0.5-1.6-0.2-3.6-1.5-4.6l-1.5-1.1c-1.3-1-1.1-1.8,0.6-1.8h1.9c1.7,0,3.4-1.3,3.9-2.9L413.7,439.9z"
			/>
	</g>
	<g id="XMLID_585_">
		<path id="XMLID_13_" class="st1" d="M343.8,7.2c0.5-1.6,1.3-1.6,1.9,0l0.6,1.8c0.5,1.6,2.3,2.9,3.9,2.9h1.9c1.6,0,1.9,0.8,0.6,1.8
			l-1.5,1.1c-1.3,1-2,3-1.5,4.6l0.6,1.8c0.5,1.6-0.2,2.1-1.5,1.1l-1.5-1.1c-1.3-1-3.5-1-4.9,0l-1.5,1.1c-1.3,1-2,0.5-1.5-1.1
			l0.6-1.8c0.5-1.6-0.2-3.6-1.5-4.6l-1.5-1.1c-1.3-1-1.1-1.8,0.6-1.8h1.9c1.6,0,3.4-1.3,3.9-2.9L343.8,7.2z"/>
	</g>
	<g id="XMLID_588_">
		<path id="XMLID_12_" class="st1" d="M13.6,399.1c0.5-1.6,1.3-1.6,1.9,0l0.6,1.8c0.5,1.6,2.3,2.9,3.9,2.9h1.9
			c1.7,0,1.9,0.8,0.6,1.8l-1.5,1.1c-1.3,1-2,3-1.5,4.6l0.6,1.8c0.5,1.6-0.2,2.1-1.5,1.1l-1.5-1.1c-1.3-1-3.5-1-4.9,0l-1.5,1.1
			c-1.3,1-2,0.5-1.5-1.1l0.6-1.8c0.5-1.6-0.2-3.6-1.5-4.6l-1.5-1.1c-1.3-1-1.1-1.8,0.6-1.8h1.9c1.7,0,3.4-1.3,3.9-2.9L13.6,399.1z"
			/>
	</g>
	<g id="XMLID_589_">
		<g id="XMLID_590_">
			<path id="XMLID_591_" class="st0" d="M93.1,108.7c38-38,88.6-59,142.4-59s104.4,20.9,142.4,59s59,88.6,59,142.4
				s-20.9,104.4-59,142.4s-88.6,59-142.4,59s-104.4-20.9-142.4-59s-59-88.6-59-142.4S55,146.7,93.1,108.7z M235.5,84.4
				c-91.9,0-166.6,74.8-166.6,166.6s74.7,166.7,166.6,166.7s166.6-74.8,166.6-166.6S327.3,84.4,235.5,84.4z"/>
		</g>
		<polygon id="XMLID_895_" class="st2" points="170.1,14.7 178.8,151.5 296.2,119.1 328.3,50.6 		"/>
		<polygon id="XMLID_894_" class="st2" points="144.3,363 104.4,439.4 279.8,491.5 279.8,366.5 		"/>
		<polyline id="XMLID_893_" class="st3" points="333.6,76.3 344.8,54.4 286.7,71.4 306.7,128.3 318.7,105.3 		"/>
		<polyline id="XMLID_892_" class="st3" points="118.4,413.5 106.1,437.3 164.2,420.3 144.2,363.4 133.1,384.4 		"/>
	</g>
	<circle id="XMLID_592_" class="st0" cx="231.8" cy="69.5" r="47.4"/>
	<g id="XMLID_593_">
		<path id="XMLID_594_" class="st4" d="M251.2,319.3c-7.8,2.6-16.1,4-24.8,4c-43.1,0-78.1-34.9-78.1-78.1c0-11.2,2.4-21.8,6.6-31.5"
			/>
		<path id="XMLID_595_" class="st4" d="M201.1,171.4c7.9-2.7,16.4-4.2,25.3-4.2c43.1,0,78.1,34.9,78.1,78.1c0,6.8-0.9,13.5-2.5,19.8
			"/>
		<polygon id="XMLID_596_" class="st4" points="282.4,302.6 280.8,254.9 320.1,276 		"/>
		<polygon id="XMLID_886_" class="st4" points="181.4,183 168.9,229 137.6,197.3 		"/>
	</g>
	<g id="XMLID_597_">
		<path id="XMLID_598_" class="st1" d="M226.1,285.6V274c-5.9,0-12.2-2-15.9-5l2.2-4.1c3.6,2.8,8.9,4.8,14.5,4.8
			c8.9,0,14.9-5.8,14.9-13.4c0-7.3-4.8-11.7-13.1-15.4c-11.1-4.8-17.4-9.7-17.4-18.8c0-8.9,6.4-15.5,15.5-16.9v-11.6h4.6v11.5
			c6.3,0.2,10.5,2.1,13.4,4l-2.3,4.1c-2.1-1.3-6.4-3.8-13-3.8c-9.4,0-13.2,6.4-13.2,11.7c0,7,4.2,10.3,14.1,14.6
			c10.4,4.8,16.5,10.3,16.5,20c0,8.3-5.6,16.4-16.3,18.1v11.7h-4.5V285.6z"/>
	</g>
	<g id="XMLID_600_">
		<path id="XMLID_601_" class="st5" d="M453.2,263.3c2.3,5.3,3.6,11.2,3.6,17.4c0,24.1-19.6,43.7-43.7,43.7s-43.7-19.6-43.7-43.7
			S389,237,413.1,237c5.4,0,10.5,1,15.3,2.8"/>
		<path id="XMLID_602_" class="st5" d="M438.9,267.5c2,3.9,3.2,8.4,3.2,13.2c0,16-13,28.9-28.9,28.9c-16,0-28.9-13-28.9-28.9
			c0-16,13-28.9,28.9-28.9c4.2,0,8.2,0.9,11.9,2.5"/>
		<polyline id="XMLID_603_" class="st5" points="431.4,262.1 430.5,246.4 452.4,226.3 455.1,238 		"/>
		<polyline id="XMLID_878_" class="st5" points="431.4,262.1 447.1,262.8 467,240.8 455.3,238.1 		"/>
		<circle id="XMLID_604_" class="st6" cx="413.1" cy="280.7" r="12.8"/>
		<line id="XMLID_605_" class="st4" x1="413.1" y1="280.7" x2="455.1" y2="238"/>
	</g>
	<g id="XMLID_606_">
		<g id="XMLID_607_">
			<path id="XMLID_608_" class="st1" d="M225.5,91.8c0-3.8,2.6-6.5,6.2-6.5c3.8,0,6.2,2.7,6.3,6.5c0,3.7-2.5,6.5-6.3,6.5
				C228,98.3,225.4,95.6,225.5,91.8z M227.8,80.1l-1.5-38.7h10.8l-1.5,38.7H227.8z"/>
		</g>
	</g>
	<path id="XMLID_611_" class="st4" d="M217.9,471.2c-40.2-40.2-40.4-81.1-40.4-81.1l40.4-18.3l40.4,18.3
		C258.3,390.1,256.7,432.4,217.9,471.2z"/>
	<polyline id="XMLID_612_" class="st4" points="199.8,419.6 210.2,434.7 240.7,399.9 	"/>
	<g id="XMLID_616_">
		<g id="XMLID_617_">
			<path id="XMLID_618_" class="st5" d="M10.5,187.8l5.4,26.2l11.5-2.1l-0.4-2.5c0,0,4-4.1,8.5-4s14.4,1.9,20.4,1.3
				c6-0.5,9.1-2.9,12.8-5.8c3.7-2.8,20.6-20.8,20.6-20.8s-1.9-3.1-6.5-1.8c-4.5,1.3-13,8.9-13,8.9s-3.9-3.9-10.2-2.7
				c-6.3,1.1-11.2,2.3-13,2.1s-7.7-3.5-14.8-1s-8.2,4.8-8.2,4.8l-0.9-4.9L10.5,187.8z"/>
			<line id="XMLID_619_" class="st4" x1="23.7" y1="190.3" x2="27" y2="209.7"/>
			<path id="XMLID_620_" class="st5" d="M50.5,194.4l20.6-3.1c0,0,1.2-2.6-1.4-4.1"/>
		</g>
		<g id="XMLID_621_">
			<circle id="XMLID_622_" class="st6" cx="53.8" cy="161.9" r="18.5"/>
			<polyline id="XMLID_623_" class="st4" points="52.6,147.9 52.6,164.9 63.6,164.9 			"/>
		</g>
	</g>
</g>
</svg>
