<?xml version="1.0" encoding="utf-8"?>
<!-- Generator: Adobe Illustrator 19.0.0, SVG Export Plug-In . SVG Version: 6.00 Build 0)  -->
<svg version="1.1" id="Layer_1" xmlns="http://www.w3.org/2000/svg" xmlns:xlink="http://www.w3.org/1999/xlink" x="0px" y="0px" height="400px" width="400px"
	 viewBox="0 0 500 500" style="enable-background:new 0 0 500 500;" xml:space="preserve">
<style type="text/css">
	.st0{fill:none;stroke:#C8C8C8;stroke-width:4;stroke-miterlimit:10;}
	.st1{fill:#FFFFFF;}
	.st2{fill:#FFFFFF;stroke:#C8C8C8;stroke-width:4;stroke-miterlimit:10;}
	.st3{fill:#C8C8C8;}
	.st4{fill:none;stroke:#A8CA16;stroke-width:4;stroke-miterlimit:10;}
	.st5{fill:none;stroke:#005FAA;stroke-width:4;stroke-miterlimit:10;}
	.st6{fill:#005FAA;}
	.st7{fill:#A8CA16;stroke:#005FAA;stroke-width:4;stroke-miterlimit:10;}
	.st8{fill:#FFFFFF;stroke:#A8CA16;stroke-width:4;stroke-miterlimit:10;}
</style>
<g id="XMLID_815_">
	<g id="XMLID_402_">
		<path id="XMLID_403_" class="st0" d="M110.8,377.4C72.5,339.1,51.4,288.2,51.4,234s21.1-105.1,59.4-143.4S200,31.3,254.2,31.3
			s105.1,21.1,143.4,59.4s59.4,89.2,59.4,143.4s-21.1,105.1-59.4,143.4s-89.2,59.4-143.4,59.4S149.2,415.7,110.8,377.4z M86.4,234
			c0,92.5,75.3,167.8,167.8,167.8S422.1,326.6,422.1,234S346.8,66.2,254.3,66.2S86.4,141.5,86.4,234z"/>
	</g>
	<polygon id="XMLID_883_" class="st1" points="6.1,288.8 154.4,305.7 121.3,172.9 52.3,140.6 	"/>
	<polygon id="XMLID_882_" class="st1" points="366.9,325.8 443.8,366 496.5,181.2 370.7,181.2 	"/>
	<polyline id="XMLID_881_" class="st2" points="78.5,135.8 56.2,123.9 73.2,182.5 130.6,162.3 107.1,150.7 	"/>
	<polyline id="XMLID_880_" class="st2" points="417.1,352 441.7,364.2 424.7,305.7 367.3,325.8 388.3,336.8 	"/>
	<g id="XMLID_404_">
		<line id="XMLID_405_" class="st0" x1="448.6" y1="80" x2="448.6" y2="99.7"/>
		<line id="XMLID_878_" class="st0" x1="458.5" y1="89.9" x2="438.8" y2="89.9"/>
	</g>
	<g id="XMLID_406_">
		<line id="XMLID_407_" class="st0" x1="348.2" y1="459.3" x2="348.2" y2="479"/>
		<line id="XMLID_875_" class="st0" x1="358" y1="469.1" x2="338.3" y2="469.1"/>
	</g>
	<g id="XMLID_408_">
		<line id="XMLID_409_" class="st0" x1="26" y1="25.9" x2="26" y2="45.6"/>
		<line id="XMLID_872_" class="st0" x1="35.8" y1="35.7" x2="16.2" y2="35.7"/>
	</g>
	<g id="XMLID_412_">
		<path id="XMLID_15_" class="st3" d="M40,350.5c0.5-1.6,1.3-1.6,1.9,0l0.6,1.7c0.5,1.6,2.3,3,4,3h1.8c1.6,0,1.9,0.8,0.6,1.8
			l-1.5,1.1c-1.3,1-2,3.1-1.5,4.7l0.6,1.7c0.5,1.6-0.2,2.1-1.5,1.1l-1.5-1.1c-1.3-1-3.6-1-5,0l-1.5,1.1c-1.3,1-2,0.5-1.5-1.1
			l0.6-1.7c0.5-1.6-0.2-3.7-1.5-4.7l-1.5-1.1c-1.3-1-1.1-1.8,0.6-1.8h1.8c1.6,0,3.5-1.3,4-3L40,350.5z"/>
	</g>
	<g id="XMLID_415_">
		<path id="XMLID_11_" class="st3" d="M487,408.3c0.5-1.6,1.3-1.6,1.9,0l0.6,1.7c0.5,1.6,2.3,3,4,3h1.8c1.6,0,1.9,0.8,0.6,1.8
			l-1.5,1.1c-1.3,1-2,3.1-1.5,4.7l0.6,1.7c0.5,1.6-0.2,2.1-1.5,1.1l-1.5-1.1c-1.3-1-3.6-1-5,0l-1.5,1.1c-1.3,1-2,0.5-1.5-1.1
			l0.6-1.7c0.5-1.6-0.2-3.7-1.5-4.7l-1.5-1.1c-1.3-1-1.1-1.8,0.6-1.8h1.8c1.6,0,3.5-1.3,4-3L487,408.3z"/>
	</g>
	<circle id="XMLID_416_" class="st4" cx="80" cy="238.4" r="47.8"/>
	<g id="XMLID_418_">
		<g id="XMLID_419_">
			<path id="XMLID_420_" class="st0" d="M271,245.9c-7.8,7.4-18.3,12-29.8,12c-23.8,0-43.1-19.3-43.1-43.1s19.3-43.1,43.1-43.1
				c11.7,0,22.4,4.7,30.2,12.3"/>
			<circle id="XMLID_421_" class="st5" cx="180.7" cy="214.7" r="17.3"/>
		</g>
		<g id="XMLID_422_">
			<path id="XMLID_860_" class="st0" d="M231.6,226.7c7.8-7.4,18.3-12,29.8-12c23.8,0,43.1,19.3,43.1,43.1s-19.3,43.1-43.1,43.1
				c-11.7,0-22.4-4.7-30.2-12.3"/>
			<circle id="XMLID_859_" class="st5" cx="321.9" cy="257.8" r="17.3"/>
		</g>
	</g>
	<g id="XMLID_423_">
		<rect id="XMLID_424_" x="106.3" y="217.7" class="st0" width="10.5" height="32.1"/>
		<rect id="XMLID_425_" x="43.7" y="217.7" class="st0" width="10.5" height="32.1"/>
		<path id="XMLID_426_" class="st0" d="M106.3,222.7c0,0-7.4,0.5-12.1-1.5c-4.7-2-12.4-5.2-19,0c-6.5,5.2-9.8,9.5-7.9,12.6
			c2,3.1,4.2,4,7.3,1.6c3.2-2.3,7-5.9,7-5.9l20.6,22.7c0,0,3.4,6.1-3,7c0,0,0.1,3.1-2.3,4.2s-3.7,0.6-5.6-0.7c0,0-1.5,5.6-7.9,1.8
			c0,0-4.6,3.5-9.3,0.1c-4.7-3.4-20.1-17.1-20.1-17.1"/>
		<line id="XMLID_427_" class="st0" x1="74.5" y1="256.4" x2="83.6" y2="264.5"/>
		<line id="XMLID_428_" class="st0" x1="80.3" y1="252.9" x2="91.4" y2="262.7"/>
		<line id="XMLID_429_" class="st0" x1="84.7" y1="246.7" x2="99.4" y2="259.2"/>
		<path id="XMLID_430_" class="st0" d="M106.3,246.7c0,0-2.3,4.3-4.8,4.6"/>
		<line id="XMLID_431_" class="st0" x1="54.2" y1="222.2" x2="74.5" y2="222.2"/>
	</g>
	<g id="XMLID_432_">
		<path id="XMLID_433_" class="st5" d="M403.2,272.7h-15.3c0,0,0,2.3,0,7.9c0,5.6,2.7,8.3,8.3,8.3c6.7,0,7-8.9,7-8.9s0-63.1,0-72.2
			s5.4-10.5,5.4-10.5H468c0,0,0.6,0.3,1.4,0.4c2.9,0.3,9.2,0.2,9.2,7.8c0,9.2,0,8.3,0,8.3h-15.3v-7.9c0,0,0.2-7.8,7.3-7.8"/>
		<g id="XMLID_434_">
			<path id="XMLID_435_" class="st6" d="M414.8,234.1v-3.4c-1.9,0-4-0.6-5.1-1.4l0.8-2.2c1.2,0.8,3,1.4,4.8,1.4c2.3,0,4-1.3,4-3.3
				c0-1.8-1.3-3-3.8-4c-3.4-1.3-5.5-2.9-5.5-5.8c0-2.8,1.9-4.9,5-5.4v-3.4h2v3.3c2,0.1,3.4,0.6,4.4,1.1l-0.8,2.2
				c-0.7-0.4-2-1.1-4.2-1.1c-2.6,0-3.6,1.5-3.6,2.9c0,1.7,1.2,2.7,4.2,3.8c3.5,1.4,5.2,3.2,5.2,6.1c0,2.7-1.8,5.1-5.3,5.7v3.5H414.8
				z"/>
		</g>
		<line id="XMLID_437_" class="st5" x1="428.7" y1="207.4" x2="455.3" y2="207.4"/>
		<line id="XMLID_438_" class="st5" x1="428.7" y1="218.6" x2="455.3" y2="218.6"/>
		<line id="XMLID_439_" class="st5" x1="428.7" y1="230.9" x2="453.2" y2="230.9"/>
		<line id="XMLID_440_" class="st5" x1="410.4" y1="243.1" x2="447.1" y2="243.1"/>
		<line id="XMLID_441_" class="st5" x1="410.4" y1="255.3" x2="453.2" y2="255.3"/>
		<line id="XMLID_442_" class="st5" x1="410.4" y1="267.6" x2="455.3" y2="267.6"/>
		<line id="XMLID_443_" class="st5" x1="410.4" y1="279.8" x2="455.3" y2="279.8"/>
		<circle id="XMLID_444_" class="st5" cx="463.4" cy="243.3" r="16.1"/>
		<polyline id="XMLID_445_" class="st5" points="455,245.9 459.3,249.9 472.2,236.1 		"/>
		<line id="XMLID_446_" class="st5" x1="463.4" y1="213.5" x2="463.4" y2="226.8"/>
		<path id="XMLID_447_" class="st5" d="M463.4,259.4v19.7c0,0-0.4,9.9-8.5,9.9c-8.1,0-59.9,0-59.9,0"/>
	</g>
	<path id="XMLID_464_" class="st7" d="M388.6,33.6l-8.1-1.1c-0.5-1.9-1.3-3.8-2.2-5.4l5-6.4c0.3-0.4,0.3-1-0.1-1.3l-5.7-5.7
		c-0.4-0.4-0.9-0.4-1.3-0.1l-6.4,5c-1.7-1-3.6-1.7-5.4-2.2l-1.1-8.1c-0.1-0.5-0.5-0.9-1-0.9H354c-0.5,0-0.9,0.4-1,0.9l-1.1,8.1
		c-1.9,0.5-3.8,1.3-5.4,2.2l-6.5-5c-0.4-0.3-1-0.3-1.3,0.1l-5.7,5.7c-0.4,0.4-0.4,0.9-0.1,1.3l5,6.4c-1,1.7-1.7,3.6-2.2,5.4
		l-8.1,1.1c-0.5,0.1-0.9,0.5-0.9,1v8.2c0,0.5,0.4,0.9,0.9,1l8.1,1.1c0.5,1.9,1.3,3.8,2.2,5.4l-5,6.4c-0.3,0.4-0.3,1,0.1,1.3l5.7,5.7
		c0.2,0.2,0.4,0.3,0.7,0.3c0.2,0,0.4-0.1,0.6-0.2l6.4-5c1.7,1,3.6,1.7,5.4,2.2l1.1,8.1c0.1,0.5,0.5,0.9,1,0.9h8.2
		c0.5,0,0.9-0.4,1-0.9l1.1-8.1c1.9-0.5,3.8-1.3,5.4-2.2l6.4,5c0.2,0.1,0.4,0.2,0.6,0.2c0.3,0,0.5-0.1,0.7-0.3l5.7-5.7
		c0.4-0.4,0.4-0.9,0.1-1.3l-5-6.4c1-1.7,1.7-3.6,2.2-5.4l8.1-1.1c0.5-0.1,0.9-0.5,0.9-1v-8.2C389.6,34.1,389.1,33.7,388.6,33.6z
		 M357.5,50.9c-6.4,0-11.6-5.2-11.6-11.6s5.2-11.6,11.6-11.6c6.4,0,11.6,5.2,11.6,11.6S363.9,50.9,357.5,50.9z"/>
	<path id="XMLID_474_" class="st8" d="M151.4,378.8c-4.2,0-8.9-0.8-12-2c-0.7-0.3-1.4-0.1-1.9,0.4c-2.1,2.3-4.9,3.9-7.9,4.7
		c1.6-3.2,2-6.8,1-10.4c-0.1-0.3-0.2-0.5-0.4-0.7c-4-4.1-6.1-9.3-6.1-14.7c0-12.3,12.6-22.8,27.3-22.8c14,0,26.3,9.7,26.3,22.8
		C177.7,368.6,165.9,378.8,151.4,378.8z"/>
	<g id="XMLID_475_">
		<line id="XMLID_476_" class="st5" x1="151.2" y1="339" x2="151.2" y2="366.6"/>
		<line id="XMLID_477_" class="st5" x1="151.2" y1="368.6" x2="151.2" y2="373.7"/>
	</g>
	<g id="XMLID_478_">
		<path id="XMLID_479_" class="st7" d="M273.7,419.4c3.1,0.3,6.8-2.4,7.6-6.5c0.5-3.2-1.1-6.8-4.3-8.3c-4.6-2.1-9.6,0.3-10.9,5
			c-1.2,4.4,1.5,8.9,6.2,9.8C272.7,419.5,273.1,419.4,273.7,419.4"/>
		<path id="XMLID_480_" class="st7" d="M304.9,419.4c3.9,0.2,7-3.4,7.6-6.3c0.7-3.8-1.6-8.3-6.1-9.1c-4.7-0.9-8.5,2-9.3,6.2
			c-0.8,4.1,1.9,8.3,6.4,9.2C303.9,419.5,304.5,419.3,304.9,419.4"/>
		<path id="XMLID_481_" class="st7" d="M336.1,419.4c3.7,0.2,7.9-3,7.8-7.9c0-4.3-3.6-7.8-7.8-7.8c-4.8,0-8.1,4.1-7.9,8.2
			C328.4,416,332.2,419.7,336.1,419.4"/>
		<path id="XMLID_482_" class="st5" d="M336.1,397.5c0-3.6,0-7.1,0-10.8c0-2.1-0.4-2.3-2.3-2.3c-19.3,0-38.6,0-57.9,0
			c-2,0-2.3,0.4-2.3,2.3c0,3.6,0,7.1,0,10.8"/>
		<path id="XMLID_483_" class="st5" d="M304.8,371c0,0.3,0,0.6,0,0.9c0,8.5,0,16.9,0,25.5"/>
		<path id="XMLID_484_" class="st7" d="M294.7,349.1c-1.4,0.4-1.6,0.6-1.6,2.1c0,3.8,0,7.7,0,11.4c0,1.8,0.3,2,2,2
			c6.4,0,12.9,0,19.3,0c1.8,0,2-0.3,2-2c0.1-3.8,0-7.6,0-11.3c0-1.8-0.3-2.1-2.1-2.1C307.8,349.1,301.3,349.1,294.7,349.1"/>
	</g>
</g>
</svg>
