<?xml version="1.0" encoding="utf-8"?>
<!-- Generator: Adobe Illustrator 19.0.0, SVG Export Plug-In . SVG Version: 6.00 Build 0)  -->
<svg version="1.1" id="Layer_1" xmlns="http://www.w3.org/2000/svg" xmlns:xlink="http://www.w3.org/1999/xlink" x="0px" y="0px"  height="400px" width="400px"
	 viewBox="0 0 500 500" style="enable-background:new 0 0 500 500;" xml:space="preserve">
<style type="text/css">
	.st0{fill:none;stroke:#C8C8C8;stroke-width:4;stroke-miterlimit:10;}
	.st1{fill:none;stroke:#005FAA;stroke-width:4;stroke-miterlimit:10;}
	.st2{fill:#C8C8C8;}
	.st3{fill:#FFFFFF;}
	.st4{fill:#FFFFFF;stroke:#C8C8C8;stroke-width:4;stroke-miterlimit:10;}
	.st5{fill:none;stroke:#A8CA16;stroke-width:4;stroke-miterlimit:10;}
	.st6{fill:#A8CA16;}
	.st7{fill:#FFFFFF;stroke:#005FAA;stroke-width:4;stroke-miterlimit:10;}
	.st8{fill:#A8CA16;stroke:#005FAA;stroke-width:4;stroke-miterlimit:10;}
</style>
<g id="XMLID_843_">
	<g id="XMLID_467_">
		<path id="XMLID_468_" class="st0" d="M306.5,249.5l-12.5-1.6c-0.8-3-2-5.8-3.5-8.4l7.6-10c0.5-0.6,0.4-1.5-0.1-2l-8.9-8.9
			c-0.5-0.5-1.4-0.6-2-0.1l-10,7.6c-2.6-1.5-5.5-2.6-8.4-3.5l-1.6-12.5c-0.1-0.8-0.8-1.3-1.5-1.3H253c-0.8,0-1.4,0.6-1.5,1.3
			l-1.6,12.5c-3,0.8-5.8,2-8.4,3.5l-10-7.6c-0.6-0.5-1.5-0.4-2,0.1l-8.9,8.9c-0.5,0.5-0.6,1.4-0.1,2l7.6,10
			c-1.5,2.6-2.6,5.5-3.5,8.4l-12.5,1.6c-0.8,0.1-1.3,0.8-1.3,1.5v12.6c0,0.8,0.6,1.4,1.3,1.5l12.5,1.6c0.8,3,2,5.8,3.5,8.4l-7.6,10
			c-0.5,0.6-0.4,1.5,0.1,2l8.9,8.9c0.3,0.3,0.7,0.5,1.1,0.5c0.3,0,0.7-0.1,0.9-0.3l10-7.6c2.6,1.5,5.5,2.6,8.4,3.5l1.6,12.5
			c0.1,0.8,0.8,1.3,1.5,1.3h12.6c0.8,0,1.4-0.6,1.5-1.3l1.6-12.5c3-0.8,5.8-2,8.4-3.5l10,7.6c0.3,0.2,0.6,0.3,0.9,0.3
			c0.4,0,0.8-0.2,1.1-0.5l8.9-8.9c0.5-0.5,0.6-1.4,0.1-2l-7.6-10c1.5-2.6,2.6-5.5,3.5-8.4l12.5-1.6c0.8-0.1,1.3-0.8,1.3-1.5v-12.6
			C307.8,250.4,307.2,249.6,306.5,249.5z M258.3,276.2c-10,0-18-8-18-18c0-10,8-18,18-18c10,0,18,8,18,18
			C276.3,268.1,268.2,276.2,258.3,276.2z"/>
		<path id="XMLID_471_" class="st1" d="M213.9,214.6l-7.8-1c-0.5-1.8-1.2-3.7-2.2-5.3l4.8-6.3c0.3-0.4,0.3-0.9-0.1-1.3l-5.6-5.6
			c-0.3-0.3-0.9-0.4-1.3-0.1l-6.3,4.8c-1.6-0.9-3.5-1.7-5.3-2.2l-1-7.8c-0.1-0.5-0.5-0.8-1-0.8H180c-0.5,0-0.9,0.4-1,0.8l-1,7.8
			c-1.8,0.5-3.7,1.2-5.3,2.2l-6.3-4.8c-0.4-0.3-0.9-0.3-1.3,0.1l-5.6,5.6c-0.3,0.3-0.4,0.9-0.1,1.3l4.8,6.3
			c-0.9,1.6-1.7,3.5-2.2,5.3l-7.8,1c-0.5,0.1-0.8,0.5-0.8,1v7.9c0,0.5,0.4,0.9,0.8,1l7.8,1c0.5,1.8,1.2,3.7,2.2,5.3l-4.8,6.3
			c-0.3,0.4-0.3,0.9,0.1,1.3l5.6,5.6c0.2,0.2,0.4,0.3,0.7,0.3c0.2,0,0.4-0.1,0.6-0.2l6.3-4.8c1.6,0.9,3.5,1.7,5.3,2.2l1,7.8
			c0.1,0.5,0.5,0.8,1,0.8h7.9c0.5,0,0.9-0.4,1-0.8l1-7.8c1.8-0.5,3.7-1.2,5.3-2.2l6.3,4.8c0.2,0.1,0.4,0.2,0.6,0.2
			c0.3,0,0.5-0.1,0.7-0.3l5.6-5.6c0.3-0.3,0.4-0.9,0.1-1.3l-4.8-6.3c0.9-1.6,1.7-3.5,2.2-5.3l7.8-1c0.5-0.1,0.8-0.5,0.8-1v-7.9
			C214.7,215.1,214.4,214.7,213.9,214.6z M183.6,231.4c-6.3,0-11.3-5.1-11.3-11.3c0-6.3,5.1-11.3,11.3-11.3s11.3,5.1,11.3,11.3
			S189.8,231.4,183.6,231.4z"/>
	</g>
	<g id="XMLID_530_">
		<line id="XMLID_531_" class="st0" x1="24.7" y1="25" x2="24.7" y2="44.7"/>
		<line id="XMLID_897_" class="st0" x1="34.4" y1="34.8" x2="14.8" y2="34.8"/>
	</g>
	<g id="XMLID_532_">
		<line id="XMLID_533_" class="st0" x1="298.2" y1="355.1" x2="298.2" y2="374.7"/>
		<line id="XMLID_894_" class="st0" x1="308" y1="364.9" x2="288.4" y2="364.9"/>
	</g>
	<g id="XMLID_534_">
		<line id="XMLID_535_" class="st0" x1="449.7" y1="46.5" x2="449.7" y2="66.1"/>
		<line id="XMLID_891_" class="st0" x1="459.5" y1="56.3" x2="439.9" y2="56.3"/>
	</g>
	<g id="XMLID_538_">
		<path id="XMLID_17_" class="st2" d="M416.1,443.2c0.5-1.6,1.3-1.6,1.9,0l0.6,1.7c0.5,1.6,2.3,3,4,3h1.8c1.6,0,1.9,0.8,0.6,1.8
			l-1.5,1.1c-1.3,1-2,3.1-1.5,4.7l0.6,1.7c0.5,1.6-0.2,2.1-1.5,1.1l-1.5-1.1c-1.3-1-3.6-1-5,0l-1.5,1.1c-1.3,1-2,0.5-1.5-1.1
			l0.6-1.7c0.5-1.6-0.2-3.7-1.5-4.7l-1.5-1.1c-1.3-1-1.1-1.8,0.6-1.8h1.8c1.6,0,3.5-1.3,4-3L416.1,443.2z"/>
	</g>
	<g id="XMLID_541_">
		<path id="XMLID_13_" class="st2" d="M345.9,8.2c0.5-1.6,1.3-1.6,1.9,0l0.6,1.7c0.5,1.6,2.3,3,4,3h1.8c1.6,0,1.9,0.8,0.6,1.8
			l-1.5,1.1c-1.3,1-2,3.1-1.5,4.7l0.6,1.7c0.5,1.6-0.2,2.1-1.5,1.1l-1.5-1.1c-1.3-1-3.6-1-5,0l-1.5,1.1c-1.3,1-2,0.5-1.5-1.1
			l0.6-1.7c0.5-1.6-0.2-3.7-1.5-4.7l-1.5-1.1c-1.3-1-1.1-1.8,0.6-1.8h1.8c1.6,0,3.5-1.3,4-3L345.9,8.2z"/>
	</g>
	<g id="XMLID_544_">
		<path id="XMLID_12_" class="st2" d="M13.9,402.2c0.5-1.6,1.3-1.6,1.9,0l0.6,1.7c0.5,1.6,2.3,3,4,3h1.8c1.7,0,1.9,0.8,0.6,1.8
			l-1.5,1.1c-1.3,1-2,3.1-1.5,4.7l0.6,1.7c0.5,1.6-0.2,2.1-1.5,1.1l-1.5-1.1c-1.3-1-3.6-1-5,0l-1.5,1.1c-1.3,1-2,0.5-1.5-1.1
			l0.6-1.7c0.5-1.6-0.2-3.7-1.5-4.7l-1.5-1.1c-1.3-1-1.1-1.8,0.6-1.8h1.8c1.6,0,3.5-1.3,4-3L13.9,402.2z"/>
	</g>
	<g id="XMLID_545_">
		<g id="XMLID_546_">
			<path id="XMLID_547_" class="st0" d="M93.8,110.2c38.2-38.3,89.1-59.3,143.1-59.3S341.8,71.9,380,110.2s59.3,89.1,59.3,143.1
				S418.3,358.2,380,396.4s-89.1,59.3-143.1,59.3s-104.9-21.1-143.1-59.3s-59.3-89.1-59.3-143.1S55.5,148.4,93.8,110.2z M236.9,85.8
				c-92.4,0-167.5,75.1-167.5,167.5s75.1,167.5,167.5,167.5s167.5-75.1,167.5-167.5S329.3,85.8,236.9,85.8z"/>
		</g>
		<polygon id="XMLID_876_" class="st3" points="171.2,15.8 180,153.3 298,120.7 330.2,51.8 		"/>
		<polygon id="XMLID_875_" class="st3" points="145.3,365.9 105.2,442.6 281.5,495 281.5,369.3 		"/>
		<polyline id="XMLID_874_" class="st4" points="335.6,77.6 346.8,55.7 288.4,72.8 308.4,129.8 320.5,106.8 		"/>
		<polyline id="XMLID_873_" class="st4" points="119.2,416.7 106.9,440.5 165.3,423.5 145.2,366.3 134.1,387.4 		"/>
	</g>
	<circle id="XMLID_548_" class="st0" cx="233.2" cy="70.8" r="47.6"/>
	<g id="XMLID_549_">
		<path id="XMLID_550_" class="st0" d="M231.7,44.9c-16.3,0-28.6,12.5-28.6,28s12.3,28,27.8,28c10.4,0,19.9-5.7,24.7-14.1
			l-23.9-14.6V44.9z"/>
		<line id="XMLID_551_" class="st0" x1="230.6" y1="72.1" x2="206" y2="86.4"/>
		<path id="XMLID_552_" class="st0" d="M236.9,67.9l1-27.3c0,0,12-0.5,20.1,11c9.4,13.4,5.1,27.2,2,31.3L236.9,67.9z"/>
	</g>
	<g id="XMLID_553_">
		<ellipse id="XMLID_554_" class="st5" cx="223.5" cy="400.2" rx="36.9" ry="10.2"/>
		<path id="XMLID_555_" class="st5" d="M185.9,400.8v68.7c0,0,33.6,15.7,73.3,0v-68.7"/>
		<path id="XMLID_556_" class="st5" d="M186.6,424.9c0,0,32.9,17.6,73.7,0"/>
		<path id="XMLID_557_" class="st5" d="M186.6,446.9c0,0,32.9,17.6,73.7,0"/>
		<circle id="XMLID_558_" class="st6" cx="246.8" cy="418.7" r="3.3"/>
		<circle id="XMLID_559_" class="st6" cx="246.8" cy="440.5" r="3.3"/>
		<circle id="XMLID_560_" class="st6" cx="246.8" cy="462.2" r="3.3"/>
	</g>
	<g id="XMLID_561_">
		<path id="XMLID_562_" class="st7" d="M367,242.7c0,0-10.1,1.6-11.7-4.3c-1.5-5.9,1.7-8.4,6.2-7.6s2.7,15.6-9.4,17.6"/>
		<path id="XMLID_563_" class="st8" d="M398.9,208c-6.4-3.6-10.8-10.4-10.8-18.2c0-11.5,9.3-20.8,20.8-20.8
			c11.5,0,20.8,9.3,20.8,20.8c0,6.2-2.7,11.8-7,15.6"/>
		<circle id="XMLID_564_" class="st7" cx="408.9" cy="189.2" r="2.5"/>
		<line id="XMLID_565_" class="st1" x1="407.8" y1="187.1" x2="407.8" y2="173.8"/>
		<line id="XMLID_566_" class="st1" x1="410.8" y1="190.1" x2="421" y2="190.1"/>
		<path id="XMLID_567_" class="st7" d="M468.9,231.1c0,0,8-2.3,8,4.3c0,6.7,0,11.6,0,11.6s1.4,7.2-5,7.2h-2.7
			c0,0-3.5,12.2-16.7,18.6v15h-12.2l-4.2-7.6c0,0-25.3,2.4-38.6-2.1v9.8h-13.2l-4.1-18.9c0,0-13.3-9.6-13.3-26s20.8-44.4,68.7-35.9
			c0,0,10-11.8,25.4-5c0,0,2.5,6.6-3.4,15.3C457.9,217.3,467.7,225,468.9,231.1z"/>
		<ellipse id="XMLID_568_" class="st7" cx="450.7" cy="232.5" rx="3.9" ry="5.4"/>
	</g>
	<g id="XMLID_569_">
		<circle id="XMLID_570_" class="st7" cx="58" cy="253.4" r="16.7"/>
		<path id="XMLID_571_" class="st7" d="M78,321.4H30.4c0,0-6.3-1.1-6.3-6.6s0-25.2,0-25.2s0.7-15,14.4-15h6.5l13.1,32.1l13.2-31.3
			c0,0,10.7-0.4,14.8,3.7c4.1,4.1,7,11.4,5.3,21.4"/>
		<circle id="XMLID_572_" class="st8" cx="99" cy="318.5" r="19.5"/>
		<polyline id="XMLID_573_" class="st1" points="87.5,319.8 96.6,327.7 111.4,309.8 		"/>
	</g>
</g>
</svg>
