<?xml version="1.0" encoding="UTF-8" standalone="no"?>
<svg 
    role="img" 
    xmlns="http://www.w3.org/2000/svg" 
    width="1000mm"
    height="1000mm"
    viewBox="0 0 1000 1000"
    style="max-width:1.6em; height: auto;">
    
    <path 
        id="path" 
        style="opacity:1;vector-effect:none;fill:#000000;fill-opacity:1;"
        d=" M 650 13C 698 13 738 52 738 100C 738 100 738 194 738 194C 829 265 887 376 887 500C 887 624 829 735 738 806C 738 806 738 900 738 900C 738 948 698 987 650 987C 650 987 350 987 350 987C 302 987 263 948 263 900C 263 900 263 806 263 806C 171 735 113 624 113 500C 113 376 171 265 263 194C 263 194 263 100 263 100C 263 52 302 13 350 13C 350 13 650 13 650 13M 337 100C 337 100 337 148 337 148C 387 125 442 113 500 113C 558 113 613 125 663 148C 663 148 663 100 663 100C 663 92 658 88 650 88C 650 88 350 88 350 88C 342 88 337 92 337 100C 337 100 337 100 337 100M 188 500C 188 673 327 812 500 812C 673 812 812 673 812 500C 812 327 673 188 500 188C 327 188 188 327 188 500C 188 500 188 500 188 500M 538 375C 538 375 538 450 538 450C 553 462 563 480 563 500C 563 534 534 563 500 563C 497 563 494 562 491 562C 491 562 352 702 352 702C 337 717 313 717 298 702C 283 687 283 663 298 648C 298 648 438 509 438 509C 438 506 437 503 437 500C 437 480 447 462 462 450C 462 450 462 375 462 375C 462 354 479 337 499 337C 521 337 538 354 538 375C 538 375 538 375 538 375M 337 900C 337 908 342 912 350 912C 350 912 650 912 650 912C 658 912 663 908 663 900C 663 900 663 852 663 852C 613 875 558 887 500 887C 442 887 387 875 337 852C 337 852 337 900 337 900"
        transform="translate(1000,0) scale(-1,1)">
    </path>    
</svg>