<?xml version="1.0" encoding="utf-8"?>
<!-- Generator: Adobe Illustrator 19.0.0, SVG Export Plug-In . SVG Version: 6.00 Build 0)  -->
<svg version="1.1" id="Layer_1" xmlns="http://www.w3.org/2000/svg" xmlns:xlink="http://www.w3.org/1999/xlink" x="0px" y="0px"  height="400px" width="400px"
	 viewBox="0 0 500 500" style="enable-background:new 0 0 500 500;" xml:space="preserve">
<style type="text/css">
	.st0{fill:none;stroke:#005FAA;stroke-width:4;stroke-miterlimit:10;}
	.st1{fill:#005FAA;}
	.st2{fill:none;stroke:#C8C8C8;stroke-width:4;stroke-miterlimit:10;}
	.st3{fill:#FFFFFF;}
	.st4{fill:#FFFFFF;stroke:#C8C8C8;stroke-width:4;stroke-miterlimit:10;}
	.st5{fill:#C8C8C8;}
	.st6{fill:#A8CA16;stroke:#005FAA;stroke-width:4;stroke-miterlimit:10;}
	.st7{fill:#FFFFFF;stroke:#005FAA;stroke-width:4;stroke-miterlimit:10;}
</style>
<g id="XMLID_917_">
	<g id="XMLID_448_">
		<path id="XMLID_449_" class="st0" d="M209,284h-23c0,0,0,3.4,0,12.2c0,8.8,3.5,13.2,12.5,13.2c10.8,0,10.5-14.1,10.5-14.1
			s0-100.1,0-114.8c0-14.6,9.9-16.5,9.9-16.5h94.4c0,0,1.4,0.4,2.7,0.5c4.5,0.4,15,0.3,15,12.1c0,14.5,0,14.4,0,14.4h-25v-13.7
			c0,0-0.4-12.2,11-12.2"/>
		<g id="XMLID_450_">
			<path id="XMLID_451_" class="st1" d="M228.2,222.4V217c-3.1-0.1-6.3-1-8.1-2.3l1.3-3.6c1.9,1.3,4.7,2.3,7.6,2.3
				c3.8,0,6.3-2.2,6.3-5.2c0-2.9-2.1-4.7-6-6.3c-5.4-2.1-8.8-4.6-8.8-9.2c0-4.4,3.1-7.7,8-8.5v-5.4h3.3v5.1c3.2,0.1,5.4,1,6.9,1.9
				l-1.3,3.5c-1.1-0.6-3.3-1.8-6.7-1.8c-4.1,0-5.6,2.4-5.6,4.6c0,2.8,2,4.1,6.6,6.1c5.5,2.2,8.2,5,8.2,9.7c0,4.2-2.9,8.1-8.4,9v5.5
				L228.2,222.4L228.2,222.4z"/>
		</g>
		<line id="XMLID_453_" class="st2" x1="252" y1="181" x2="293" y2="181"/>
		<line id="XMLID_454_" class="st2" x1="252" y1="199" x2="293" y2="199"/>
		<line id="XMLID_455_" class="st2" x1="252" y1="218" x2="289" y2="218"/>
		<line id="XMLID_456_" class="st2" x1="221" y1="237" x2="280" y2="237"/>
		<line id="XMLID_457_" class="st2" x1="221" y1="258" x2="289" y2="258"/>
		<line id="XMLID_458_" class="st2" x1="221" y1="277" x2="293" y2="277"/>
		<line id="XMLID_459_" class="st2" x1="221" y1="295" x2="293" y2="295"/>
		<circle id="XMLID_460_" class="st0" cx="306" cy="237.1" r="25.6"/>
		<polyline id="XMLID_461_" class="st2" points="292.5,241.1 299.4,247.5 319.9,225.5 		"/>
		<line id="XMLID_462_" class="st0" x1="306" y1="191" x2="306" y2="213"/>
		<path id="XMLID_463_" class="st0" d="M306,264v29.8c0,0-0.7,15.2-13.5,15.2s-93.5,0-93.5,0"/>
	</g>
	<g id="XMLID_697_">
		<path id="XMLID_698_" class="st2" d="M109.6,360.8c-37.5-37.5-58.2-87.4-58.2-140.5s20.7-103,58.2-140.5S197,21.6,250.1,21.6
			s103,20.7,140.5,58.2s58.2,87.4,58.2,140.5s-20.7,103-58.2,140.5S303.2,419,250.1,419S147.1,398.3,109.6,360.8z M85.7,220.2
			c0,90.7,73.8,164.5,164.5,164.5s164.5-73.8,164.5-164.5S340.9,55.7,250.2,55.7S85.7,129.6,85.7,220.2z"/>
	</g>
	<polygon id="XMLID_971_" class="st3" points="7,273.9 152.3,290.5 119.9,160.3 52.2,128.6 	"/>
	<polygon id="XMLID_970_" class="st3" points="360.6,310.2 436,349.6 487.6,168.4 364.3,168.4 	"/>
	<polyline id="XMLID_969_" class="st4" points="77.9,123.9 56.1,112.3 72.8,169.7 128.9,150 106,138.6 	"/>
	<polyline id="XMLID_968_" class="st4" points="409.8,335.9 433.9,347.9 417.2,290.5 361,310.3 381.6,320.9 	"/>
	<g id="XMLID_699_">
		<line id="XMLID_700_" class="st2" x1="440.7" y1="69.4" x2="440.7" y2="88.6"/>
		<line id="XMLID_966_" class="st2" x1="450.4" y1="79" x2="431.1" y2="79"/>
	</g>
	<g id="XMLID_701_">
		<line id="XMLID_702_" class="st2" x1="342.3" y1="441.1" x2="342.3" y2="460.3"/>
		<line id="XMLID_963_" class="st2" x1="351.9" y1="450.7" x2="332.6" y2="450.7"/>
	</g>
	<g id="XMLID_703_">
		<line id="XMLID_704_" class="st2" x1="41.1" y1="7" x2="41.1" y2="26.3"/>
		<line id="XMLID_960_" class="st2" x1="50.7" y1="16.6" x2="31.4" y2="16.6"/>
	</g>
	<g id="XMLID_707_">
		<path id="XMLID_15_" class="st5" d="M40.2,334.4c0.5-1.6,1.3-1.6,1.9,0l0.6,1.7c0.5,1.6,2.3,2.9,3.9,2.9h1.8
			c1.6,0,1.9,0.8,0.6,1.8l-1.5,1.1c-1.3,1-2,3-1.5,4.6l0.6,1.7c0.5,1.6-0.2,2.1-1.5,1.1l-1.5-1.1c-1.3-1-3.5-1-4.9,0l-1.5,1.1
			c-1.3,1-2,0.5-1.5-1.1l0.6-1.7c0.5-1.6-0.2-3.6-1.5-4.6l-1.5-1.1c-1.3-1-1.1-1.8,0.6-1.8h1.8c1.7,0,3.4-1.3,3.9-2.9L40.2,334.4z"
			/>
	</g>
	<g id="XMLID_710_">
		<path id="XMLID_11_" class="st5" d="M478.3,391.1c0.5-1.6,1.3-1.6,1.9,0l0.6,1.7c0.5,1.6,2.3,2.9,3.9,2.9h1.8
			c1.7,0,1.9,0.8,0.6,1.8l-1.5,1.1c-1.3,1-2,3-1.5,4.6l0.6,1.7c0.5,1.6-0.2,2.1-1.5,1.1l-1.5-1.1c-1.3-1-3.5-1-4.9,0l-1.5,1.1
			c-1.3,1-2,0.5-1.5-1.1l0.6-1.7c0.5-1.6-0.2-3.6-1.5-4.6l-1.5-1.1c-1.3-1-1.1-1.8,0.6-1.8h1.8c1.6,0,3.4-1.3,3.9-2.9L478.3,391.1z"
			/>
	</g>
	<g id="XMLID_772_">
		<polyline id="XMLID_773_" class="st0" points="403,215 384,215 384,260 452,260 452,215 434,215 		"/>
		<line id="XMLID_774_" class="st0" x1="418" y1="260" x2="418" y2="275"/>
		<line id="XMLID_775_" class="st0" x1="402" y1="275" x2="435" y2="275"/>
		<line id="XMLID_776_" class="st0" x1="418" y1="249" x2="418" y2="192"/>
		<circle id="XMLID_777_" class="st0" cx="417.7" cy="184.8" r="6"/>
		<circle id="XMLID_778_" class="st0" cx="444.4" cy="197.4" r="6"/>
		<polyline id="XMLID_779_" class="st0" points="427,237 427,197 438,197 		"/>
		<circle id="XMLID_780_" class="st0" cx="391.8" cy="197.4" r="6"/>
		<polyline id="XMLID_781_" class="st0" points="409,237 409,197 398,197 		"/>
	</g>
	<g id="XMLID_782_">
		<path id="XMLID_783_" class="st6" d="M74.9,279c-38.8-38.8-39-78.3-39-78.3l39-17.7l39,17.7C113.9,200.7,112.3,241.5,74.9,279z"/>
		<polyline id="XMLID_784_" class="st0" points="57.4,229.2 67.5,243.8 96.9,210.2 		"/>
	</g>
	<path id="XMLID_785_" class="st7" d="M256,70.9l-9.5-1.3c-0.6-2.3-1.5-4.4-2.7-6.4l5.8-7.6c0.4-0.5,0.3-1.1-0.1-1.6l-6.8-6.8
		c-0.4-0.4-1.1-0.5-1.6-0.1l-7.6,5.8c-2-1.1-4.1-2-6.4-2.7l-1.3-9.5c-0.1-0.6-0.6-1-1.2-1h-9.5c-0.6,0-1.1,0.4-1.2,1l-1.3,9.5
		c-2.3,0.6-4.4,1.5-6.4,2.7l-7.6-5.8c-0.5-0.4-1.1-0.3-1.6,0.1l-6.8,6.8c-0.4,0.4-0.5,1.1-0.1,1.6l5.8,7.6c-1.1,2-2,4.1-2.7,6.4
		l-9.5,1.3c-0.6,0.1-1,0.6-1,1.2v9.5c0,0.6,0.4,1.1,1,1.2l9.5,1.3c0.6,2.3,1.5,4.4,2.7,6.4l-5.8,7.6c-0.4,0.5-0.3,1.1,0.1,1.6
		l6.8,6.8c0.2,0.2,0.5,0.3,0.8,0.3s0.5-0.1,0.7-0.2l7.6-5.8c2,1.1,4.1,2,6.4,2.7l1.3,9.5c0.1,0.6,0.6,1,1.2,1h9.5
		c0.6,0,1.1-0.4,1.2-1l1.3-9.5c2.3-0.6,4.4-1.5,6.4-2.7l7.6,5.8c0.2,0.2,0.5,0.2,0.7,0.2c0.3,0,0.6-0.1,0.8-0.3l6.8-6.8
		c0.4-0.4,0.5-1.1,0.1-1.6l-5.8-7.6c1.1-2,2-4.1,2.7-6.4l9.5-1.3c0.6-0.1,1-0.6,1-1.2v-9.5C257.1,71.5,256.6,71,256,70.9z
		 M219.5,91.1c-7.5,0-13.7-6.1-13.7-13.7c0-7.5,6.1-13.7,13.7-13.7c7.5,0,13.7,6.1,13.7,13.7S227.1,91.1,219.5,91.1z"/>
</g>
</svg>
