<?xml version="1.0" encoding="utf-8"?>
<!-- Generator: Adobe Illustrator 19.0.0, SVG Export Plug-In . SVG Version: 6.00 Build 0)  -->
<svg version="1.1" id="Layer_1" xmlns="http://www.w3.org/2000/svg" xmlns:xlink="http://www.w3.org/1999/xlink" x="0px" y="0px"  height="400px" width="400px"
	 viewBox="0 0 500 500" style="enable-background:new 0 0 500 500;" xml:space="preserve">
<style type="text/css">
	.st0{fill:#FFFFFF;stroke:#005FAA;stroke-width:4;stroke-miterlimit:10;}
	.st1{fill:#C8C8C8;stroke:#C8C8C8;stroke-width:4.215;stroke-linecap:round;stroke-linejoin:round;stroke-miterlimit:10;}
	.st2{fill:#FFFFFF;stroke:#C8C8C8;stroke-width:4.215;stroke-linecap:round;stroke-linejoin:round;stroke-miterlimit:10;}
	.st3{fill:#FFFFFF;}
	.st4{fill:none;stroke:#C8C8C8;stroke-width:4;stroke-miterlimit:10;}
	.st5{fill:#C8C8C8;}
	.st6{fill:#FFFFFF;stroke:#C8C8C8;stroke-width:4;stroke-miterlimit:10;}
	.st7{fill:none;stroke:#005FAA;stroke-width:4;stroke-miterlimit:10;}
</style>
<g id="XMLID_948_">
	<g id="XMLID_249_">
		<rect id="XMLID_250_" x="187.7" y="177.5" class="st0" width="86.6" height="115.7"/>
		<polygon id="XMLID_251_" class="st1" points="289.6,308.5 203,308.5 203,192.8 264.3,192.8 289.6,218.1 		"/>
		<polygon id="XMLID_252_" class="st2" points="264.3,218.1 289.6,218.1 264.3,192.8 		"/>
		<rect id="XMLID_253_" x="212.2" y="224.9" class="st3" width="68.9" height="6.9"/>
		<rect id="XMLID_266_" x="212.2" y="242" class="st3" width="68.9" height="6.9"/>
		<rect id="XMLID_267_" x="212.2" y="259.2" class="st3" width="68.9" height="6.9"/>
		<rect id="XMLID_268_" x="212.2" y="276.3" class="st3" width="68.9" height="6.9"/>
		<rect id="XMLID_269_" x="212.2" y="293.7" class="st3" width="68.9" height="6.9"/>
	</g>
	<g id="XMLID_753_">
		<line id="XMLID_754_" class="st4" x1="25.7" y1="25.9" x2="25.7" y2="45.3"/>
		<line id="XMLID_994_" class="st4" x1="35.4" y1="35.6" x2="16" y2="35.6"/>
	</g>
	<g id="XMLID_755_">
		<line id="XMLID_756_" class="st4" x1="296.4" y1="352.5" x2="296.4" y2="371.9"/>
		<line id="XMLID_991_" class="st4" x1="306.1" y1="362.2" x2="286.7" y2="362.2"/>
	</g>
	<g id="XMLID_757_">
		<line id="XMLID_758_" class="st4" x1="446.3" y1="47.2" x2="446.3" y2="66.6"/>
		<line id="XMLID_988_" class="st4" x1="456" y1="56.9" x2="436.6" y2="56.9"/>
	</g>
	<g id="XMLID_761_">
		<path id="XMLID_17_" class="st5" d="M413.1,439.7c0.5-1.6,1.3-1.6,1.9,0l0.6,1.8c0.5,1.6,2.3,2.9,3.9,2.9h1.9
			c1.7,0,1.9,0.8,0.6,1.8l-1.5,1.1c-1.3,1-2,3-1.5,4.6l0.6,1.8c0.5,1.6-0.2,2.1-1.5,1.1l-1.5-1.1c-1.3-1-3.5-1-4.9,0l-1.5,1.1
			c-1.3,1-2,0.5-1.5-1.1l0.6-1.8c0.5-1.6-0.2-3.6-1.5-4.6l-1.5-1.1c-1.3-1-1.1-1.8,0.6-1.8h1.9c1.6,0,3.4-1.3,3.9-2.9L413.1,439.7z"
			/>
	</g>
	<g id="XMLID_764_">
		<path id="XMLID_13_" class="st5" d="M343.6,9.2c0.5-1.6,1.3-1.6,1.9,0L346,11c0.5,1.6,2.3,2.9,3.9,2.9h1.9c1.7,0,1.9,0.8,0.6,1.8
			l-1.5,1.1c-1.3,1-2,3-1.5,4.6l0.6,1.8c0.5,1.6-0.2,2.1-1.5,1.1l-1.5-1.1c-1.3-1-3.5-1-4.9,0l-1.5,1.1c-1.3,1-2,0.5-1.5-1.1
			l0.6-1.8c0.5-1.6-0.2-3.6-1.5-4.6l-1.5-1.1c-1.3-1-1.1-1.8,0.6-1.8h1.9c1.6,0,3.4-1.3,3.9-2.9L343.6,9.2z"/>
	</g>
	<g id="XMLID_767_">
		<path id="XMLID_12_" class="st5" d="M15.1,399.1c0.5-1.6,1.3-1.6,1.9,0l0.6,1.8c0.5,1.6,2.3,2.9,3.9,2.9h1.9
			c1.6,0,1.9,0.8,0.6,1.8l-1.5,1.1c-1.3,1-2,3-1.5,4.6l0.6,1.8c0.5,1.6-0.2,2.1-1.5,1.1l-1.5-1.1c-1.3-1-3.5-1-4.9,0l-1.5,1.1
			c-1.3,1-2,0.5-1.5-1.1l0.6-1.8c0.5-1.6-0.2-3.6-1.5-4.6l-1.5-1.1c-1.3-1-1.1-1.8,0.6-1.8h1.9c1.7,0,3.4-1.3,3.9-2.9L15.1,399.1z"
			/>
	</g>
	<g id="XMLID_768_">
		<g id="XMLID_769_">
			<path id="XMLID_770_" class="st4" d="M94.1,110.2c37.8-37.8,88.1-58.7,141.6-58.7s103.8,20.8,141.6,58.7S436,198.3,436,251.8
				s-20.8,103.8-58.7,141.6s-88.1,58.7-141.6,58.7s-103.8-20.8-141.6-58.7s-58.7-88.1-58.7-141.6S56.3,148,94.1,110.2z M235.7,86.1
				C144.3,86.1,70,160.4,70,251.8s74.4,165.8,165.8,165.8c91.4,0,165.8-74.4,165.8-165.8S327.1,86.1,235.7,86.1z"/>
		</g>
		<polygon id="XMLID_973_" class="st3" points="170.8,16.8 179.4,152.8 296.2,120.6 328.1,52.4 		"/>
		<polygon id="XMLID_972_" class="st3" points="145.1,363.2 105.4,439.2 279.8,491 279.8,366.7 		"/>
		<polyline id="XMLID_971_" class="st6" points="333.4,78 344.5,56.2 286.7,73.1 306.6,129.7 318.6,106.9 		"/>
		<polyline id="XMLID_970_" class="st6" points="119.3,413.5 107.1,437.1 164.9,420.2 145,363.6 134,384.5 		"/>
	</g>
	<circle id="XMLID_771_" class="st4" cx="232.1" cy="71.6" r="47.2"/>
	<g id="XMLID_788_">
		<line id="XMLID_789_" class="st7" x1="223" y1="375" x2="223" y2="363"/>
		<path id="XMLID_790_" class="st7" d="M222,456h-6.8c0,0-4.6-1.5-4.6-5.6s1.4-21.9-3-27.4c-4.4-5.6-15.2-21.3-3-35.2
			c9.5-10.8,26.7-10.8,36.2,0c12.2,13.9,1.4,29.5-3,35.1c-4.4,5.6-3,23.5-3,27.6s-4.6,5.6-4.6,5.6H222"/>
		<path id="XMLID_791_" class="st7" d="M229.9,455.5c0,4.4-3.5,7.9-7.9,7.9s-7.9-3.5-7.9-7.9"/>
		<line id="XMLID_792_" class="st4" x1="203" y1="441" x2="241" y2="441"/>
		<line id="XMLID_963_" class="st7" x1="245.1" y1="383.6" x2="253.4" y2="375.3"/>
		<line id="XMLID_962_" class="st7" x1="201.4" y1="383.6" x2="193.1" y2="375.3"/>
		<line id="XMLID_961_" class="st7" x1="252" y1="405" x2="265" y2="405"/>
		<line id="XMLID_960_" class="st7" x1="180" y1="405" x2="192" y2="405"/>
		<line id="XMLID_793_" class="st4" x1="203" y1="449" x2="241" y2="449"/>
	</g>
	<g id="XMLID_794_">
		<path id="XMLID_795_" class="st5" d="M229.4,116.2v-11.6c-5.9,0-12.1-2-15.8-5l2.2-4.1c3.6,2.8,8.9,4.8,14.5,4.8
			c8.9,0,14.8-5.8,14.8-13.3c0-7.2-4.8-11.7-13-15.3c-11-4.8-17.3-9.7-17.3-18.7c0-8.9,6.3-15.5,15.5-16.8V24.6h4.6V36
			c6.2,0.2,10.5,2.1,13.3,4l-2.3,4.1c-2.1-1.3-6.3-3.8-12.9-3.8c-9.3,0-13.1,6.3-13.1,11.7c0,7,4.2,10.2,14,14.6
			c10.3,4.8,16.5,10.2,16.5,19.9c0,8.2-5.6,16.3-16.2,18v11.7H229.4z"/>
	</g>
	<g id="XMLID_797_">
		<g id="XMLID_798_">
			<path id="XMLID_799_" class="st0" d="M451.2,374.9v-10.9h-7.7c-0.6-2.6-1.6-5-3-7.2l5.5-5.5l-7.7-7.7l-5.5,5.5
				c-2.2-1.4-4.6-2.4-7.2-3v-7.7h-10.9v7.7c-2.6,0.6-5,1.6-7.2,3l-5.5-5.5l-7.7,7.7l5.5,5.5c-1.4,2.2-2.4,4.6-3,7.2h-7.7v10.9h7.7
				c0.6,2.6,1.6,5,3,7.2l-5.5,5.5l7.7,7.7l5.5-5.5c2.2,1.4,4.6,2.4,7.2,3v7.7h10.9v-7.7c2.6-0.6,5-1.6,7.2-3l5.5,5.5l7.7-7.7
				l-5.5-5.5c1.4-2.2,2.4-4.6,3-7.2H451.2z"/>
		</g>
		<circle id="XMLID_800_" class="st0" cx="420" cy="369.4" r="12.7"/>
	</g>
</g>
</svg>
