<?xml version="1.0" encoding="utf-8"?>
<!-- Generator: Adobe Illustrator 19.0.0, SVG Export Plug-In . SVG Version: 6.00 Build 0)  -->
<svg version="1.1" id="Layer_1" xmlns="http://www.w3.org/2000/svg" xmlns:xlink="http://www.w3.org/1999/xlink" x="0px" y="0px"  height="400px" width="400px"
	 viewBox="0 0 500 500" style="enable-background:new 0 0 500 500;" xml:space="preserve">
<style type="text/css">
	.st0{fill:none;stroke:#C8C8C8;stroke-width:4;stroke-miterlimit:10;}
	.st1{fill:#FFFFFF;}
	.st2{fill:#FFFFFF;stroke:#C8C8C8;stroke-width:4;stroke-miterlimit:10;}
	.st3{fill:#C8C8C8;}
	.st4{fill:none;stroke:#A8CA16;stroke-width:4;stroke-miterlimit:10;}
	.st5{fill:#A8CA16;stroke:#005FAA;stroke-width:4;stroke-miterlimit:10;}
	.st6{fill:none;stroke:#005FAA;stroke-width:4;stroke-miterlimit:10;}
	.st7{fill:#005FAA;}
	.st8{fill:#FFFFFF;stroke:#005FAA;stroke-width:4;stroke-miterlimit:10;}
	.st9{fill:#A8CA16;}
</style>
<g id="XMLID_885_">
	<g id="XMLID_485_">
		<path id="XMLID_486_" class="st0" d="M109.8,354.2c-38-38-58.9-88.5-58.9-142.2s20.9-104.2,58.9-142.2S198.3,11,252,11
			s104.2,20.9,142.2,58.9S453,158.3,453,212.1s-20.9,104.2-58.9,142.2s-88.5,58.9-142.2,58.9S147.8,392.2,109.8,354.2z M85.6,212.1
			c0,91.7,74.6,166.4,166.4,166.4s166.4-74.6,166.4-166.4c0-91.7-74.6-166.4-166.4-166.4S85.6,120.3,85.6,212.1z"/>
	</g>
	<polygon id="XMLID_950_" class="st1" points="6,266.4 153,283.1 120.3,151.4 51.8,119.3 	"/>
	<polygon id="XMLID_949_" class="st1" points="363.8,303 440,342.9 492.2,159.6 367.4,159.6 	"/>
	<polyline id="XMLID_948_" class="st2" points="77.8,114.6 55.7,102.9 72.6,160.9 129.4,141 106.1,129.4 	"/>
	<polyline id="XMLID_947_" class="st2" points="413.4,329 437.9,341.2 421,283.1 364.2,303.1 384.9,313.9 	"/>
	<g id="XMLID_487_">
		<line id="XMLID_488_" class="st0" x1="444.8" y1="59.4" x2="444.8" y2="78.9"/>
		<line id="XMLID_928_" class="st0" x1="454.5" y1="69.2" x2="435" y2="69.2"/>
	</g>
	<g id="XMLID_489_">
		<line id="XMLID_490_" class="st0" x1="345.2" y1="435.4" x2="345.2" y2="454.9"/>
		<line id="XMLID_925_" class="st0" x1="354.9" y1="445.2" x2="335.4" y2="445.2"/>
	</g>
	<g id="XMLID_491_">
		<line id="XMLID_492_" class="st0" x1="25.8" y1="5.7" x2="25.8" y2="25.2"/>
		<line id="XMLID_922_" class="st0" x1="35.5" y1="15.4" x2="16" y2="15.4"/>
	</g>
	<g id="XMLID_495_">
		<path id="XMLID_15_" class="st3" d="M39.6,327.5c0.5-1.6,1.3-1.6,1.9,0l0.6,1.8c0.5,1.6,2.3,2.9,3.9,2.9h1.9
			c1.6,0,1.9,0.8,0.6,1.8l-1.5,1.1c-1.3,1-2,3-1.5,4.6l0.6,1.8c0.5,1.6-0.2,2.1-1.5,1.1l-1.5-1.1c-1.3-1-3.5-1-4.9,0l-1.5,1.1
			c-1.3,1-2,0.5-1.5-1.1l0.6-1.8c0.5-1.6-0.2-3.6-1.5-4.6l-1.5-1.1c-1.3-1-1.1-1.8,0.6-1.8h1.9c1.6,0,3.4-1.3,3.9-2.9L39.6,327.5z"
			/>
	</g>
	<g id="XMLID_498_">
		<path id="XMLID_11_" class="st3" d="M482.7,384.8c0.5-1.6,1.3-1.6,1.9,0l0.6,1.8c0.5,1.6,2.3,2.9,3.9,2.9h1.9
			c1.6,0,1.9,0.8,0.6,1.8l-1.5,1.1c-1.3,1-2,3-1.5,4.6l0.6,1.8c0.5,1.6-0.2,2.1-1.5,1.1l-1.5-1.1c-1.3-1-3.5-1-4.9,0l-1.5,1.1
			c-1.3,1-2,0.5-1.5-1.1l0.6-1.8c0.5-1.6-0.2-3.6-1.5-4.6l-1.5-1.1c-1.3-1-1.1-1.8,0.6-1.8h1.9c1.6,0,3.4-1.3,3.9-2.9L482.7,384.8z"
			/>
	</g>
	<g id="XMLID_518_">
		<polygon id="XMLID_519_" class="st4" points="380.8,260 425.3,182.9 469.8,260 		"/>
		<g id="XMLID_520_">
			<path id="XMLID_521_" class="st3" d="M420.2,240.3c0-2.7,1.8-4.5,4.4-4.5c2.7,0,4.4,1.9,4.4,4.5c0,2.6-1.7,4.5-4.4,4.5
				C421.9,244.9,420.1,242.9,420.2,240.3z M421.8,232.1l-1-27.1h7.6l-1,27.1H421.8z"/>
		</g>
	</g>
	<g id="XMLID_613_">
		<path id="XMLID_614_" class="st5" d="M335.5,97.6C308.2,70.2,308,42.4,308,42.4L335.5,30L363,42.4C363,42.4,361.9,71.2,335.5,97.6
			z"/>
		<polyline id="XMLID_615_" class="st6" points="323.2,62.5 330.3,72.8 351,49.1 		"/>
	</g>
	<g id="XMLID_683_">
		<path id="XMLID_684_" class="st7" d="M242.7,197.9c0,15.8-8.3,23.7-18,23.7c-9.3,0-17.4-7.5-17.5-22.6c0-15,8.2-23.4,18.1-23.4
			C235.8,175.5,242.7,183.6,242.7,197.9z M215.3,198.6c-0.2,9.6,3.3,16.8,9.7,16.8c6.7,0,9.7-7.2,9.7-17.1c0-9.1-2.7-16.7-9.7-16.7
			C218.6,181.6,215.3,189.1,215.3,198.6z M224,253l44.1-77.5h6.5L230.5,253H224z M291.6,228.9c0,15.8-8.3,23.7-17.9,23.7
			c-9.3,0-17.4-7.5-17.5-22.5c0-15.1,8.2-23.5,18.1-23.5C284.7,206.5,291.6,214.6,291.6,228.9z M264.1,229.6
			c-0.1,9.6,3.6,16.8,9.8,16.8c6.7,0,9.7-7.2,9.7-17.1c0-9.1-2.7-16.7-9.7-16.7C267.6,212.6,264.1,220.1,264.1,229.6z"/>
	</g>
	<circle id="XMLID_690_" class="st0" cx="249.4" cy="214.3" r="80.2"/>
	<g id="XMLID_691_">
		<path id="XMLID_692_" class="st8" d="M70.6,261.1c-5.2,0-11.2-1-15.2-2.6c-0.9-0.3-1.8-0.1-2.5,0.6c-2.7,2.9-6.2,5-10,5.9
			c2.1-4,2.6-8.7,1.4-13.2c-0.1-0.4-0.3-0.7-0.5-0.9c-5-5.2-7.8-11.8-7.8-18.6c0-15.7,15.9-28.9,34.7-28.9
			c17.8,0,33.3,12.3,33.3,28.9C103.9,248.2,89,261.1,70.6,261.1z"/>
		<path id="XMLID_693_" class="st9" d="M135.6,218.3c0.1-0.4,0.3-0.7,0.5-0.9c5-5.2,7.8-11.8,7.8-18.6c0-15.7-15.9-28.9-34.7-28.9
			c-17.5,0-32,11.8-33.3,26.7c1.4,0.1,2.9,0.2,4.3,0.4c0,0,0.1,0,0.1,0c4.3,0.7,8.4,2,12.2,3.9h0.1c5.5,2.9,10.8,7.4,14.8,14
			c2.2,3.9,3.6,8.2,3.9,12.6c4.7-0.2,9.6-1.2,13.1-2.6c0.9-0.4,1.8-0.1,2.5,0.6c2.7,2.9,6.2,5,10,5.9
			C134.9,227.5,134.3,222.8,135.6,218.3z"/>
	</g>
	<path id="XMLID_694_" class="st8" d="M221.3,377.8l-8.2-1.1c-0.5-2-1.3-3.8-2.3-5.6l5-6.6c0.3-0.4,0.3-1-0.1-1.4l-5.9-5.9
		c-0.4-0.4-0.9-0.4-1.4-0.1l-6.6,5c-1.7-1-3.6-1.8-5.6-2.3l-1.1-8.2c-0.1-0.5-0.5-0.9-1-0.9H186c-0.5,0-1,0.4-1,0.9l-1.1,8.2
		c-2,0.5-3.8,1.3-5.6,2.3l-6.6-5c-0.4-0.3-1-0.3-1.4,0.1l-5.9,5.9c-0.4,0.4-0.4,0.9-0.1,1.4l5,6.6c-1,1.7-1.8,3.6-2.3,5.6l-8.2,1.1
		c-0.5,0.1-0.9,0.5-0.9,1v8.3c0,0.5,0.4,1,0.9,1l8.2,1.1c0.5,2,1.3,3.8,2.3,5.6l-5,6.6c-0.3,0.4-0.3,1,0.1,1.4l5.9,5.9
		c0.2,0.2,0.5,0.3,0.7,0.3c0.2,0,0.4-0.1,0.6-0.2l6.6-5c1.7,1,3.6,1.8,5.6,2.3l1.1,8.2c0.1,0.5,0.5,0.9,1,0.9h8.3c0.5,0,1-0.4,1-0.9
		l1.1-8.2c2-0.5,3.8-1.3,5.6-2.3l6.6,5c0.2,0.1,0.4,0.2,0.6,0.2c0.3,0,0.5-0.1,0.7-0.3l5.9-5.9c0.4-0.4,0.4-0.9,0.1-1.4l-5-6.6
		c1-1.7,1.8-3.6,2.3-5.6l8.2-1.1c0.5-0.1,0.9-0.5,0.9-1v-8.3C222.2,378.4,221.9,377.9,221.3,377.8z M189.6,395.4
		c-6.6,0-11.9-5.3-11.9-11.9c0-6.6,5.3-11.9,11.9-11.9c6.6,0,11.9,5.3,11.9,11.9C201.5,390.1,196.2,395.4,189.6,395.4z"/>
</g>
</svg>
