<?xml version="1.0" encoding="utf-8"?>
<!-- Generator: Adobe Illustrator 19.0.0, SVG Export Plug-In . SVG Version: 6.00 Build 0)  -->
<svg version="1.1" id="Layer_1" xmlns="http://www.w3.org/2000/svg" xmlns:xlink="http://www.w3.org/1999/xlink" x="0px" y="0px" height="400px" width="400px"
	 viewBox="0 0 500 500" style="enable-background:new 0 0 500 500;" xml:space="preserve">
<style type="text/css">
	.st0{fill:none;stroke:#C8C8C8;stroke-width:4;stroke-miterlimit:10;}
	.st1{fill:#C8C8C8;}
	.st2{fill:#FFFFFF;}
	.st3{fill:#FFFFFF;stroke:#C8C8C8;stroke-width:4;stroke-miterlimit:10;}
	.st4{fill:#FFFFFF;stroke:#005FAA;stroke-width:4;stroke-miterlimit:10;}
	.st5{fill:none;stroke:#A8CA16;stroke-width:4;stroke-miterlimit:10;}
	.st6{fill:#A8CA16;}
	.st7{fill:#C8C8C8;stroke:#C8C8C8;stroke-width:4;stroke-linecap:round;stroke-linejoin:round;stroke-miterlimit:10;}
	.st8{fill:#C8C8C8;stroke:#005FAA;stroke-width:4;stroke-miterlimit:10;}
	.st9{fill:none;stroke:#005FAA;stroke-width:4;stroke-miterlimit:10;}
	.st10{fill:#BABABA;}
</style>
<g id="XMLID_988_">
	<g id="XMLID_799_">
		<line id="XMLID_800_" class="st0" x1="25" y1="24.5" x2="25" y2="43.9"/>
		<line id="XMLID_1060_" class="st0" x1="34.7" y1="34.2" x2="15.3" y2="34.2"/>
	</g>
	<g id="XMLID_801_">
		<line id="XMLID_802_" class="st0" x1="285.5" y1="329.4" x2="285.5" y2="348.8"/>
		<line id="XMLID_1057_" class="st0" x1="295.2" y1="339.1" x2="275.8" y2="339.1"/>
	</g>
	<g id="XMLID_803_">
		<line id="XMLID_804_" class="st0" x1="476.5" y1="30.5" x2="476.5" y2="49.9"/>
		<line id="XMLID_1054_" class="st0" x1="486.2" y1="40.2" x2="466.8" y2="40.2"/>
	</g>
	<g id="XMLID_807_">
		<path id="XMLID_22_" class="st1" d="M433.8,454.9c0.5-1.6,1.3-1.6,1.9,0l0.6,1.8c0.5,1.6,2.3,2.9,3.9,2.9h1.8
			c1.6,0,1.9,0.8,0.6,1.8l-1.5,1.1c-1.3,1-2,3-1.5,4.6l0.6,1.8c0.5,1.6-0.2,2.1-1.5,1.1l-1.5-1.1c-1.3-1-3.5-1-4.9,0l-1.5,1.1
			c-1.3,1-2,0.5-1.5-1.1l0.6-1.8c0.5-1.6-0.2-3.6-1.5-4.6l-1.5-1.1c-1.3-1-1.1-1.8,0.6-1.8h1.8c1.6,0,3.4-1.3,3.9-2.9L433.8,454.9z"
			/>
	</g>
	<g id="XMLID_810_">
		<path id="XMLID_14_" class="st1" d="M342.3,7.9c0.5-1.6,1.3-1.6,1.9,0l0.6,1.8c0.5,1.6,2.3,2.9,3.9,2.9h1.8c1.6,0,1.9,0.8,0.6,1.8
			l-1.5,1.1c-1.3,1-2,3-1.5,4.6l0.6,1.8c0.5,1.6-0.2,2.1-1.5,1.1l-1.5-1.1c-1.3-1-3.5-1-4.9,0l-1.5,1.1c-1.3,1-2,0.5-1.5-1.1
			l0.6-1.8c0.5-1.6-0.2-3.6-1.5-4.6l-1.5-1.1c-1.3-1-1.1-1.8,0.6-1.8h1.8c1.6,0,3.4-1.3,3.9-2.9L342.3,7.9z"/>
	</g>
	<g id="XMLID_813_">
		<path id="XMLID_13_" class="st1" d="M14.3,397.2c0.5-1.6,1.3-1.6,1.9,0l0.6,1.8c0.5,1.6,2.3,2.9,3.9,2.9h1.8
			c1.6,0,1.9,0.8,0.6,1.8l-1.5,1.1c-1.3,1-2,3-1.5,4.6l0.6,1.8c0.5,1.6-0.2,2.1-1.5,1.1l-1.5-1.1c-1.3-1-3.5-1-4.9,0l-1.5,1.1
			c-1.3,1-2,0.5-1.5-1.1l0.6-1.8c0.5-1.6-0.2-3.6-1.5-4.6l-1.5-1.1c-1.3-1-1.1-1.8,0.6-1.8h1.8c1.6,0,3.4-1.3,3.9-2.9L14.3,397.2z"
			/>
	</g>
	<g id="XMLID_814_">
		<g id="XMLID_815_">
			<path id="XMLID_816_" class="st0" d="M93.2,112.3c37.8-37.8,88-58.6,141.4-58.6s103.7,20.8,141.4,58.6s58.6,88,58.6,141.4
				s-20.8,103.7-58.6,141.4s-88,58.6-141.4,58.6S131,432.9,93.2,395.2s-58.6-88-58.6-141.4S55.5,150.1,93.2,112.3z M234.7,88.2
				c-91.3,0-165.5,74.3-165.5,165.5s74.3,165.5,165.5,165.5c91.3,0,165.5-74.3,165.5-165.5S326,88.2,234.7,88.2z"/>
		</g>
		<polygon id="XMLID_1039_" class="st2" points="189.7,17.1 189.7,152 295,122.7 326.9,54.6 		"/>
		<polygon id="XMLID_1038_" class="st2" points="144.2,364.9 104.5,440.8 278.7,492.5 278.7,368.4 		"/>
		<polyline id="XMLID_1037_" class="st3" points="332.2,80.2 343.3,58.4 285.5,75.3 305.4,131.8 317.4,109 		"/>
		<polyline id="XMLID_1036_" class="st3" points="118.4,415.1 106.2,438.7 163.9,421.8 144.1,365.4 133.1,386.2 		"/>
	</g>
	<g id="XMLID_817_">
		<rect id="XMLID_818_" x="416" y="217" class="st4" width="47" height="59"/>
		<line id="XMLID_819_" class="st5" x1="426" y1="227" x2="455" y2="227"/>
		<line id="XMLID_820_" class="st5" x1="426" y1="237" x2="455" y2="237"/>
		<line id="XMLID_821_" class="st5" x1="426" y1="247" x2="455" y2="247"/>
		<line id="XMLID_822_" class="st5" x1="426" y1="256" x2="455" y2="256"/>
	</g>
	<g id="XMLID_823_">
		<circle id="XMLID_824_" class="st4" cx="73.5" cy="339.1" r="31"/>
		<g id="XMLID_825_">
			<path id="XMLID_826_" class="st6" d="M71.7,360.7v-5.3c-3-0.1-6.2-1-8-2.3l1.3-3.5c1.9,1.3,4.6,2.3,7.6,2.3
				c3.7,0,6.3-2.2,6.3-5.1c0-2.9-2-4.7-5.9-6.3c-5.4-2.1-8.7-4.5-8.7-9.1c0-4.4,3.1-7.7,7.9-8.5v-5.3h3.3v5.1
				c3.2,0.1,5.3,0.9,6.8,1.8l-1.3,3.5c-1.1-0.6-3.3-1.8-6.6-1.8c-4,0-5.6,2.4-5.6,4.5c0,2.7,1.9,4.1,6.5,6c5.4,2.2,8.1,4.9,8.1,9.6
				c0,4.1-2.9,8-8.3,8.9v5.5H71.7z"/>
		</g>
	</g>
	<g id="XMLID_828_">
		<g id="XMLID_829_">
			<path id="XMLID_830_" class="st4" d="M104.5,172.9V162h-7.7c-0.6-2.6-1.6-5-3-7.2l5.5-5.5l-7.7-7.7l-5.5,5.5
				c-2.2-1.4-4.6-2.4-7.2-3v-7.7H67.9v7.7c-2.6,0.6-5,1.6-7.2,3l-5.5-5.5l-7.7,7.7l5.5,5.5c-1.4,2.2-2.4,4.6-3,7.2h-7.7v10.9h7.7
				c0.6,2.6,1.6,5,3,7.2l-5.5,5.5l7.7,7.7l5.5-5.5c2.2,1.4,4.6,2.4,7.2,3v7.7h10.9v-7.7c2.6-0.6,5-1.6,7.2-3l5.5,5.5l7.7-7.7
				l-5.5-5.5c1.4-2.2,2.4-4.6,3-7.2H104.5z"/>
		</g>
		<circle id="XMLID_831_" class="st4" cx="73.4" cy="167.5" r="12.7"/>
	</g>
	<g id="XMLID_832_">
		<rect id="XMLID_833_" x="157" y="190" class="st7" width="93" height="36"/>
		<circle id="XMLID_834_" class="st8" cx="181.9" cy="207" r="6.8"/>
		<line id="XMLID_835_" class="st4" x1="211" y1="200" x2="211" y2="213"/>
		<line id="XMLID_836_" class="st4" x1="222" y1="200" x2="222" y2="213"/>
		<line id="XMLID_837_" class="st4" x1="233" y1="200" x2="233" y2="213"/>
		<rect id="XMLID_838_" x="157" y="232" class="st7" width="93" height="35"/>
		<circle id="XMLID_839_" class="st8" cx="181.9" cy="248.4" r="6.8"/>
		<line id="XMLID_840_" class="st4" x1="211" y1="242" x2="211" y2="255"/>
		<line id="XMLID_841_" class="st4" x1="222" y1="242" x2="222" y2="255"/>
		<line id="XMLID_842_" class="st4" x1="233" y1="242" x2="233" y2="255"/>
		<polygon id="XMLID_843_" class="st4" points="335,201 335,215 283,215 283,224.5 262.3,207 282,189.4 282,201 		"/>
		<polygon id="XMLID_844_" class="st4" points="171,285 171,299 222,299 222,308.1 242.2,290.6 222,273 222,285 		"/>
		<polyline id="XMLID_845_" class="st7" points="325,255 325,246 306.7,246 300.2,253 269,253 269,294 277,294 		"/>
		<g id="XMLID_851_">
			<path id="XMLID_21_" class="st1" d="M277.5,306c-1.1,0-2.5-0.9-2.5-2.1v-39.7c0-1.1,1.4-2.3,2.5-2.3h32.3l5.9-6.7
				c0.4-0.5,0.9-0.3,1.5-0.3h17.2c1.1,0,1.6,0.4,1.6,1.5v47.4c0,1.1-0.5,2.1-1.6,2.1H277.5z"/>
			<path id="XMLID_18_" class="st2" d="M334,257v47h-57v-40h33.8l6.5-7H334 M334.4,253h-17.2c-1.2,0-2.3,0.1-3.1,1.1l-5.3,5.9h-31.4
				c-2.2,0-4.5,2.1-4.5,4.3v39.7c0,2.2,2.3,4.1,4.5,4.1h56.9c2.2,0,3.6-1.8,3.6-4.1v-47.4C338,254.3,336.6,253,334.4,253L334.4,253z
				"/>
		</g>
	</g>
	<g id="XMLID_852_">
		<polyline id="XMLID_853_" class="st4" points="247,45 201,45 201,115 272,115 272,64 		"/>
		<path id="XMLID_854_" class="st5" d="M221.6,94.3c0,0,4.8-46.4,55-47.9"/>
		<polyline id="XMLID_855_" class="st5" points="254.4,37.5 275.3,45.8 259.5,63.7 		"/>
	</g>
	<g id="XMLID_856_">
		<path id="XMLID_857_" class="st9" d="M184,412v-13h5.7c0,0-1-7,4.7-7c7.3,0,19.9,0,19.9,0s4.8,0,4.8,8h47v12"/>
		<rect id="XMLID_858_" x="190" y="404" class="st10" width="71" height="6"/>
		<rect id="XMLID_859_" x="188" y="408" class="st1" width="75" height="4"/>
		<polygon id="XMLID_860_" class="st9" points="179.7,412.8 182.8,460 265.9,460 269.2,412.9 		"/>
	</g>
</g>
</svg>
