<?xml version="1.0" encoding="utf-8"?>
<!-- Generator: Adobe Illustrator 19.0.0, SVG Export Plug-In . SVG Version: 6.00 Build 0)  -->
<svg version="1.1" id="Layer_1" xmlns="http://www.w3.org/2000/svg" xmlns:xlink="http://www.w3.org/1999/xlink" x="0px" y="0px" height="400px" width="400px"
	 viewBox="0 0 500 500" style="enable-background:new 0 0 500 500;" xml:space="preserve">
<style type="text/css">
	.st0{fill:none;stroke:#C8C8C8;stroke-width:4;stroke-miterlimit:10;}
	.st1{fill:none;stroke:#005FAA;stroke-width:4;stroke-miterlimit:10;}
	.st2{fill:#C8C8C8;}
	.st3{fill:#FFFFFF;}
	.st4{fill:#FFFFFF;stroke:#C8C8C8;stroke-width:4;stroke-miterlimit:10;}
	.st5{fill:#FFFFFF;stroke:#005FAA;stroke-width:4;stroke-miterlimit:10;}
	.st6{fill:#A8CA16;stroke:#005FAA;stroke-width:4;stroke-miterlimit:10;}
	.st7{fill:#A8CA16;}
</style>
<g id="XMLID_1016_">
	<g id="XMLID_931_">
		<g id="XMLID_932_">
			<path id="XMLID_933_" class="st0" d="M271.6,213.3v-11.4h-8.1c-0.6-2.7-1.7-5.3-3.1-7.6l5.7-5.7l-8.1-8.1l-5.7,5.7
				c-2.3-1.4-4.8-2.5-7.6-3.1V175h-11.4v8.1c-2.7,0.6-5.3,1.7-7.6,3.1l-5.7-5.7l-8.1,8.1l5.7,5.7c-1.4,2.3-2.5,4.8-3.1,7.6h-8.1
				v11.4h8.1c0.6,2.7,1.7,5.3,3.1,7.6l-5.7,5.7l8.1,8.1l5.7-5.7c2.3,1.4,4.8,2.5,7.6,3.1v8.1h11.4v-8.1c2.7-0.6,5.3-1.7,7.6-3.1
				l5.7,5.7l8.1-8.1l-5.7-5.7c1.4-2.3,2.5-4.8,3.1-7.6H271.6z"/>
		</g>
		<circle id="XMLID_934_" class="st0" cx="239" cy="207.6" r="13.2"/>
	</g>
	<g id="XMLID_935_">
		<g id="XMLID_936_">
			<path id="XMLID_937_" class="st1" d="M145,256.5l12,58.6l25.8-4.7l-0.9-5.7c0,0,9-9.2,19-9c10,0.2,32.3,4.2,45.7,3
				c13.4-1.2,20.5-6.5,28.7-12.9c8.2-6.4,46.1-46.5,46.1-46.5s-4.4-6.9-14.4-4c-10.1,2.9-29.1,19.8-29.1,19.8s-8.8-8.6-22.9-6.1
				s-25.1,5.1-29.1,4.7c-4-0.4-17.3-7.8-33.1-2.2s-18.2,10.7-18.2,10.7l-2-11L145,256.5z"/>
			<line id="XMLID_938_" class="st1" x1="174.7" y1="262.3" x2="182" y2="305.6"/>
			<path id="XMLID_939_" class="st1" d="M234.6,271.4l46.1-6.9c0,0,2.8-5.9-3.2-9.3"/>
		</g>
	</g>
	<g id="XMLID_940_">
		<line id="XMLID_941_" class="st0" x1="25.7" y1="23.9" x2="25.7" y2="43.7"/>
		<line id="XMLID_1065_" class="st0" x1="35.6" y1="33.8" x2="15.8" y2="33.8"/>
	</g>
	<g id="XMLID_942_">
		<line id="XMLID_943_" class="st0" x1="301.4" y1="356.6" x2="301.4" y2="376.4"/>
		<line id="XMLID_1062_" class="st0" x1="311.3" y1="366.5" x2="291.5" y2="366.5"/>
	</g>
	<g id="XMLID_944_">
		<line id="XMLID_945_" class="st0" x1="454.1" y1="45.6" x2="454.1" y2="65.3"/>
		<line id="XMLID_1059_" class="st0" x1="464" y1="55.4" x2="444.2" y2="55.4"/>
	</g>
	<g id="XMLID_948_">
		<path id="XMLID_17_" class="st2" d="M420.3,445.4c0.5-1.6,1.3-1.6,1.9,0l0.6,1.9c0.5,1.6,2.3,2.9,3.9,2.9h2c1.6,0,1.9,0.8,0.6,1.8
			l-1.6,1.2c-1.3,1-2,3-1.5,4.6l0.6,1.9c0.5,1.6-0.2,2.1-1.5,1.1l-1.6-1.2c-1.3-1-3.5-1-4.9,0l-1.6,1.2c-1.3,1-2,0.5-1.5-1.1
			l0.6-1.9c0.5-1.6-0.2-3.6-1.5-4.6l-1.6-1.2c-1.3-1-1.1-1.8,0.6-1.8h2c1.7,0,3.4-1.3,3.9-2.9L420.3,445.4z"/>
	</g>
	<g id="XMLID_951_">
		<path id="XMLID_13_" class="st2" d="M349.5,6.9c0.5-1.6,1.3-1.6,1.9,0l0.6,1.9c0.5,1.6,2.3,2.9,3.9,2.9h2c1.6,0,1.9,0.8,0.6,1.8
			l-1.6,1.2c-1.3,1-2,3-1.5,4.6l0.6,1.9c0.5,1.6-0.2,2.1-1.5,1.1l-1.6-1.2c-1.3-1-3.5-1-4.9,0l-1.6,1.2c-1.3,1-2,0.5-1.5-1.1
			l0.6-1.9c0.5-1.6-0.2-3.6-1.5-4.6l-1.6-1.2c-1.3-1-1.1-1.8,0.6-1.8h2c1.7,0,3.4-1.3,3.9-2.9L349.5,6.9z"/>
	</g>
	<g id="XMLID_954_">
		<path id="XMLID_12_" class="st2" d="M14.9,404c0.5-1.6,1.3-1.6,1.9,0l0.6,1.9c0.5,1.6,2.3,2.9,3.9,2.9h2c1.6,0,1.9,0.8,0.6,1.8
			l-1.6,1.2c-1.3,1-2,3-1.5,4.6l0.6,1.9c0.5,1.6-0.2,2.1-1.5,1.1l-1.6-1.2c-1.3-1-3.5-1-4.9,0l-1.6,1.2c-1.3,1-2,0.5-1.5-1.1
			l0.6-1.9c0.5-1.6-0.2-3.6-1.5-4.6l-1.6-1.2c-1.3-1-1.1-1.8,0.6-1.8h2c1.7,0,3.4-1.3,3.9-2.9L14.9,404z"/>
	</g>
	<g id="XMLID_955_">
		<g id="XMLID_956_">
			<path id="XMLID_957_" class="st0" d="M95.3,109.8C133.9,71.2,185.1,50,239.6,50s105.7,21.2,144.3,59.8s59.8,89.8,59.8,144.3
				s-21.2,105.7-59.8,144.3s-89.8,59.8-144.3,59.8s-105.7-21.2-144.3-59.8S35.6,308.5,35.6,254S56.8,148.3,95.3,109.8z M239.6,85.2
				c-93.1,0-168.9,75.8-168.9,168.9s75.8,168.9,168.9,168.9c93.1,0,168.9-75.8,168.9-168.9S332.7,85.2,239.6,85.2z"/>
		</g>
		<polygon id="XMLID_1044_" class="st3" points="173.4,14.6 182.2,153.2 301.2,120.4 333.7,50.9 		"/>
		<polygon id="XMLID_1043_" class="st3" points="147.3,367.5 106.8,444.9 284.5,497.7 284.5,371 		"/>
		<polyline id="XMLID_1042_" class="st4" points="339.1,77 350.4,54.8 291.5,72 311.8,129.6 324,106.4 		"/>
		<polyline id="XMLID_1041_" class="st4" points="121,418.7 108.6,442.7 167.5,425.5 147.2,367.9 135.9,389.1 		"/>
	</g>
	<g id="XMLID_958_">
		<polyline id="XMLID_959_" class="st5" points="435.4,316.9 444.8,337.7 434.2,334.1 430.6,343.4 419.8,321.1 		"/>
		<polyline id="XMLID_960_" class="st5" points="404.2,316.9 394.9,337.7 405.5,334.1 409.1,343.4 419.8,321.1 		"/>
		<path id="XMLID_961_" class="st5" d="M454,290.4c0,2.4-4.6,4.3-5.2,6.6c-0.5,2.4,2.8,6.1,1.8,8.2c-1,2.2-6,1.8-7.5,3.7
			c-1.5,1.9-0.1,6.7-1.9,8.2c-1.9,1.5-6.2-1-8.4,0.1c-2.1,1-2.9,6-5.3,6.5c-2.3,0.5-5.2-3.6-7.6-3.6s-5.3,4.1-7.6,3.6
			c-2.4-0.5-3.2-5.5-5.3-6.5c-2.2-1-6.5,1.4-8.4-0.1c-1.9-1.5-0.4-6.3-1.9-8.2c-1.5-1.9-6.5-1.5-7.5-3.7c-1-2.1,2.3-5.8,1.8-8.2
			c-0.5-2.3-5.2-4.2-5.2-6.6c0-2.4,4.6-4.3,5.2-6.6c0.5-2.4-2.8-6.1-1.8-8.2c1-2.2,6-1.8,7.5-3.7c1.5-1.9,0.1-6.7,1.9-8.2
			c1.9-1.5,6.2,1,8.4-0.1c2.1-1,2.9-6,5.3-6.5c2.3-0.5,5.2,3.6,7.6,3.6c2.4,0,5.3-4.1,7.6-3.6c2.4,0.5,3.2,5.5,5.3,6.5
			c2.2,1,6.5-1.4,8.4,0.1c1.9,1.5,0.4,6.3,1.9,8.2c1.5,1.9,6.5,1.5,7.5,3.7c1,2.1-2.3,5.8-1.8,8.2C449.3,286,454,287.9,454,290.4z"
			/>
		<circle id="XMLID_962_" class="st6" cx="419.8" cy="290.4" r="23.3"/>
	</g>
	<g id="XMLID_963_">
		<path id="XMLID_964_" class="st5" d="M217.9,119.5c-4.5,0-9.7-0.9-13.2-2.3c-0.8-0.3-1.6-0.1-2.1,0.5c-2.3,2.5-5.4,4.3-8.6,5.1
			c1.8-3.5,2.3-7.6,1.2-11.5c-0.1-0.3-0.3-0.6-0.5-0.8c-4.4-4.5-6.8-10.2-6.8-16.1c0-13.6,13.8-25,30-25c15.4,0,28.9,10.7,28.9,25
			C246.8,108.3,233.8,119.5,217.9,119.5z"/>
		<path id="XMLID_965_" class="st7" d="M274.2,82.4c0.1-0.3,0.2-0.6,0.5-0.8c4.4-4.5,6.8-10.2,6.8-16.1c0-13.6-13.8-25-30-25
			c-15.2,0-27.7,10.2-28.8,23.2c1.2,0.1,2.5,0.2,3.7,0.4c0,0,0.1,0,0.1,0c3.7,0.6,7.3,1.7,10.5,3.4h0.1c4.8,2.5,9.3,6.4,12.9,12.1
			c1.9,3.4,3.1,7.1,3.4,11c4-0.2,8.3-1,11.3-2.2c0.8-0.3,1.6-0.1,2.1,0.5c2.3,2.5,5.4,4.3,8.6,5.1C273.6,90.4,273.1,86.3,274.2,82.4
			z"/>
	</g>
	<g id="XMLID_966_">
		<line id="XMLID_967_" class="st1" x1="223" y1="380" x2="223" y2="366"/>
		<path id="XMLID_968_" class="st1" d="M222,467h-7.3c0,0-5-0.9-5-5.4c0-4.5,1.5-23.6-3.3-29.8c-4.8-6.1-16.8-23.2-3.3-38.4
			c10.5-11.9,29.4-11.8,39.8,0.1c13.5,15.3,1.5,32.5-3.3,38.6c-4.8,6.1-3.3,25-3.3,29.5s-5,5.4-5,5.4H222"/>
		<path id="XMLID_969_" class="st1" d="M230.8,468c0,4.8-3.9,8.7-8.7,8.7s-8.7-3.9-8.7-8.7"/>
		<line id="XMLID_970_" class="st0" x1="202" y1="453" x2="244" y2="453"/>
		<line id="XMLID_1027_" class="st1" x1="247.6" y1="389.1" x2="256.7" y2="379.9"/>
		<line id="XMLID_1026_" class="st1" x1="199.5" y1="389.1" x2="190.4" y2="379.9"/>
		<line id="XMLID_1025_" class="st1" x1="256" y1="413" x2="268" y2="413"/>
		<line id="XMLID_1024_" class="st1" x1="177" y1="413" x2="189" y2="413"/>
		<line id="XMLID_971_" class="st0" x1="202" y1="460" x2="244" y2="460"/>
	</g>
	<g id="XMLID_972_">
		<path id="XMLID_973_" class="st6" d="M56.2,306.3c-39.8-39.8-40-80.3-40-80.3l40-18.2l40,18.2C96.3,225.9,94.7,267.8,56.2,306.3z"
			/>
		<polyline id="XMLID_974_" class="st1" points="38.3,255.2 48.6,270.2 78.8,235.7 		"/>
	</g>
</g>
</svg>
