<?xml version="1.0" encoding="utf-8"?>
<!-- Generator: Adobe Illustrator 19.0.0, SVG Export Plug-In . SVG Version: 6.00 Build 0)  -->
<svg version="1.1" id="Layer_1" xmlns="http://www.w3.org/2000/svg" xmlns:xlink="http://www.w3.org/1999/xlink" x="0px" y="0px" height="400px" width="400px"
	 viewBox="0 0 500 500" style="enable-background:new 0 0 500 500;" xml:space="preserve">
<style type="text/css">
	.st0{fill:none;stroke:#C8C8C8;stroke-width:4;stroke-miterlimit:10;}
	.st1{fill:#C8C8C8;}
	.st2{fill:#FFFFFF;}
	.st3{fill:#FFFFFF;stroke:#C8C8C8;stroke-width:4;stroke-miterlimit:10;}
	.st4{fill:#FFFFFF;stroke:#005FAA;stroke-width:4;stroke-miterlimit:10;}
	.st5{fill:none;stroke:#005FAA;stroke-width:4;stroke-miterlimit:10;}
	.st6{fill:#A8CA16;}
	.st7{fill:none;stroke:#A8CA16;stroke-width:4;stroke-miterlimit:10;}
</style>
<g id="XMLID_1002_">
	<g id="XMLID_861_">
		<line id="XMLID_862_" class="st0" x1="31.9" y1="23.6" x2="31.9" y2="43.1"/>
		<line id="XMLID_1091_" class="st0" x1="41.7" y1="33.4" x2="22.1" y2="33.4"/>
	</g>
	<g id="XMLID_863_">
		<line id="XMLID_864_" class="st0" x1="294.3" y1="330.8" x2="294.3" y2="350.3"/>
		<line id="XMLID_1088_" class="st0" x1="304.1" y1="340.5" x2="284.6" y2="340.5"/>
	</g>
	<g id="XMLID_865_">
		<line id="XMLID_866_" class="st0" x1="454.9" y1="45" x2="454.9" y2="64.5"/>
		<line id="XMLID_1082_" class="st0" x1="464.7" y1="54.8" x2="445.1" y2="54.8"/>
	</g>
	<g id="XMLID_869_">
		<path id="XMLID_17_" class="st1" d="M421.4,439.8c0.5-1.6,1.3-1.6,1.9,0l0.6,1.8c0.5,1.6,2.3,2.9,3.9,2.9h1.9
			c1.6,0,1.9,0.8,0.6,1.8l-1.5,1.1c-1.3,1-2,3-1.5,4.6l0.6,1.8c0.5,1.6-0.2,2.1-1.5,1.1l-1.5-1.1c-1.3-1-3.5-1-4.9,0l-1.5,1.1
			c-1.3,1-2,0.5-1.5-1.1l0.6-1.8c0.5-1.6-0.2-3.6-1.5-4.6l-1.5-1.1c-1.3-1-1.1-1.8,0.6-1.8h1.9c1.6,0,3.4-1.3,3.9-2.9L421.4,439.8z"
			/>
	</g>
	<g id="XMLID_872_">
		<path id="XMLID_13_" class="st1" d="M351.5,6.9c0.5-1.6,1.3-1.6,1.9,0l0.6,1.8c0.5,1.6,2.3,2.9,3.9,2.9h1.9c1.7,0,1.9,0.8,0.6,1.8
			l-1.5,1.1c-1.3,1-2,3-1.5,4.6l0.6,1.8c0.5,1.6-0.2,2.1-1.5,1.1l-1.5-1.1c-1.3-1-3.5-1-4.9,0l-1.5,1.1c-1.3,1-2,0.5-1.5-1.1
			l0.6-1.8c0.5-1.6-0.2-3.6-1.5-4.6l-1.5-1.1c-1.3-1-1.1-1.8,0.6-1.8h1.9c1.6,0,3.4-1.3,3.9-2.9L351.5,6.9z"/>
	</g>
	<g id="XMLID_875_">
		<path id="XMLID_12_" class="st1" d="M21.2,398.9c0.5-1.6,1.3-1.6,1.9,0l0.6,1.8c0.5,1.6,2.3,2.9,3.9,2.9h1.9
			c1.6,0,1.9,0.8,0.6,1.8l-1.5,1.1c-1.3,1-2,3-1.5,4.6l0.6,1.8c0.5,1.6-0.2,2.1-1.5,1.1l-1.5-1.1c-1.3-1-3.5-1-4.9,0l-1.5,1.1
			c-1.3,1-2,0.5-1.5-1.1l0.6-1.8c0.5-1.6-0.2-3.6-1.5-4.6l-1.5-1.1c-1.3-1-1.1-1.8,0.6-1.8h1.9c1.6,0,3.4-1.3,3.9-2.9L21.2,398.9z"
			/>
	</g>
	<g id="XMLID_876_">
		<g id="XMLID_877_">
			<path id="XMLID_878_" class="st0" d="M100.7,108.4c38-38,88.6-59,142.4-59s104.4,21,142.4,59s59,88.6,59,142.4
				s-21,104.4-59,142.4s-88.6,59-142.4,59s-104.4-21-142.4-59s-59-88.6-59-142.4S62.6,146.4,100.7,108.4z M243.1,84.1
				c-91.9,0-166.7,74.8-166.7,166.7s74.8,166.7,166.7,166.7c91.9,0,166.7-74.8,166.7-166.7S335,84.1,243.1,84.1z"/>
		</g>
		<polygon id="XMLID_1066_" class="st2" points="177.8,14.4 186.5,151.2 303.9,118.8 336,50.3 		"/>
		<polygon id="XMLID_1065_" class="st2" points="151.9,362.8 112,439.2 287.5,491.3 287.5,366.3 		"/>
		<polyline id="XMLID_1064_" class="st3" points="341.3,76 352.5,54.1 294.3,71.1 314.4,128 326.4,105 		"/>
		<polyline id="XMLID_1063_" class="st3" points="126,413.4 113.7,437.1 171.9,420.1 151.9,363.2 140.8,384.2 		"/>
	</g>
	<g id="XMLID_879_">
		<g id="XMLID_880_">
			<path id="XMLID_881_" class="st4" d="M67.7,325.1v-11h-7.8c-0.6-2.6-1.6-5.1-3-7.3l5.5-5.5l-7.8-7.8l-5.5,5.5
				c-2.2-1.4-4.7-2.4-7.3-3v-7.8h-11v7.8c-2.6,0.6-5.1,1.6-7.3,3l-5.5-5.5l-7.8,7.8l5.5,5.5c-1.4,2.2-2.4,4.7-3,7.3H5v11h7.8
				c0.6,2.6,1.6,5.1,3,7.3l-5.5,5.5l7.8,7.8l5.5-5.5c2.2,1.4,4.7,2.4,7.3,3v7.8h11v-7.8c2.6-0.6,5.1-1.6,7.3-3l5.5,5.5l7.8-7.8
				l-5.5-5.5c1.4-2.2,2.4-4.7,3-7.3H67.7z"/>
		</g>
		<circle id="XMLID_882_" class="st4" cx="36.4" cy="319.6" r="12.8"/>
	</g>
	<g id="XMLID_883_">
		<g id="XMLID_884_">
			<path id="XMLID_885_" class="st4" d="M379.3,265.6l7.1,34.9l15.4-2.8l-0.5-3.4c0,0,5.4-5.5,11.3-5.4c6,0.1,19.2,2.5,27.2,1.8
				s12.2-3.9,17.1-7.7c4.9-3.8,27.4-27.6,27.4-27.6s-2.6-4.1-8.6-2.4s-17.3,11.8-17.3,11.8s-5.3-5.1-13.6-3.6
				c-8.3,1.5-14.9,3-17.3,2.8s-10.3-4.7-19.7-1.3c-9.4,3.3-10.9,6.4-10.9,6.4l-1.2-6.6L379.3,265.6z"/>
			<line id="XMLID_886_" class="st4" x1="396.9" y1="269.1" x2="401.3" y2="294.8"/>
			<path id="XMLID_887_" class="st4" d="M432.6,274.5l27.4-4.1c0,0,1.6-3.5-1.9-5.5"/>
		</g>
		<g id="XMLID_888_">
			<circle id="XMLID_889_" class="st4" cx="436.9" cy="231.2" r="24.7"/>
			<polyline id="XMLID_890_" class="st4" points="435,213 435,235 450,235 			"/>
		</g>
	</g>
	<g id="XMLID_891_">
		<line id="XMLID_892_" class="st0" x1="201" y1="314" x2="274" y2="314"/>
		<line id="XMLID_893_" class="st5" x1="238" y1="163" x2="238" y2="139"/>
		<g id="XMLID_894_">
			<path id="XMLID_895_" class="st5" d="M235,328h-12.3c0,0-9.3-2.8-9.3-11c0-8.3,2.8-44-6.1-55.3c-8.8-11.2-30.8-42.9-6.1-70.9
				c19.2-21.8,54-21.9,73.2,0c24.7,28.1,2.8,59.6-6.1,70.9c-8.8,11.2-6.1,47.1-6.1,55.3c0,8.3-9.3,11-9.3,11H235"/>
			<path id="XMLID_896_" class="st5" d="M252.4,327.6c0,8.8-7.1,16-16,16s-16-7.1-16-16"/>
			<line id="XMLID_897_" class="st0" x1="201" y1="298" x2="274" y2="298"/>
			<line id="XMLID_1044_" class="st5" x1="283.2" y1="182.5" x2="300" y2="165.7"/>
			<line id="XMLID_1043_" class="st5" x1="194.9" y1="182.5" x2="178.1" y2="165.7"/>
			<line id="XMLID_1042_" class="st5" x1="296" y1="225" x2="321" y2="225"/>
			<line id="XMLID_1041_" class="st5" x1="154" y1="225" x2="178" y2="225"/>
			<g id="XMLID_898_">
				<path id="XMLID_899_" class="st0" d="M234.8,242.6V237c-2.9,0-5.9-1-7.6-2.4l1.1-2c1.7,1.3,4.3,2.3,7,2.3c4.3,0,7.2-2.8,7.2-6.5
					c0-3.5-2.3-5.7-6.3-7.4c-5.3-2.3-8.4-4.7-8.4-9c0-4.3,3.1-7.5,7.5-8.1v-5.6h2.2v5.5c3,0.1,5.1,1,6.5,1.9l-1.1,2
					c-1-0.6-3.1-1.8-6.2-1.8c-4.5,0-6.4,3.1-6.4,5.7c0,3.4,2,5,6.8,7.1c5,2.3,8,5,8,9.6c0,4-2.7,7.9-7.9,8.7v5.7H234.8z"/>
			</g>
			<path id="XMLID_901_" class="st0" d="M265.5,229.5c-4.4,11.6-15.5,19.8-28.6,19.8c-14.3,0-26.3-9.8-29.7-23"/>
			<path id="XMLID_902_" class="st0" d="M207.7,209.2c4-12.2,15.5-21.1,29.1-21.1c13.3,0,24.5,8.4,28.8,20.2"/>
			<polygon id="XMLID_903_" class="st1" points="205.1,199.3 206,217 218.1,205.5 			"/>
			<polygon id="XMLID_1034_" class="st1" points="270.8,234.1 269.9,216.4 257.8,227.9 			"/>
		</g>
	</g>
	<g id="XMLID_904_">
		<path id="XMLID_905_" class="st6" d="M106.4,195.9v-9.5c-4.8,0-10-1.6-13-4.1l1.8-3.4c2.9,2.3,7.3,3.9,11.9,3.9
			c7.3,0,12.2-4.8,12.2-11c0-5.9-3.9-9.6-10.7-12.6c-9-3.9-14.3-8-14.3-15.4c0-7.3,5.2-12.7,12.7-13.8v-9.5h3.7v9.4
			c5.1,0.2,8.6,1.7,11,3.3l-1.9,3.4c-1.7-1.1-5.2-3.1-10.6-3.1c-7.7,0-10.8,5.2-10.8,9.6c0,5.8,3.5,8.4,11.5,12
			c8.5,3.9,13.5,8.4,13.5,16.4c0,6.8-4.6,13.4-13.3,14.8v9.6H106.4z"/>
	</g>
	<g id="XMLID_907_">
		<path id="XMLID_908_" class="st4" d="M255,55V39.5c0-0.8-0.7-0.5-1.5-0.5h-40L200,52.7v59.7c0,0.8-0.1,1.6,0.6,1.6H235"/>
		<polyline id="XMLID_909_" class="st5" points="200,54 215,54 215,39 		"/>
		<line id="XMLID_910_" class="st5" x1="222" y1="47" x2="248" y2="47"/>
		<rect id="XMLID_911_" x="241" y="61" class="st7" width="28" height="14"/>
		<rect id="XMLID_912_" x="241" y="81" class="st7" width="6" height="6"/>
		<rect id="XMLID_913_" x="263" y="81" class="st7" width="6" height="6"/>
		<rect id="XMLID_914_" x="252" y="81" class="st7" width="6" height="6"/>
		<rect id="XMLID_915_" x="241" y="92" class="st7" width="6" height="6"/>
		<rect id="XMLID_916_" x="263" y="92" class="st7" width="6" height="6"/>
		<rect id="XMLID_917_" x="252" y="92" class="st7" width="6" height="6"/>
		<rect id="XMLID_918_" x="241" y="102" class="st7" width="6" height="6"/>
		<rect id="XMLID_919_" x="263" y="102" class="st7" width="6" height="6"/>
		<rect id="XMLID_920_" x="252" y="102" class="st7" width="6" height="6"/>
		<line id="XMLID_921_" class="st5" x1="206" y1="91" x2="235" y2="91"/>
		<line id="XMLID_922_" class="st5" x1="206" y1="100" x2="235" y2="100"/>
		<line id="XMLID_923_" class="st5" x1="206" y1="109" x2="235" y2="109"/>
		<g id="XMLID_924_">
			<path id="XMLID_925_" class="st5" d="M213.6,83.5v-2.8c-1.4,0-2.9-0.5-3.8-1.2l0.5-1c0.8,0.7,2.1,1.1,3.4,1.1
				c2.1,0,3.5-1.4,3.5-3.2c0-1.7-1.1-2.8-3.1-3.7c-2.6-1.1-4.1-2.3-4.1-4.4c0-2.1,1.5-3.7,3.7-4v-2.8h1.1v2.7c1.5,0.1,2.5,0.5,3.2,1
				l-0.6,1c-0.5-0.3-1.5-0.9-3.1-0.9c-2.2,0-3.1,1.5-3.1,2.8c0,1.7,1,2.4,3.3,3.5c2.5,1.1,3.9,2.4,3.9,4.7c0,2-1.3,3.9-3.9,4.3v2.8
				H213.6z"/>
		</g>
		<path id="XMLID_927_" class="st7" d="M276,113.6c0,0.8-0.6,1.4-1.4,1.4h-38.3c-0.8,0-1.4-0.6-1.4-1.4V56.4c0-0.8,0.6-1.4,1.4-1.4
			h38.3c0.8,0,1.4,0.6,1.4,1.4V113.6z"/>
	</g>
	<g id="XMLID_928_">
		<path id="XMLID_929_" class="st5" d="M223.8,477.1c-40.2-40.2-40.4-81.1-40.4-81.1l40.4-18.3l40.4,18.3
			C264.2,396,262.6,438.3,223.8,477.1z"/>
		<polyline id="XMLID_930_" class="st5" points="205.7,425.6 216.1,440.7 246.6,405.9 		"/>
	</g>
</g>
</svg>
