<?xml version="1.0" encoding="utf-8"?>
<!-- Generator: Adobe Illustrator 19.0.0, SVG Export Plug-In . SVG Version: 6.00 Build 0)  -->
<svg version="1.1" id="Layer_1" xmlns="http://www.w3.org/2000/svg" xmlns:xlink="http://www.w3.org/1999/xlink" x="0px" y="0px"  height="400px" width="400px"
	 viewBox="0 0 500 500" style="enable-background:new 0 0 500 500;" xml:space="preserve">
<style type="text/css">
	.st0{fill:#FFFFFF;stroke:#005FAA;stroke-width:4;stroke-miterlimit:10;}
	.st1{fill:#C8C8C8;stroke:#C8C8C8;stroke-width:4.215;stroke-linecap:round;stroke-linejoin:round;stroke-miterlimit:10;}
	.st2{fill:#FFFFFF;stroke:#C8C8C8;stroke-width:4.215;stroke-linecap:round;stroke-linejoin:round;stroke-miterlimit:10;}
	.st3{fill:#FFFFFF;}
	.st4{fill:none;stroke:#C8C8C8;stroke-width:4;stroke-miterlimit:10;}
	.st5{fill:#C8C8C8;}
	.st6{fill:#FFFFFF;stroke:#C8C8C8;stroke-width:4;stroke-miterlimit:10;}
	.st7{fill:none;stroke:#005FAA;stroke-width:4;stroke-miterlimit:10;}
	.st8{fill:none;stroke:#A8CA16;stroke-width:4;stroke-miterlimit:10;}
	.st9{fill:#005FAA;}
</style>
<g id="XMLID_899_">
	<g id="XMLID_236_">
		<rect id="XMLID_241_" x="178.9" y="176.2" class="st0" width="86.1" height="115.1"/>
		<polygon id="XMLID_242_" class="st1" points="280.3,306.6 194.2,306.6 194.2,191.5 255.1,191.5 280.3,216.6 		"/>
		<polygon id="XMLID_243_" class="st2" points="255.1,216.6 280.3,216.6 255.1,191.5 		"/>
		<rect id="XMLID_244_" x="203.3" y="223.4" class="st3" width="68.6" height="6.9"/>
		<rect id="XMLID_245_" x="203.3" y="240.4" class="st3" width="68.6" height="6.9"/>
		<rect id="XMLID_246_" x="203.3" y="257.5" class="st3" width="68.6" height="6.9"/>
		<rect id="XMLID_247_" x="203.3" y="274.5" class="st3" width="68.6" height="6.9"/>
		<rect id="XMLID_248_" x="203.3" y="291.8" class="st3" width="68.6" height="6.9"/>
	</g>
	<g id="XMLID_664_">
		<line id="XMLID_665_" class="st4" x1="26.9" y1="25.4" x2="26.9" y2="44.7"/>
		<line id="XMLID_991_" class="st4" x1="36.6" y1="35.1" x2="17.2" y2="35.1"/>
	</g>
	<g id="XMLID_666_">
		<line id="XMLID_667_" class="st4" x1="296.2" y1="350.3" x2="296.2" y2="369.6"/>
		<line id="XMLID_988_" class="st4" x1="305.8" y1="360" x2="286.5" y2="360"/>
	</g>
	<g id="XMLID_668_">
		<line id="XMLID_669_" class="st4" x1="445.3" y1="46.6" x2="445.3" y2="65.9"/>
		<line id="XMLID_985_" class="st4" x1="455" y1="56.2" x2="435.7" y2="56.2"/>
	</g>
	<g id="XMLID_672_">
		<path id="XMLID_17_" class="st5" d="M412.2,437.1c0.5-1.6,1.3-1.6,1.9,0l0.6,1.7c0.5,1.6,2.3,2.9,3.9,2.9h1.8
			c1.6,0,1.9,0.8,0.6,1.8l-1.5,1.1c-1.3,1-2,3-1.5,4.6l0.6,1.7c0.5,1.6-0.2,2.1-1.5,1.1l-1.5-1.1c-1.3-1-3.5-1-4.9,0l-1.5,1.1
			c-1.3,1-2,0.5-1.5-1.1l0.6-1.7c0.5-1.6-0.2-3.6-1.5-4.6l-1.5-1.1c-1.3-1-1.1-1.8,0.6-1.8h1.8c1.7,0,3.4-1.3,3.9-2.9L412.2,437.1z"
			/>
	</g>
	<g id="XMLID_675_">
		<path id="XMLID_13_" class="st5" d="M343.1,8.9c0.5-1.6,1.3-1.6,1.9,0l0.6,1.7c0.5,1.6,2.3,2.9,3.9,2.9h1.8c1.6,0,1.9,0.8,0.6,1.8
			l-1.5,1.1c-1.3,1-2,3-1.5,4.6l0.6,1.7c0.5,1.6-0.2,2.1-1.5,1.1l-1.5-1.1c-1.3-1-3.5-1-4.9,0l-1.5,1.1c-1.3,1-2,0.5-1.5-1.1
			l0.6-1.7c0.5-1.6-0.2-3.6-1.5-4.6l-1.5-1.1c-1.3-1-1.1-1.8,0.6-1.8h1.8c1.6,0,3.4-1.3,3.9-2.9L343.1,8.9z"/>
	</g>
	<g id="XMLID_678_">
		<path id="XMLID_12_" class="st5" d="M16.3,396.7c0.5-1.6,1.3-1.6,1.9,0l0.6,1.7c0.5,1.6,2.3,2.9,3.9,2.9h1.8
			c1.6,0,1.9,0.8,0.6,1.8l-1.5,1.1c-1.3,1-2,3-1.5,4.6l0.6,1.7c0.5,1.6-0.2,2.1-1.5,1.1l-1.5-1.1c-1.3-1-3.5-1-4.9,0l-1.5,1.1
			c-1.3,1-2,0.5-1.5-1.1l0.6-1.7c0.5-1.6-0.2-3.6-1.5-4.6l-1.5-1.1c-1.3-1-1.1-1.8,0.6-1.8h1.8c1.7,0,3.4-1.3,3.9-2.9L16.3,396.7z"
			/>
	</g>
	<g id="XMLID_679_">
		<g id="XMLID_680_">
			<path id="XMLID_681_" class="st4" d="M94.9,109.3c37.6-37.6,87.7-58.4,140.9-58.4s103.3,20.7,140.9,58.4s58.4,87.7,58.4,140.9
				s-20.7,103.3-58.4,140.9s-87.7,58.4-140.9,58.4s-103.3-20.7-140.9-58.4s-58.4-87.7-58.4-140.9S57.3,146.9,94.9,109.3z
				 M235.8,85.3c-90.9,0-164.9,74-164.9,164.9s74,164.9,164.9,164.9c90.9,0,164.9-74,164.9-164.9S326.8,85.3,235.8,85.3z"/>
		</g>
		<polygon id="XMLID_970_" class="st3" points="171.2,16.3 179.8,151.6 296,119.6 327.7,51.8 		"/>
		<polygon id="XMLID_969_" class="st3" points="145.6,361 106.1,436.6 279.7,488.1 279.7,364.4 		"/>
		<polyline id="XMLID_968_" class="st6" points="333,77.2 344,55.6 286.5,72.4 306.3,128.7 318.2,106 		"/>
		<polyline id="XMLID_967_" class="st6" points="120,411 107.8,434.4 165.4,417.7 145.6,361.4 134.6,382.1 		"/>
	</g>
	<circle id="XMLID_682_" class="st4" cx="232.2" cy="70.9" r="46.9"/>
	<g id="XMLID_711_">
		<path id="XMLID_712_" class="st0" d="M236,402v-14c0-0.7-0.3-2-1-2h-39.6L181,401.1v59.1c0,0.7,0.9,0.8,1.7,0.8H216"/>
		<polyline id="XMLID_713_" class="st7" points="181,401 196,401 196,386 		"/>
		<line id="XMLID_714_" class="st7" x1="203" y1="394" x2="229" y2="394"/>
		<rect id="XMLID_715_" x="222" y="408" class="st8" width="28" height="14"/>
		<rect id="XMLID_716_" x="222" y="428" class="st8" width="6" height="5"/>
		<rect id="XMLID_717_" x="244" y="428" class="st8" width="6" height="5"/>
		<rect id="XMLID_718_" x="233" y="428" class="st8" width="6" height="5"/>
		<rect id="XMLID_719_" x="222" y="438" class="st8" width="6" height="6"/>
		<rect id="XMLID_720_" x="244" y="438" class="st8" width="6" height="6"/>
		<rect id="XMLID_721_" x="233" y="438" class="st8" width="6" height="6"/>
		<rect id="XMLID_722_" x="222" y="449" class="st8" width="6" height="6"/>
		<rect id="XMLID_723_" x="244" y="449" class="st8" width="6" height="6"/>
		<rect id="XMLID_724_" x="233" y="449" class="st8" width="6" height="6"/>
		<line id="XMLID_725_" class="st7" x1="187" y1="438" x2="216" y2="438"/>
		<line id="XMLID_726_" class="st7" x1="187" y1="446" x2="216" y2="446"/>
		<line id="XMLID_727_" class="st7" x1="187" y1="456" x2="216" y2="456"/>
		<g id="XMLID_728_">
			<path id="XMLID_729_" class="st7" d="M195.5,431.6v-2.7c-1.4,0-2.9-0.5-3.7-1.2l0.5-1c0.8,0.7,2.1,1.1,3.4,1.1
				c2.1,0,3.5-1.4,3.5-3.1c0-1.7-1.1-2.8-3.1-3.6c-2.6-1.1-4.1-2.3-4.1-4.4c0-2.1,1.5-3.6,3.6-4V410h1.1v2.7
				c1.5,0.1,2.5,0.5,3.1,0.9l-0.6,1c-0.5-0.3-1.5-0.9-3-0.9c-2.2,0-3.1,1.5-3.1,2.8c0,1.7,1,2.4,3.3,3.4c2.4,1.1,3.9,2.4,3.9,4.7
				c0,1.9-1.3,3.9-3.8,4.2v2.8H195.5z"/>
		</g>
		<path id="XMLID_731_" class="st8" d="M256,459.6c0,0.7-0.6,1.4-1.4,1.4h-37.3c-0.7,0-1.4-0.6-1.4-1.4v-56.3c0-0.7,0.6-1.4,1.4-1.4
			h37.3c0.7,0,1.4,0.6,1.4,1.4V459.6z"/>
	</g>
	<g id="XMLID_732_">
		<path id="XMLID_733_" class="st7" d="M214,90h-10c0,0,0,1.7,0,5.3c0,3.6,1.7,5.4,5.4,5.4c4.4,0,4.6-5.8,4.6-5.8s0-40.8,0-46.8
			s3.6-7.1,3.6-7.1H256c0,0,0.4,0.4,1,0.4c1.8,0.2,6,0.3,6,5.2c0,5.9,0,4.4,0,4.4h-10v-4.2c0,0,0.1-5.1,4.8-5.1"/>
		<g id="XMLID_734_">
			<path id="XMLID_735_" class="st9" d="M221.4,65.2V63c-1.3,0-2.6-0.4-3.3-1l0.5-1.4c0.8,0.5,1.9,0.9,3.1,0.9
				c1.5,0,2.6-0.9,2.6-2.1c0-1.2-0.8-1.9-2.4-2.6c-2.2-0.9-3.6-1.9-3.6-3.7c0-1.8,1.3-3.2,3.3-3.5v-2.2h1.3v2.1
				c1.3,0,2.2,0.4,2.8,0.8l-0.5,1.4c-0.5-0.3-1.3-0.7-2.7-0.7c-1.7,0-2.3,1-2.3,1.9c0,1.1,0.8,1.7,2.7,2.5c2.2,0.9,3.4,2,3.4,4
				c0,1.7-1.2,3.3-3.4,3.7v2.2H221.4z"/>
		</g>
		<line id="XMLID_737_" class="st7" x1="230" y1="54" x2="247" y2="54"/>
		<line id="XMLID_738_" class="st7" x1="218" y1="71" x2="242" y2="71"/>
		<line id="XMLID_739_" class="st7" x1="218" y1="81" x2="251" y2="81"/>
		<line id="XMLID_740_" class="st7" x1="218" y1="91" x2="247" y2="91"/>
		<circle id="XMLID_741_" class="st7" cx="253.1" cy="71.2" r="10.4"/>
		<polyline id="XMLID_742_" class="st7" points="247.5,72.8 250.4,75.4 258.7,66.5 		"/>
		<line id="XMLID_743_" class="st7" x1="253" y1="51" x2="253" y2="61"/>
		<path id="XMLID_744_" class="st7" d="M253,81v13.3c0,0-0.2,5.7-5.5,5.7c-5.2,0-38.5,0-38.5,0"/>
	</g>
	<g id="XMLID_745_">
		<g id="XMLID_746_">
			<path id="XMLID_747_" class="st0" d="M12.9,272.9l9.3,45.5l20.1-3.7l-0.7-4.4c0,0,7-7.2,14.8-7s25.1,3.3,35.5,2.3
				s15.9-5.1,22.3-10c6.4-4.9,35.8-36.1,35.8-36.1s-3.4-5.4-11.2-3.1c-7.8,2.3-22.6,15.4-22.6,15.4s-6.9-6.7-17.8-4.7
				s-19.5,4-22.6,3.7s-13.4-6.1-25.7-1.7c-12.3,4.4-14.2,8.3-14.2,8.3l-1.6-8.6L12.9,272.9z"/>
			<line id="XMLID_748_" class="st0" x1="35.9" y1="277.4" x2="41.7" y2="311"/>
			<path id="XMLID_749_" class="st0" d="M82.5,284.5l35.8-5.4c0,0,2.1-4.5-2.4-7.2"/>
		</g>
		<g id="XMLID_750_">
			<circle id="XMLID_751_" class="st0" cx="88.2" cy="228" r="32.2"/>
			<polyline id="XMLID_752_" class="st0" points="85,204 85,232 105,232 			"/>
		</g>
	</g>
</g>
</svg>
