<?xml version="1.0" encoding="utf-8"?>
<!-- Generator: Adobe Illustrator 19.0.0, SVG Export Plug-In . SVG Version: 6.00 Build 0)  -->
<svg version="1.1" id="Layer_1" xmlns="http://www.w3.org/2000/svg" xmlns:xlink="http://www.w3.org/1999/xlink" x="0px" y="0px"  height="400px" width="400px"
	 viewBox="0 0 500 500" style="enable-background:new 0 0 500 500;" xml:space="preserve">
<style type="text/css">
	.st0{fill:none;stroke:#C8C8C8;stroke-width:4;stroke-miterlimit:10;}
	.st1{fill:none;stroke:#005FAA;stroke-width:4;stroke-miterlimit:10;}
	.st2{fill:#C8C8C8;}
	.st3{fill:#FFFFFF;}
	.st4{fill:#FFFFFF;stroke:#C8C8C8;stroke-width:4;stroke-miterlimit:10;}
	.st5{fill:#FFFFFF;stroke:#005FAA;stroke-width:4;stroke-miterlimit:10;}
	.st6{fill:#A8CA16;stroke:#005FAA;stroke-width:4;stroke-miterlimit:10;}
</style>
<g id="XMLID_871_">
	<g id="XMLID_343_">
		<g id="XMLID_344_">
			<path id="XMLID_345_" class="st0" d="M269.2,211.3v-11.4h-8c-0.6-2.7-1.7-5.3-3.1-7.5l5.7-5.7l-8-8l-5.7,5.7
				c-2.3-1.4-4.8-2.5-7.5-3.1v-8h-11.4v8c-2.7,0.6-5.3,1.7-7.5,3.1l-5.7-5.7l-8,8l5.7,5.7c-1.4,2.3-2.5,4.8-3.1,7.5h-8v11.4h8
				c0.6,2.7,1.7,5.3,3.1,7.5l-5.7,5.7l8,8l5.7-5.7c2.3,1.4,4.8,2.5,7.5,3.1v8h11.4v-8c2.7-0.6,5.3-1.7,7.5-3.1l5.7,5.7l8-8l-5.7-5.7
				c1.4-2.3,2.5-4.8,3.1-7.5H269.2z"/>
		</g>
		<circle id="XMLID_346_" class="st0" cx="236.3" cy="205.2" r="13.2"/>
	</g>
	<g id="XMLID_347_">
		<g id="XMLID_348_">
			<path id="XMLID_349_" class="st1" d="M143,253.9l11.9,58.3l25.7-4.7l-0.9-5.6c0,0,8.9-9.1,18.9-8.9c10,0.2,32.1,4.2,45.4,2.9
				s20.3-6.5,28.5-12.8c8.1-6.3,45.8-46.2,45.8-46.2s-4.4-6.9-14.3-4c-10.1,2.9-28.9,19.7-28.9,19.7s-8.8-8.5-22.8-6.1
				c-13.9,2.5-24.9,5.1-29,4.7c-4-0.4-17.2-7.8-32.9-2.2s-18.2,10.7-18.2,10.7l-2-11L143,253.9z"/>
			<line id="XMLID_350_" class="st1" x1="172.4" y1="259.7" x2="179.8" y2="302.7"/>
			<path id="XMLID_351_" class="st1" d="M232.1,268.7l45.8-6.9c0,0,2.7-5.8-3.1-9.2"/>
		</g>
	</g>
	<g id="XMLID_624_">
		<line id="XMLID_625_" class="st0" x1="24.6" y1="23.1" x2="24.6" y2="42.7"/>
		<line id="XMLID_925_" class="st0" x1="34.5" y1="32.8" x2="14.9" y2="32.8"/>
	</g>
	<g id="XMLID_626_">
		<line id="XMLID_627_" class="st0" x1="298.8" y1="353.9" x2="298.8" y2="373.6"/>
		<line id="XMLID_922_" class="st0" x1="308.7" y1="363.7" x2="289" y2="363.7"/>
	</g>
	<g id="XMLID_628_">
		<line id="XMLID_629_" class="st0" x1="450.7" y1="44.6" x2="450.7" y2="64.2"/>
		<line id="XMLID_919_" class="st0" x1="460.6" y1="54.5" x2="440.8" y2="54.5"/>
	</g>
	<g id="XMLID_632_">
		<path id="XMLID_17_" class="st2" d="M417,442.2c0.5-1.6,1.3-1.6,1.9,0l0.6,1.7c0.5,1.6,2.3,2.9,4,2.9h1.8c1.7,0,1.9,0.8,0.6,1.8
			l-1.5,1.1c-1.3,1-2,3-1.5,4.7l0.6,1.7c0.5,1.6-0.2,2.1-1.5,1.1l-1.5-1.1c-1.3-1-3.6-1-5,0l-1.5,1.1c-1.3,1-2,0.5-1.5-1.1l0.6-1.7
			c0.5-1.6-0.2-3.7-1.5-4.7l-1.5-1.1c-1.3-1-1.1-1.8,0.6-1.8h1.8c1.6,0,3.5-1.3,4-2.9L417,442.2z"/>
	</g>
	<g id="XMLID_635_">
		<path id="XMLID_13_" class="st2" d="M346.6,6.2c0.5-1.6,1.3-1.6,1.9,0l0.6,1.7c0.5,1.6,2.3,2.9,4,2.9h1.8c1.6,0,1.9,0.8,0.6,1.8
			l-1.5,1.1c-1.3,1-2,3-1.5,4.7l0.6,1.7c0.5,1.6-0.2,2.1-1.5,1.1l-1.5-1.1c-1.3-1-3.6-1-5,0l-1.5,1.1c-1.3,1-2,0.5-1.5-1.1l0.6-1.7
			c0.5-1.6-0.2-3.7-1.5-4.7l-1.5-1.1c-1.3-1-1.1-1.8,0.6-1.8h1.8c1.6,0,3.5-1.3,4-2.9L346.6,6.2z"/>
	</g>
	<g id="XMLID_638_">
		<path id="XMLID_12_" class="st2" d="M13.9,401.1c0.5-1.6,1.3-1.6,1.9,0l0.6,1.7c0.5,1.6,2.3,2.9,4,2.9h1.8c1.6,0,1.9,0.8,0.6,1.8
			l-1.5,1.1c-1.3,1-2,3-1.5,4.7l0.6,1.7c0.5,1.6-0.2,2.1-1.5,1.1l-1.5-1.1c-1.3-1-3.6-1-5,0l-1.5,1.1c-1.3,1-2,0.5-1.5-1.1l0.6-1.7
			c0.5-1.6-0.2-3.7-1.5-4.7l-1.5-1.1c-1.3-1-1.1-1.8,0.6-1.8h1.8c1.6,0,3.5-1.3,4-2.9L13.9,401.1z"/>
	</g>
	<g id="XMLID_639_">
		<g id="XMLID_640_">
			<path id="XMLID_641_" class="st0" d="M93.9,108.4C132.2,70.1,183.2,49,237.4,49s105.1,21.1,143.4,59.4s59.4,89.3,59.4,143.4
				S419.1,357,380.8,395.3s-89.3,59.4-143.4,59.4s-105.1-21.1-143.4-59.4S34.5,306,34.5,251.9S55.6,146.7,93.9,108.4z M237.4,84
				C144.8,84,69.4,159.3,69.4,252s75.3,167.9,167.9,167.9c92.5,0,167.9-75.3,167.9-167.9S330,84,237.4,84z"/>
		</g>
		<polygon id="XMLID_900_" class="st3" points="171.6,13.8 180.4,151.6 298.6,119 330.9,49.9 		"/>
		<polygon id="XMLID_899_" class="st3" points="145.6,364.7 105.4,441.6 282.1,494.2 282.1,368.2 		"/>
		<polyline id="XMLID_898_" class="st4" points="336.3,75.8 347.6,53.8 289,70.8 309.2,128.2 321.3,105.1 		"/>
		<polyline id="XMLID_897_" class="st4" points="119.4,415.6 107.1,439.5 165.6,422.4 145.5,365.1 134.4,386.3 		"/>
	</g>
	<circle id="XMLID_642_" class="st0" cx="233.3" cy="68.9" r="47.7"/>
	<g id="XMLID_643_">
		<polyline id="XMLID_644_" class="st5" points="431.7,313.9 441,334.6 430.5,331 426.9,340.2 416.2,318.1 		"/>
		<polyline id="XMLID_645_" class="st5" points="400.7,313.9 391.4,334.6 401.9,331 405.5,340.2 416.2,318.1 		"/>
		<path id="XMLID_646_" class="st5" d="M450.1,287.6c0,2.4-4.7,4.3-5.2,6.6c-0.5,2.3,2.8,6,1.8,8.1c-1,2.1-6,1.8-7.5,3.7
			c-1.5,1.8-0.1,6.6-1.9,8.1c-1.8,1.5-6.2-0.9-8.3,0.1c-2.1,1-2.9,6-5.3,6.5c-2.2,0.5-5.1-3.6-7.5-3.6s-5.3,4.1-7.5,3.6
			c-2.3-0.5-3.1-5.5-5.3-6.5c-2.1-1-6.5,1.4-8.3-0.1s-0.4-6.3-1.9-8.1c-1.5-1.8-6.5-1.5-7.5-3.7c-1-2.1,2.3-5.8,1.8-8.1
			c-0.5-2.2-5.2-4.2-5.2-6.6c0-2.4,4.7-4.3,5.2-6.6c0.5-2.3-2.8-6-1.8-8.1c1-2.1,6-1.8,7.5-3.7s0.1-6.6,1.9-8.1
			c1.8-1.5,6.2,0.9,8.3-0.1c2.1-1,2.9-6,5.3-6.5c2.2-0.5,5.1,3.6,7.5,3.6s5.3-4.1,7.5-3.6c2.3,0.5,3.1,5.5,5.3,6.5
			c2.1,1,6.5-1.4,8.3,0.1s0.4,6.3,1.9,8.1c1.5,1.8,6.5,1.5,7.5,3.7c1,2.1-2.3,5.8-1.8,8.1C445.5,283.3,450.1,285.2,450.1,287.6z"/>
		<circle id="XMLID_647_" class="st6" cx="416.3" cy="287.6" r="23.2"/>
	</g>
	<g id="XMLID_648_">
		<polyline id="XMLID_649_" class="st1" points="13.4,210.2 39.1,186.6 57.7,205.9 93.5,171.7 		"/>
		<polygon id="XMLID_650_" class="st5" points="107.8,184.8 78.3,157.8 112.9,149.9 		"/>
	</g>
	<g id="XMLID_651_">
		<g id="XMLID_652_">
			<path id="XMLID_653_" class="st0" d="M250.7,426.2v-7.8h-5.5c-0.4-1.8-1.1-3.6-2.1-5.2l3.9-3.9l-5.5-5.5l-3.9,3.9
				c-1.5-1-3.4-1.7-5.2-2.1v-5.5h-7.8v5.5c-1.8,0.4-3.6,1.1-5.2,2.1l-3.9-3.9l-5.5,5.5l3.9,3.9c-1,1.5-1.7,3.4-2.1,5.2h-5.5v7.8h5.5
				c0.4,1.8,1.1,3.6,2.1,5.2l-3.9,3.9l5.5,5.5l3.9-3.9c1.5,1,3.4,1.7,5.2,2.1v5.5h7.8V439c1.8-0.4,3.6-1.1,5.2-2.1l3.9,3.9l5.5-5.5
				l-3.9-3.9c1-1.5,1.7-3.4,2.1-5.2H250.7z"/>
		</g>
		<circle id="XMLID_654_" class="st0" cx="228" cy="421.9" r="9"/>
	</g>
	<g id="XMLID_655_">
		<polyline id="XMLID_656_" class="st1" points="193.9,461 184.7,461 184.7,376.9 193.6,366.6 250.8,366.6 250.8,374.7 		"/>
		<polyline id="XMLID_657_" class="st1" points="184.7,376.7 194.9,376.7 194.9,366.6 		"/>
	</g>
	<g id="XMLID_658_">
		<polygon id="XMLID_659_" class="st1" points="261.9,468.1 193.9,468.1 193.9,385.3 202.8,374.7 261.9,374.7 		"/>
		<polyline id="XMLID_660_" class="st1" points="193.9,384.8 203,384.8 203,374.7 		"/>
	</g>
	<g id="XMLID_661_">
		<path id="XMLID_662_" class="st5" d="M253.4,92.2l-29.3-29.7c-1.4-1.4-1.3-3.7,0-5l0.1-0.1c1.4-1.4,3.7-1.3,5,0l29.3,29.7
			c1.4,1.4,1.3,3.7,0,5l-0.1,0.1C257,93.5,254.7,93.5,253.4,92.2z"/>
		<circle id="XMLID_663_" class="st5" cx="225.1" cy="57.8" r="22.6"/>
	</g>
</g>
</svg>
